<?xml version="1.0" encoding="UTF-8"?>
<!DOCTYPE svg PUBLIC "-//W3C//DTD SVG 1.1//EN" "http://www.w3.org/Graphics/SVG/1.1/DTD/svg11.dtd">
<!-- Creator: CorelDRAW -->
<svg xmlns="http://www.w3.org/2000/svg" xml:space="preserve" width="512px" height="512px" version="1.1" style="shape-rendering:geometricPrecision; text-rendering:geometricPrecision; image-rendering:optimizeQuality; fill-rule:evenodd; clip-rule:evenodd"
viewBox="0 0 512 512"
 xmlns:xlink="http://www.w3.org/1999/xlink"
 xmlns:xodm="http://www.corel.com/coreldraw/odm/2003">
 <defs>
  <style type="text/css">
   <![CDATA[
    .fil0 {fill:none}
    .fil3 {fill:#FF8300}
    .fil2 {fill:#FF9A00}
    .fil1 {fill:#FFCD37}
   ]]>
  </style>
 </defs>
 <g id="Camada_x0020_1">
  <metadata id="CorelCorpID_0Corel-Layer"/>
  <polygon id="Area" class="fil0" points="75,75 437,75 437,437 75,437 "/>
  <g id="Olympus">
   <path class="fil1" d="M317.78 179.46l2.15 3.57c0.77,1.27 1.39,2.44 2.12,3.75l2.03 3.72c0.35,0.59 1.8,3.38 1.93,3.95 -0.38,-0.26 -1.44,-1.64 -1.86,-2.06 -0.68,-0.69 -1.27,-1.29 -1.96,-1.96 -0.97,-0.96 -3.33,-2.69 -4.46,-3.38 -0.45,-0.26 -0.85,-0.46 -1.26,-0.7 -2.74,-1.61 -7.81,-2.63 -11.1,-2.61 -5.14,0.01 -9.6,0.82 -13.79,1.88 -3.71,0.93 -7.03,1.88 -10.65,3.06 -0.51,0.17 -1.18,0.21 -1.1,0.67 0.32,-0.16 0.45,-0.05 0.49,-0.04l28.07 11.52c1.35,0.56 28.02,11.34 28.49,11.77 -0.85,0.24 -2.03,0.46 -2.68,0.92l3 9.97c1,3.43 3.31,14.62 3.31,18.24 -0.3,-0.35 -1.49,-4.2 -3.13,-6.66 -0.27,-0.4 -0.53,-0.79 -0.79,-1.18l-1.73 -2.19c-1.38,-1.4 -2.51,-2.53 -4.17,-3.66 -1.68,-1.14 -3.19,-1.96 -5.17,-2.8 -3.82,-1.64 -7.62,-2.57 -12.23,-3.44 -2.29,-0.43 -4.42,-0.69 -6.82,-1.03 -1.22,-0.17 -2.27,-0.21 -3.52,-0.39 -1.2,-0.16 -2.52,-0.33 -3.77,-0.33l8.42 8.74c0.81,0.88 1.85,2.14 2.74,2.88 0.9,0.75 1.97,2.05 2.8,2.95 0.48,0.51 0.98,0.91 1.45,1.42l5.54 5.82c0.46,0.5 0.93,0.86 1.39,1.36 1.82,1.96 3.71,3.85 5.54,5.82l8.44 8.67c0.95,0.93 1.78,1.93 2.71,2.91l1.45 1.42c0.61,0.66 3.87,3.92 4.12,4.43l-3.66 -0.34c0,0.75 -0.26,1.83 -0.38,2.52 -0.15,0.91 -0.3,1.61 -0.48,2.52 -0.96,4.78 -2.31,9.51 -4.03,14 -0.58,1.5 -1.11,2.83 -1.74,4.27 -1.27,2.94 -2.51,5.22 -4,8.02 -0.18,0.35 -0.32,0.55 -0.53,0.9 -0.23,0.37 -0.36,0.64 -0.57,1 -0.28,0.46 -0.85,1.54 -1.2,1.8 0.16,-2 2,-8.2 1.96,-12.54 -0.01,-1 0.13,-1.42 0.13,-2.35 0,-0.92 -0.12,-1.37 -0.13,-2.36 -0.02,-2.35 -0.88,-5.76 -1.8,-7.87 -1.09,-2.53 -2.74,-4.61 -4.46,-6.51 -0.81,-0.9 -3.84,-3.23 -4.69,-3.79l-2.98 -1.86c-4.18,-2.48 -10.59,-5.12 -15.22,-6.85 -0.57,-0.21 -1.31,-0.43 -1.81,-0.67l-0.13 0.3c0.35,-0.08 0.33,0.16 0.52,0.61 0.13,0.31 0.27,0.59 0.41,0.89l18.41 40.5c2.12,4.61 4.19,9.38 6.31,14.01l-3.71 -1.36 -5.45 6.21c-0.99,0.98 -1.74,2.03 -2.82,2.93l-1.49 1.38c-0.27,0.27 -0.45,0.45 -0.72,0.72l-3.87 3.45c-2.85,2.29 -6.88,5.63 -9.94,7.68 0.32,-1.2 8.41,-11.34 6.43,-21.72 -1.12,-5.88 -4.14,-9.78 -7.55,-14.12 -0.25,-0.31 -0.31,-0.36 -0.54,-0.64l-1.7 -1.95c-0.5,-0.5 -0.76,-0.74 -1.2,-1.29 -1.29,-1.63 -5.64,-5.4 -7.36,-7.14 -0.45,-0.46 -0.79,-0.65 -1.24,-1.11 -0.36,-0.36 -0.97,-0.92 -1.41,-1.14l7.58 58.22c-0.93,-0.48 -2.58,-2.4 -3.2,-2.69 -0.26,0.32 -1.16,0.74 -1.59,1 -2.39,1.44 -6.37,3.48 -8.86,4.73 -5.35,2.7 -11.5,5.12 -17.07,7.35 -0.66,0.27 -1.35,0.61 -2.04,0.75 -0.19,0.18 -10.03,4.3 -10.54,4.38l-12.5 5.98c-4.35,2.18 -10.66,5.84 -14.35,8.63l-2.6 1.98c-0.36,0.29 -0.53,0.45 -0.85,0.71 -0.35,0.28 -0.49,0.54 -0.92,0.65 0.13,0.55 1.21,1.88 1.57,2.35l5.09 6.93 8.05 -6.33c0.36,-0.26 0.64,-0.48 0.97,-0.73 6.25,-4.7 16.73,-11.04 23.64,-14.49 0.88,-0.44 1.57,-0.8 2.53,-1.18 0.52,-0.51 9.6,-4.38 10.53,-4.44l9.66 -4.31c3.05,-1.36 6.51,-3.4 9.32,-4.79l5.97 -3.44 3.66 2.74c1.29,0.91 2.5,1.76 3.86,2.67 8.7,5.8 18.08,11.18 29.09,9.39 7.92,-1.29 15.5,-6.9 21.15,-11.51l5.27 -4.52c0.34,-0.27 0.51,-0.47 0.81,-0.76l2.59 -2.38c0.51,-0.39 1.34,-1.16 1.62,-1.69l-69.44 4.6 4.82 -4.51c0.33,-0.28 0.47,-0.44 0.81,-0.75 4.93,-4.57 12.64,-10.59 18.98,-13.3 2.16,-0.92 2.83,-0.98 4.47,-1.59 0.42,-0.84 1.62,-1.66 2.27,-2.5l6.61 -7.89c1.56,0.36 3.34,0.57 5.04,0.84 1.82,0.29 3.46,0.41 5.33,0.67 2.22,0.31 6.08,0.44 8.44,0.45 0.93,0 1.9,-0.06 2.86,-0.14 5.44,-0.43 8.52,-1.42 12.77,-3.56 0.43,-0.22 0.62,-0.3 1.01,-0.56 4.8,-3.18 6.78,-5.04 10.62,-10.15 0.45,-0.6 0.83,-1.11 1.27,-1.74 1.27,-1.83 3.39,-5.22 4.56,-7.32 0.94,-1.71 5.86,-10.92 6.09,-11.93l-0.2 0c-0.24,0.44 -0.14,0.25 -0.94,0.69l-14.06 7.62c-2.47,1.42 -5.07,2.72 -7.55,4.08 -2.48,1.36 -5,2.83 -7.53,4.09 -2.59,1.29 -4.97,2.77 -7.53,4.09 -2.49,1.29 -5.04,2.69 -7.54,4.09 -2.49,1.4 -5.08,2.67 -7.55,4.08 -1.19,0.68 -2.47,1.38 -3.72,2.02 -1.1,0.56 -2.64,1.34 -3.67,1.96 0.21,-0.78 3.16,-6.49 3.73,-7.52 3.37,-6.17 7.06,-12.91 11.97,-17.8l2.07 -2.17 1.38 -4.44c0.43,-1.57 0.88,-3.16 1.28,-4.73 0.4,-1.6 0.72,-3.26 1.04,-4.84 0.2,-1.03 0.81,-4.24 0.81,-5.19l4.94 -0.42c5,-0.56 9.28,-1.18 14.08,-2.38 3.04,-0.76 5.54,-1.71 8.02,-2.95 2.64,-1.32 4.36,-2.62 6.37,-4.61 3.85,-3.8 5.8,-9.88 6.84,-15.1 0.37,-1.87 1.05,-7.61 1.16,-9.81l0.26 -7.97 0 -0.02 0 -0.02 0 -0.02c0,-0.35 0,-0.71 0,-1.06l0 -1.07c-0.02,-0.16 -0.05,-0.3 -0.12,-0.42l-3.98 4.39c-0.26,0.27 -0.49,0.42 -0.74,0.7 -1.79,1.96 -5.66,6.23 -7.38,7.9l-7.95 8.5c-0.47,0.54 -0.75,0.91 -1.32,1.42 -0.52,0.46 -0.9,0.98 -1.37,1.52 -0.28,0.32 -0.4,0.39 -0.72,0.7l-1.97 2.09c-0.47,0.49 -0.81,0.97 -1.28,1.46l-2.69 2.79c-0.86,0.99 -1.77,1.88 -2.62,2.87l-9.35 9.98c-0.43,0.49 -0.91,0.9 -1.31,1.36 -0.34,-3.13 0.42,-13.94 0.91,-17.45 0.21,-1.48 0.85,-3.95 0.88,-5.24l-1.06 -8.75 -1.55 -8.23c-0.98,-3.96 -1.87,-7.76 -3.16,-11.61l-1.16 -3.81c2.37,-1.25 4.69,-2.44 7,-3.84 0.33,-0.2 0.53,-0.3 0.84,-0.47 3.54,-2.04 5.77,-3.87 8.88,-6.26l4.09 -4.15c9.29,-10.4 3.94,-26.98 -0.05,-38.94 -0.11,-0.33 -0.25,-0.66 -0.36,-0.95 -0.14,-0.4 -0.18,-0.73 -0.47,-1.03l-21.89 56.23 -0.28 -0.56c-0.07,-0.17 -0.13,-0.38 -0.2,-0.59 -1.65,-4.82 -4.02,-12.15 -4.7,-16.81 -0.22,-0.1 -0.17,0.19 -0.17,-0.26 -0.02,-0.02 -0.04,-0.1 -0.05,-0.08 -0.06,0.19 -0.07,-0.14 -0.09,-0.17l-4.12 -8.03c-0.26,-0.44 -0.37,-0.76 -0.62,-1.21 -0.42,-0.78 -0.84,-1.51 -1.27,-2.26 -0.56,-0.97 -3.89,-6.45 -3.89,-6.91l0.34 -3.19c0.15,-1.12 0.05,-2.32 0.22,-3.43 0.16,-1.09 -0.03,-2.32 0.13,-3.4 0.15,-1.01 -0.13,-5.57 -0.19,-6.84 -0.12,-2.48 -1.06,-6.76 -1.92,-8.93 -2.69,-6.86 -6.75,-10.44 -12.81,-14.09l-4.76 -2.42c-3.05,-1.3 -5.69,-2.5 -8.96,-3.58 -0.97,-0.32 -7.64,-2.69 -8.12,-2.52 0.13,0.11 0.08,0.07 0.21,0.23l4.25 6.6c2.88,4.32 5.88,9.3 8.75,13.72l6.58 10.27c4.19,6.81 8.93,13.77 13.14,20.56 0.39,0.63 1.91,2.82 2.05,3.37l-5.59 -1.76z"/>
   <path class="fil1" d="M177.33 193.79c-0.8,4.85 -2.76,11.05 -4.37,15.84l-0.87 2.14 -21.83 -56.25c-0.02,0.03 -0.05,0.04 -0.06,0.09l-2.74 8.01c-0.81,2.93 -1.63,5.6 -2.26,8.72 -1.53,7.69 -1.69,16.31 2.95,22.46 0.42,0.56 0.71,1.06 1.17,1.57 1.34,1.49 2.47,2.88 4.09,4.14l3.04 2.45c4.05,2.97 6.41,4.06 10.15,6.3 1.19,0.71 2.39,1.27 3.59,1.9l-1.13 3.71c-2.83,8.53 -4.61,17.5 -5.56,26.44 -0.06,0.54 -0.23,1.69 -0.24,2.25 0.03,1.3 0.67,3.76 0.88,5.25 0.25,1.84 0.44,3.72 0.58,5.59 0.16,2.36 0.55,9.85 0.33,11.85l-32.04 -34.24c-1.34,-1.55 -3.85,-3.99 -5.37,-5.73l-3.97 -4.25c-0.26,-0.3 -0.42,-0.5 -0.7,-0.75 -0.39,-0.34 -0.4,-0.28 -0.6,-0.71 -0.08,0.12 -0.11,0.3 -0.12,0.49l0 4.86c0.03,0.85 0.14,0.83 0.13,2.49 -0.01,0.97 0.1,1.58 0.13,2.61 0.05,1.89 0.84,8.24 1.14,9.83 0.82,4.23 2.09,8.62 4.4,12.06 3.96,5.92 9.68,8.91 16.74,10.69 2.7,0.67 4.29,0.97 6.83,1.4 0.75,0.12 1.56,0.28 2.37,0.37 1.57,0.17 3.33,0.42 4.87,0.62l5.06 0.43c0,1.54 1.47,8.53 1.82,9.92l1.91 6.84c0.21,0.63 0.66,1.71 0.71,2.31 0.18,0 0.14,-0.04 0.07,0.13 0.53,0.68 0.9,0.98 1.43,1.5 3.61,3.6 5.76,6.82 8.56,11.3 0.94,1.5 7.29,12.9 7.78,14.69l-7.47 -4.04c-4.7,-2.67 -10.3,-5.48 -15.09,-8.16 -2.47,-1.37 -5.02,-2.81 -7.53,-4.09 -2.6,-1.32 -4.96,-2.78 -7.54,-4.09 -2.52,-1.27 -4.98,-2.73 -7.54,-4.08 -2.49,-1.32 -5.1,-2.68 -7.54,-4.08l-6.52 -3.54c-0.96,-0.51 -0.69,-0.28 -0.86,-0.64l1.71 3.96c0.66,1.31 1.3,2.78 2.03,3.98 0.37,0.61 0.67,1.27 1.01,1.86l2.16 3.86c0.39,0.67 0.74,1.24 1.12,1.88 1.13,1.87 3.42,5.24 4.87,7.02 2.62,3.21 4.38,4.99 7.55,7.33 4.61,3.4 9.63,4.71 15.55,5.36l5.72 0.14c4.08,-0.34 6.67,-0.44 10.92,-1.09 1.71,-0.27 3.58,-0.49 5.15,-0.86 1.3,1.94 2.85,3.57 4.27,5.26l4.61 5.12c1.57,0.56 3.03,0.96 4.57,1.64 6.9,3.06 11.11,6.83 16.58,11.25 0.6,0.49 0.99,0.9 1.57,1.42 0.32,0.28 0.57,0.42 0.86,0.71 1.59,1.59 3.88,3.34 5.5,5.19l-69.44 -4.65c0.48,0.9 3.27,3.11 4.09,3.94 3.05,3.07 10.33,8.77 13.6,10.95 7.56,5.05 16.14,8.06 25.37,5.36 8.25,-2.41 16.31,-7.62 23.15,-12.77 0.32,-0.25 0.55,-0.42 0.89,-0.67l0.95 -0.75c0.54,0.36 1.18,0.75 1.79,1.08l7.57 4.19c0.72,0.35 1.33,0.66 2.01,1 0.67,0.34 1.29,0.64 2,1 0.59,0.3 1.45,0.8 2.05,0.97 1.3,-0.73 3.26,-1.54 4.75,-2.18 0.92,-0.39 4.28,-1.73 4.8,-2.14 -3,-1.46 -6.55,-2.95 -9.73,-4.53l-6.97 -3.74c-0.53,-0.3 -1.98,-1.03 -2.26,-1.38 -0.44,0.22 -0.48,0.31 -0.84,0.7l-2.38 2 7.59 -58.23c-0.39,0.2 -1,0.74 -1.33,1.08 -0.46,0.47 -0.8,0.66 -1.25,1.11 -0.48,0.49 -0.7,0.67 -1.23,1.11l-6.12 6.03c-0.54,0.7 -3.2,3.51 -4.51,5.15 -2.98,3.74 -5.5,7.88 -6.51,12.7 -1.12,5.36 0.56,11.06 2.87,15.66 0.97,1.94 2.33,4.37 3.52,6.14 -0.5,-0.13 -2.83,-1.93 -3.39,-2.35 -1.13,-0.84 -2.19,-1.67 -3.31,-2.57l-4.69 -3.93c-0.33,-0.32 -0.46,-0.37 -0.79,-0.65 -1.16,-1.02 -2.69,-2.68 -3.77,-3.54 -1.34,-1.07 -4.16,-4.41 -5.63,-6l-2.71 -3.19 -3.73 1.3c2.15,-4.62 4.18,-9.4 6.37,-14.05 2.2,-4.68 4.34,-9.39 6.41,-14.09 2.09,-4.75 4.29,-9.34 6.41,-14.09l5.59 -12.31c0.47,-0.99 0.53,-1.6 0.89,-1.42l-0.13 -0.3c-0.52,0.25 -1.16,0.44 -1.71,0.63 -0.62,0.22 -1.19,0.45 -1.8,0.69 -1.11,0.45 -2.31,0.86 -3.46,1.38 -0.58,0.26 -1.11,0.45 -1.65,0.69 -3.3,1.44 -6.79,3.04 -9.82,4.94 -1.24,0.78 -5.22,3.62 -6.19,4.78 -2,2.39 -2.94,3.02 -4.49,6.48 -1.32,2.92 -1.97,6.91 -1.97,10.19 0,0.99 0.15,1.43 0.14,2.35 -0.03,2.79 0.97,7.85 1.55,10.72 0.13,0.65 0.39,1.4 0.4,2.08l-6.26 -11.76c-0.63,-1.4 -1.16,-2.78 -1.74,-4.27 -1.88,-4.8 -3.7,-11.45 -4.54,-16.49 -0.12,-0.75 -0.39,-1.86 -0.39,-2.64l-3.66 0.33c0.25,-0.51 0.92,-1.17 1.36,-1.57l4.22 -4.27c0.93,-0.98 1.81,-2.07 2.77,-2.98l2.77 -2.84c0.25,-0.28 0.42,-0.48 0.69,-0.75l2.14 -2.16c2.64,-2.84 5.57,-5.68 8.32,-8.67 0.47,-0.51 0.97,-0.91 1.45,-1.42 0.49,-0.53 0.89,-0.96 1.38,-1.49 0.91,-0.98 1.87,-1.87 2.77,-2.85l16.07 -16.71c0.42,-0.38 0.4,-0.22 0.67,-0.7l-3.69 0.29c-9.78,1.22 -22.43,2.67 -29.97,9.34 -1.08,0.95 -1.95,1.96 -2.87,3.01 -0.31,0.35 -0.57,0.71 -0.84,1.12 -1.99,3 -2.35,3.82 -3.63,7.21l-0.34 0.71c0,-3.37 1.78,-11.62 2.45,-14.79 0.8,-3.8 1.85,-6.67 2.8,-10.13 0.29,-1.04 0.83,-2.2 1.06,-3.29 -0.65,-0.44 -1.83,-0.71 -2.68,-0.92 0.52,-0.43 12.52,-5.2 14.23,-5.91l41.95 -17.22c0.01,-0.01 0.46,-0.17 0.48,-0.17 0.33,-0.04 0.23,-0.03 0.4,0.05 0.06,-0.48 -1.7,-0.88 -2.58,-1.16l-6.05 -1.78c-7.71,-1.93 -18.66,-4.55 -26.68,-0.67 -2.61,1.26 -3.6,1.75 -6.01,3.78 -2.14,1.81 -2.37,2.35 -3.92,3.91 -0.36,0.36 -0.54,0.74 -0.95,1.02 0.14,-0.59 2.37,-4.88 2.88,-5.75 0.35,-0.6 0.75,-1.25 1.08,-1.92 0.32,-0.62 0.67,-1.26 1.03,-1.84l3.24 -5.48 -5.6 1.74c0.15,-0.48 3.73,-5.99 4.3,-6.86 1.52,-2.33 2.95,-4.54 4.39,-6.84l6.57 -10.29c0.76,-1.13 1.41,-2.27 2.19,-3.42 0.77,-1.15 1.41,-2.25 2.19,-3.43 2.92,-4.43 5.83,-9.3 8.75,-13.71l5.46 -8.52c0.22,-0.35 0.36,-0.6 0.55,-0.89l0.59 -0.77c-0.68,-0.24 -11.9,3.9 -13.25,4.44 -1.67,0.67 -5.98,2.56 -7.42,3.43 -3.22,1.96 -2.96,1.58 -6.43,4.28 -2.05,1.59 -3.68,3.52 -5.14,5.7 -2.71,4.03 -4.41,10.54 -4.47,15.38 -0.02,1.63 -0.2,3.91 -0.03,5.13 0.12,0.89 0.14,5.54 0.33,6.98 0.51,3.85 0.6,2.89 -0.97,5.5 -1.42,2.35 -3.91,6.7 -5.16,9.21l-2.48 4.83c-0.27,0.54 -0.98,2.18 -1.26,2.44z"/>
   <path class="fil2" d="M152.42 339.77l69.44 4.65c-1.62,-1.85 -3.91,-3.6 -5.5,-5.19 -0.29,-0.29 -0.54,-0.43 -0.86,-0.71 -0.58,-0.52 -0.97,-0.93 -1.57,-1.42 -5.47,-4.42 -9.68,-8.19 -16.58,-11.25 -1.54,-0.68 -3,-1.08 -4.57,-1.64 -9.84,-2.95 -19.55,1.49 -27.76,6.52l-12.37 8.69c-0.43,0.35 -0.36,0.24 -0.23,0.35z"/>
   <path class="fil2" d="M319.22 324.22c-1.64,0.61 -2.31,0.67 -4.47,1.59 -6.34,2.71 -14.05,8.73 -18.98,13.3 -0.34,0.31 -0.48,0.47 -0.81,0.75l-4.82 4.51 69.44 -4.6c0.15,-0.07 0.24,0.07 -0.15,-0.3 -1.59,-1.46 -10.43,-7.45 -12.29,-8.64l-3.45 -2.02c-4.1,-2.08 -6.54,-3.52 -11.57,-4.77 -4.13,-1.03 -8.92,-1.03 -12.9,0.18z"/>
   <path class="fil2" d="M348.74 243.56c-0.03,1.29 -0.67,3.76 -0.88,5.24 -0.49,3.51 -1.25,14.32 -0.91,17.45 0.4,-0.46 0.88,-0.87 1.31,-1.36l9.35 -9.98c0.85,-0.99 1.76,-1.88 2.62,-2.87l2.69 -2.79c0.47,-0.49 0.81,-0.97 1.28,-1.46l1.97 -2.09c0.32,-0.31 0.44,-0.38 0.72,-0.7 0.47,-0.54 0.85,-1.06 1.37,-1.52 0.57,-0.51 0.85,-0.88 1.32,-1.42l7.95 -8.5c1.72,-1.67 5.59,-5.94 7.38,-7.9 0.25,-0.28 0.48,-0.43 0.74,-0.7l3.98 -4.39c-2.93,0 -11.5,1.2 -14.28,1.66 -2.23,0.37 -4.51,0.84 -6.54,1.43 -7.15,2.07 -12.64,4.73 -16.62,11.2 -0.91,1.48 -1.99,3.89 -2.52,5.58l-0.85 2.94c-0.01,0.03 -0.03,0.07 -0.04,0.09 -0.01,0.02 -0.03,0.06 -0.04,0.09z"/>
   <path class="fil2" d="M163.26 243.56c-0.09,-0.16 -0.01,0.02 -0.12,-0.27l-0.32 -1.25c-0.15,-0.52 -0.31,-1.03 -0.45,-1.5 -0.31,-1 -0.74,-1.96 -1.14,-2.92 -1.05,-2.51 -2.87,-5.2 -4.79,-7.09 -0.37,-0.37 -0.65,-0.55 -1.05,-0.92 -6.6,-6.15 -20.21,-7.79 -29.24,-8.76 -1.22,-0.13 -2.56,-0.28 -3.78,-0.28 0.2,0.43 0.21,0.37 0.6,0.71 0.28,0.25 0.44,0.45 0.7,0.75l3.97 4.25c1.52,1.74 4.03,4.18 5.37,5.73l32.04 34.24c0.22,-2 -0.17,-9.49 -0.33,-11.85 -0.14,-1.87 -0.33,-3.75 -0.58,-5.59 -0.21,-1.49 -0.85,-3.95 -0.88,-5.25z"/>
   <path class="fil2" d="M340.12 266.13l3.66 0.34c-0.25,-0.51 -3.51,-3.77 -4.12,-4.43l-1.45 -1.42c-0.93,-0.98 -1.76,-1.98 -2.71,-2.91l-8.44 -8.67c-1.83,-1.97 -3.72,-3.86 -5.54,-5.82 -0.46,-0.5 -0.93,-0.86 -1.39,-1.36l-5.54 -5.82c-0.47,-0.51 -0.97,-0.91 -1.45,-1.42 -0.83,-0.9 -1.9,-2.2 -2.8,-2.95 -0.89,-0.74 -1.93,-2 -2.74,-2.88l-8.42 -8.74c-0.26,0.71 0.55,8.77 0.68,9.95 0.68,6.05 1.69,12.32 4.04,17.78 0.86,2 1.75,3.53 2.98,5.24 0.4,0.55 0.74,1.07 1.2,1.54l1.24 1.38c1.32,1.24 3.17,2.61 4.7,3.53 4.54,2.74 10.98,4.47 16.43,5.38 1.05,0.17 8.65,1.36 9.67,1.28z"/>
   <path class="fil2" d="M171.88 266.13c1.19,0.08 8.35,-1.06 9.56,-1.26 3.85,-0.64 5.33,-1.1 8.89,-2.08l3.93 -1.43c2.29,-1 5.72,-2.87 7.57,-4.71 0.58,-0.58 0.73,-0.46 1.4,-1.34 0.58,-0.75 0.82,-0.78 1.83,-2.22 4.81,-6.85 6.1,-14.69 7.06,-22.97 0.15,-1.23 0.96,-9.3 0.71,-10.07 -0.27,0.48 -0.25,0.32 -0.67,0.7l-16.07 16.71c-0.9,0.98 -1.86,1.87 -2.77,2.85 -0.49,0.53 -0.89,0.96 -1.38,1.49 -0.48,0.51 -0.98,0.91 -1.45,1.42 -2.75,2.99 -5.68,5.83 -8.32,8.67l-2.14 2.16c-0.27,0.27 -0.44,0.47 -0.69,0.75l-2.77 2.84c-0.96,0.91 -1.84,2 -2.77,2.98l-4.22 4.27c-0.44,0.4 -1.11,1.06 -1.36,1.57l3.66 -0.33z"/>
   <path class="fil2" d="M317.78 179.46l5.59 1.76c-0.14,-0.55 -1.66,-2.74 -2.05,-3.37 -4.21,-6.79 -8.95,-13.75 -13.14,-20.56l-6.58 -10.27c-2.87,-4.42 -5.87,-9.4 -8.75,-13.72l-4.25 -6.6c-0.13,-0.16 -0.08,-0.12 -0.21,-0.23 -0.37,1.92 -0.62,5 -0.88,7.01 -0.49,3.97 -0.55,8.6 -0.55,12.9 -0.01,3.47 0.5,6.56 1.2,9.38 0.35,1.44 0.77,2.68 1.33,4.02 0.54,1.3 1.18,2.33 1.86,3.49 0.88,1.49 2.92,3.83 4.19,4.95 1.85,1.63 5.03,3.89 7.17,4.98l3.49 1.74c3.65,1.84 7.01,2.79 10.48,4.15 0.42,0.16 0.6,0.27 1.1,0.37z"/>
   <path class="fil2" d="M298.06 256.66l-1.83 6.36c-2.47,9.33 -5.22,21.42 -1.48,30.08 0.9,2.06 2.76,4.85 4.38,6.46 4.43,4.38 11.15,7.86 16.97,10.2 1.3,0.52 2.6,1.13 3.9,1.55l3.71 1.36c-2.12,-4.63 -4.19,-9.4 -6.31,-14.01l-18.41 -40.5c-0.14,-0.3 -0.28,-0.58 -0.41,-0.89 -0.19,-0.45 -0.17,-0.69 -0.52,-0.61z"/>
   <path class="fil2" d="M192 311.32c1.23,-0.45 2.56,-0.96 3.82,-1.5 3.81,-1.65 5.57,-2.48 9.15,-4.44 0.65,-0.35 1.11,-0.63 1.73,-1.01 2.15,-1.31 4.37,-3.03 6.1,-4.75 0.28,-0.28 0.39,-0.38 0.62,-0.68 0.57,-0.75 0.98,-1.04 1.8,-2.25 4.49,-6.61 4.44,-14.19 3.05,-22.59 -0.63,-3.82 -1.56,-7.42 -2.47,-10.98l-1.86 -6.46c-0.36,-0.18 -0.42,0.43 -0.89,1.42l-5.59 12.31c-2.12,4.75 -4.32,9.34 -6.41,14.09 -2.07,4.7 -4.21,9.41 -6.41,14.09 -2.19,4.65 -4.22,9.43 -6.37,14.05l3.73 -1.3z"/>
   <path class="fil2" d="M194.22 179.46c0.66,-0.13 1.37,-0.47 1.97,-0.67 4.96,-1.64 8.55,-3.29 13.1,-5.59l6.32 -4.26c2.26,-2.1 1.97,-1.66 3.91,-4.05l1.13 -1.62c0.67,-1.14 1.28,-2.14 1.8,-3.42 2.79,-6.81 2.57,-11.43 2.6,-18.7 0.01,-2.23 -1,-12.39 -1.44,-14.68l-0.59 0.77c-0.19,0.29 -0.33,0.54 -0.55,0.89l-5.46 8.52c-2.92,4.41 -5.83,9.28 -8.75,13.71 -0.78,1.18 -1.42,2.28 -2.19,3.43 -0.78,1.15 -1.43,2.29 -2.19,3.42l-6.57 10.29c-1.44,2.3 -2.87,4.51 -4.39,6.84 -0.57,0.87 -4.15,6.38 -4.3,6.86l5.6 -1.74z"/>
   <path class="fil2" d="M343.57 285.62l-2.07 2.17c-4.91,4.89 -8.6,11.63 -11.97,17.8 -0.57,1.03 -3.52,6.74 -3.73,7.52 1.03,-0.62 2.57,-1.4 3.67,-1.96 1.25,-0.64 2.53,-1.34 3.72,-2.02 2.47,-1.41 5.06,-2.68 7.55,-4.08 2.5,-1.4 5.05,-2.8 7.54,-4.09 2.56,-1.32 4.94,-2.8 7.53,-4.09 2.53,-1.26 5.05,-2.73 7.53,-4.09 2.48,-1.36 5.08,-2.66 7.55,-4.08l14.06 -7.62c0.8,-0.44 0.7,-0.25 0.94,-0.69 -0.82,-0.06 -2.01,-0.37 -2.82,-0.5 -0.98,-0.17 -1.79,-0.3 -2.8,-0.47 -4.47,-0.75 -7.25,-1 -11.81,-1.25l-3.13 -0.13c-1.24,0 -1.98,0.12 -3.14,0.13 -2.04,0.01 -6.26,0.85 -8.28,1.52 -2.4,0.8 -4.59,1.78 -6.64,3.16 -1.75,1.17 -2.33,1.78 -3.7,2.77z"/>
   <path class="fil2" d="M126.11 280.39c0.17,0.36 -0.1,0.13 0.86,0.64l6.52 3.54c2.44,1.4 5.05,2.76 7.54,4.08 2.56,1.35 5.02,2.81 7.54,4.08 2.58,1.31 4.94,2.77 7.54,4.09 2.51,1.28 5.06,2.72 7.53,4.09 4.79,2.68 10.39,5.49 15.09,8.16l7.47 4.04c-0.49,-1.79 -6.84,-13.19 -7.78,-14.69 -2.8,-4.48 -4.95,-7.7 -8.56,-11.3 -0.53,-0.52 -0.9,-0.82 -1.43,-1.5l-0.07 -0.13 -3.71 -2.7c-2.1,-1.4 -4.23,-2.34 -6.66,-3.13 -3.35,-1.1 -7.8,-1.62 -11.32,-1.62 -2.15,0 -7.11,0.29 -9.21,0.58l-8.53 1.27c-0.81,0.13 -2,0.44 -2.82,0.5z"/>
   <path class="fil2" d="M334.2 213.52c0.65,-0.46 1.83,-0.68 2.68,-0.92 -0.47,-0.43 -27.14,-11.21 -28.49,-11.77l-28.07 -11.52c-0.04,-0.01 -0.17,-0.12 -0.49,0.04l1.9 3.53c0.17,0.34 0.29,0.47 0.48,0.83l4.59 7.68c1.65,2.48 2.69,3.94 4.58,6.27 0.22,0.28 0.37,0.38 0.61,0.69 0.29,0.37 0.36,0.44 0.68,0.76 0.95,0.94 1.76,1.85 2.79,2.69l1.52 1.23c5.78,4.34 12.12,5.39 19.52,4.56 5.47,-0.62 10.4,-1.92 15.6,-3.47 0.58,-0.17 1.62,-0.56 2.1,-0.6z"/>
   <path class="fil2" d="M177.8 213.52l4.11 1.2c9.72,2.73 20.29,5.15 29.68,0.49 3.28,-1.62 5.19,-3.57 7.61,-5.97 0.49,-0.49 0.84,-0.93 1.3,-1.44 1.91,-2.14 4.09,-5.52 5.67,-7.92 1.84,-2.81 2.95,-5.11 4.5,-7.78l1.51 -2.75c-0.17,-0.08 -0.07,-0.09 -0.4,-0.05 -0.02,0 -0.47,0.16 -0.48,0.17l-41.95 17.22c-1.71,0.71 -13.71,5.48 -14.23,5.91 0.85,0.21 2.03,0.48 2.68,0.92z"/>
   <path class="fil2" d="M285.52 340.1c0.62,0.29 2.27,2.21 3.2,2.69l-7.58 -58.22c-0.05,-0.17 0.1,-0.37 -0.51,0.46 -0.22,0.3 -0.35,0.47 -0.56,0.75 -0.42,0.57 -0.75,1.01 -1.17,1.57 -0.43,0.56 -0.73,1.02 -1.16,1.59l-4.41 6.56c-4.23,7.1 -7.54,14.44 -4.68,23.05 1.63,4.88 5.21,9.48 8.61,13.34 0.46,0.52 0.91,0.85 1.34,1.4 1.16,1.52 4.04,3.97 5.51,5.45l1.41 1.36z"/>
   <path class="fil2" d="M226.48 340.1c0.52,-0.38 0.88,-0.83 1.34,-1.29 0.51,-0.52 0.93,-0.79 1.44,-1.31 0.94,-0.95 1.79,-1.79 2.74,-2.74l5.19 -5.78c1.46,-1.87 3.33,-4.29 4.4,-6.44 1.36,-2.73 2.21,-4.63 2.73,-8.24 0.49,-3.35 -0.4,-7.25 -1.17,-9.57 -0.25,-0.76 -0.47,-1.28 -0.75,-1.98l-1.76 -3.74c-1.01,-1.69 -1.66,-3.15 -2.98,-5.11l-6.52 -9.18c-0.45,-0.48 -0.23,-0.22 -0.29,-0.15l-7.59 58.23 2.38 -2c0.36,-0.39 0.4,-0.48 0.84,-0.7z"/>
   <path class="fil2" d="M177.33 193.79c1.16,-5.84 1.28,-12.71 -1.35,-17.94 -1.56,-3.09 -2.91,-4.81 -5.37,-7.3 -2.43,-2.46 -6.69,-5.4 -9.64,-7.2l-10.08 -5.62c-0.02,-0.01 -0.34,-0.17 -0.35,-0.17 -0.34,-0.14 -0.16,-0.13 -0.28,-0.04l21.83 56.25 0.87 -2.14c1.61,-4.79 3.57,-10.99 4.37,-15.84z"/>
   <path class="fil2" d="M334.5 193.53l0.17 0.26c0.68,4.66 3.05,11.99 4.7,16.81 0.07,0.21 0.13,0.42 0.2,0.59l0.28 0.56 21.89 -56.23c-0.16,-0.13 -0.99,0.4 -1.25,0.53 -0.45,0.22 -0.91,0.42 -1.38,0.7l-4.06 2.21c-3.12,1.67 -6.04,3.7 -8.95,5.68 -0.46,0.31 -0.76,0.55 -1.19,0.9 -0.41,0.33 -0.78,0.59 -1.17,0.93 -3.8,3.32 -7.22,6.78 -8.77,12.11 -1.07,3.64 -1.41,7.29 -0.9,11.2l0.43 3.75z"/>
   <path class="fil1" d="M264.88 367.38l0.39 0.26c0.14,0.09 0.26,0.15 0.42,0.24l2.64 1.53c1.23,0.74 2.31,1.38 3.5,2.13 0.58,0.36 1.13,0.7 1.67,1.07 2.1,1.4 4.58,2.93 6.64,4.46l11 8.47c0.92,-1.38 6.48,-8.51 6.66,-9.28 -0.39,-0.1 -1.94,-1.52 -2.43,-1.88 -6.77,-5.1 -11.59,-7.76 -19.4,-11.7 -0.61,0.57 -9.65,4.28 -11.09,4.7z"/>
   <path class="fil3" d="M256.05 362.81l8.83 4.57c1.44,-0.42 10.48,-4.13 11.09,-4.7l-4.6 -2.18c-0.46,-0.23 -0.68,-0.32 -1.17,-0.53l-3.62 -1.6c-0.93,0.06 -10.01,3.93 -10.53,4.44z"/>
   <path class="fil3" d="M235.89 354.07c0.86,0.69 8.66,3.75 9.53,4.24 0.51,-0.08 10.35,-4.2 10.54,-4.38l-2.61 -1.01c-0.92,-0.36 -1.69,-0.68 -2.61,-1.05 -0.94,-0.37 -1.69,-0.67 -2.61,-1.04 -0.82,-0.33 -1.9,-0.89 -2.69,-1.08 -0.52,0.41 -3.88,1.75 -4.8,2.14 -1.49,0.64 -3.45,1.45 -4.75,2.18z"/>
  </g>
 </g>
</svg>
