<?xml version="1.0" encoding="UTF-8"?>
<!DOCTYPE svg PUBLIC "-//W3C//DTD SVG 1.1//EN" "http://www.w3.org/Graphics/SVG/1.1/DTD/svg11.dtd">
<!-- Creator: CorelDRAW -->
<svg xmlns="http://www.w3.org/2000/svg" xml:space="preserve" width="512px" height="512px" version="1.1" style="shape-rendering:geometricPrecision; text-rendering:geometricPrecision; image-rendering:optimizeQuality; fill-rule:evenodd; clip-rule:evenodd"
viewBox="0 0 512 512"
 xmlns:xlink="http://www.w3.org/1999/xlink"
 xmlns:xodm="http://www.corel.com/coreldraw/odm/2003">
 <defs>
  <style type="text/css">
   <![CDATA[
    .fil0 {fill:none}
    .fil3 {fill:#FF8300}
    .fil2 {fill:#FF9A00}
    .fil1 {fill:#FFCD37}
   ]]>
  </style>
 </defs>
 <g id="Camada_x0020_1">
  <metadata id="CorelCorpID_0Corel-Layer"/>
  <polygon id="Area" class="fil0" points="0,0 512,0 512,512 0,512 "/>
  <g id="Olympus">
   <path class="fil1" d="M374.25 109.5l4.11 6.83c1.47,2.43 2.67,4.68 4.06,7.18l3.88 7.13c0.68,1.12 3.45,6.46 3.7,7.55 -0.73,-0.5 -2.76,-3.14 -3.56,-3.95 -1.29,-1.31 -2.44,-2.45 -3.75,-3.75 -1.85,-1.83 -6.37,-5.15 -8.54,-6.45 -0.85,-0.52 -1.63,-0.89 -2.41,-1.34 -5.25,-3.09 -14.95,-5.04 -21.24,-5.02 -9.85,0.04 -18.38,1.59 -26.4,3.6 -7.11,1.79 -13.46,3.61 -20.38,5.87 -0.97,0.32 -2.26,0.39 -2.11,1.29 0.62,-0.31 0.86,-0.1 0.94,-0.08l53.73 22.04c2.59,1.07 53.63,21.72 54.52,22.53 -1.63,0.46 -3.88,0.89 -5.13,1.75l5.74 19.09c1.91,6.56 6.34,27.99 6.34,34.91 -0.58,-0.66 -2.84,-8.03 -6,-12.75 -0.5,-0.75 -1,-1.49 -1.5,-2.25l-3.31 -4.19c-2.65,-2.68 -4.8,-4.85 -7.99,-7.01 -3.2,-2.17 -6.09,-3.74 -9.88,-5.36 -7.31,-3.14 -14.6,-4.92 -23.43,-6.58 -4.36,-0.82 -8.45,-1.33 -13.03,-1.96 -2.35,-0.33 -4.36,-0.42 -6.76,-0.75 -2.29,-0.32 -4.82,-0.65 -7.21,-0.65l16.11 16.75c1.56,1.68 3.55,4.09 5.25,5.5 1.73,1.44 3.79,3.92 5.37,5.64 0.91,0.99 1.86,1.74 2.77,2.72l10.61 11.15c0.87,0.95 1.77,1.65 2.65,2.59 3.5,3.76 7.11,7.39 10.61,11.14l16.15 16.6c1.82,1.79 3.41,3.7 5.18,5.57l2.78 2.72c1.17,1.26 7.42,7.51 7.9,8.49l-7.02 -0.67c0,1.44 -0.5,3.51 -0.71,4.84 -0.29,1.73 -0.59,3.08 -0.94,4.82 -1.82,9.14 -4.42,18.2 -7.71,26.79 -1.1,2.86 -2.12,5.41 -3.32,8.18 -2.43,5.63 -4.81,9.99 -7.65,15.34 -0.36,0.68 -0.62,1.05 -1.03,1.72 -0.43,0.72 -0.68,1.23 -1.09,1.91 -0.54,0.9 -1.63,2.96 -2.3,3.45 0.32,-3.82 3.83,-15.69 3.75,-23.99 -0.01,-1.92 0.26,-2.72 0.26,-4.51 0,-1.75 -0.24,-2.61 -0.25,-4.5 -0.03,-4.51 -1.69,-11.03 -3.44,-15.07 -2.09,-4.84 -5.25,-8.83 -8.54,-12.46 -1.56,-1.72 -7.35,-6.18 -8.98,-7.27l-5.69 -3.55c-8.02,-4.74 -20.27,-9.8 -29.15,-13.11 -1.09,-0.4 -2.51,-0.83 -3.46,-1.29l-0.25 0.58c0.67,-0.15 0.63,0.31 1,1.18 0.24,0.58 0.51,1.12 0.78,1.7l35.25 77.51c4.05,8.83 8.01,17.95 12.07,26.82l-7.1 -2.6 -10.44 11.88c-1.89,1.88 -3.32,3.89 -5.38,5.61l-2.87 2.64c-0.52,0.51 -0.85,0.86 -1.37,1.38l-7.4 6.59c-5.46,4.38 -13.17,10.79 -19.04,14.71 0.61,-2.3 16.09,-21.7 12.32,-41.57 -2.14,-11.26 -7.93,-18.72 -14.46,-27.03 -0.47,-0.59 -0.58,-0.69 -1.03,-1.22l-3.26 -3.74c-0.96,-0.95 -1.44,-1.42 -2.28,-2.47 -2.48,-3.11 -10.82,-10.33 -14.1,-13.66 -0.87,-0.87 -1.52,-1.24 -2.38,-2.12 -0.68,-0.69 -1.86,-1.77 -2.68,-2.19l14.49 111.44c-1.77,-0.93 -4.94,-4.59 -6.12,-5.16 -0.49,0.63 -2.21,1.42 -3.05,1.93 -4.57,2.74 -12.19,6.64 -16.95,9.04 -10.24,5.18 -22.01,9.8 -32.68,14.07 -1.26,0.51 -2.58,1.16 -3.89,1.43 -0.37,0.35 -19.2,8.24 -20.18,8.4l-23.92 11.44c-8.34,4.17 -20.41,11.18 -27.47,16.52l-4.97 3.78c-0.7,0.55 -1.02,0.87 -1.64,1.36 -0.67,0.53 -0.93,1.03 -1.75,1.25 0.25,1.06 2.31,3.59 3,4.5l9.75 13.25 15.39 -12.1c0.7,-0.5 1.24,-0.93 1.86,-1.4 11.96,-9 32.04,-21.14 45.25,-27.75 1.68,-0.84 3,-1.52 4.85,-2.25 0.98,-0.97 18.37,-8.37 20.15,-8.5l18.5 -8.25c5.83,-2.59 12.45,-6.5 17.83,-9.17l11.42 -6.58 7 5.25c2.47,1.74 4.8,3.37 7.4,5.1 16.65,11.11 34.61,21.41 55.67,17.98 15.16,-2.48 29.68,-13.21 40.49,-22.02l10.08 -8.66c0.66,-0.51 0.98,-0.89 1.55,-1.46l4.95 -4.54c0.98,-0.76 2.57,-2.23 3.11,-3.25l-132.91 8.81 9.23 -8.64c0.63,-0.52 0.91,-0.83 1.55,-1.43 9.44,-8.74 24.19,-20.26 36.32,-25.45 4.14,-1.76 5.43,-1.87 8.56,-3.05 0.8,-1.61 3.11,-3.17 4.35,-4.78l12.65 -15.11c2.98,0.7 6.4,1.09 9.64,1.61 3.49,0.57 6.63,0.79 10.22,1.29 4.23,0.59 11.63,0.83 16.14,0.86 1.78,0 3.63,-0.12 5.49,-0.27 10.41,-0.83 16.3,-2.72 24.42,-6.82 0.82,-0.42 1.19,-0.57 1.94,-1.06 9.19,-6.1 12.98,-9.65 20.33,-19.43 0.87,-1.15 1.59,-2.12 2.42,-3.32 2.44,-3.52 6.5,-10 8.73,-14.03 1.81,-3.27 11.22,-20.89 11.67,-22.83l-0.38 0c-0.46,0.84 -0.27,0.47 -1.81,1.32l-26.91 14.59c-4.73,2.72 -9.7,5.2 -14.45,7.81 -4.75,2.6 -9.58,5.41 -14.41,7.82 -4.95,2.48 -9.52,5.3 -14.42,7.83 -4.76,2.47 -9.65,5.15 -14.42,7.83 -4.78,2.68 -9.73,5.11 -14.45,7.8 -2.28,1.31 -4.74,2.66 -7.13,3.88 -2.1,1.07 -5.06,2.56 -7.02,3.76 0.4,-1.51 6.04,-12.43 7.13,-14.41 6.45,-11.81 13.52,-24.7 22.92,-34.07l3.96 -4.16 2.64 -8.5c0.83,-2.98 1.69,-6.04 2.45,-9.05 0.76,-3.05 1.38,-6.23 1.99,-9.26 0.39,-1.97 1.56,-8.12 1.56,-9.94l9.45 -0.79c9.57,-1.06 17.76,-2.27 26.95,-4.56 5.81,-1.45 10.59,-3.27 15.35,-5.65 5.05,-2.52 8.34,-5.01 12.19,-8.81 7.36,-7.27 11.1,-18.92 13.08,-28.91 0.71,-3.58 2.01,-14.56 2.23,-18.77l0.5 -15.26 0 -0.03 0 -0.04 0 -0.04c0,-0.68 0,-1.36 0,-2.04l0 -2.04c-0.03,-0.3 -0.1,-0.58 -0.22,-0.81l-7.63 8.41c-0.49,0.52 -0.93,0.81 -1.41,1.33 -3.44,3.77 -10.83,11.94 -14.13,15.12l-15.22 16.29c-0.9,1.03 -1.43,1.74 -2.53,2.71 -0.99,0.88 -1.72,1.88 -2.61,2.9 -0.54,0.62 -0.78,0.75 -1.39,1.35l-3.76 3.99c-0.9,0.95 -1.55,1.86 -2.45,2.81l-5.15 5.34c-1.64,1.88 -3.39,3.6 -5.02,5.48l-17.9 19.11c-0.82,0.93 -1.73,1.72 -2.51,2.6 -0.65,-5.99 0.81,-26.69 1.76,-33.4 0.4,-2.83 1.61,-7.55 1.67,-10.04l-2.01 -16.73 -2.99 -15.77c-1.86,-7.56 -3.56,-14.84 -6.03,-22.21l-2.22 -7.29c4.53,-2.39 8.97,-4.68 13.39,-7.35 0.63,-0.39 1.02,-0.57 1.6,-0.91 6.78,-3.9 11.05,-7.4 17.01,-11.98l7.81 -7.94c17.79,-19.91 7.56,-51.65 -0.09,-74.54 -0.21,-0.61 -0.48,-1.25 -0.68,-1.81 -0.28,-0.76 -0.34,-1.4 -0.9,-1.97l-41.89 107.62 -0.55 -1.07c-0.13,-0.32 -0.24,-0.73 -0.38,-1.12 -3.16,-9.23 -7.7,-23.26 -9,-32.18 -0.41,-0.19 -0.32,0.37 -0.32,-0.5 -0.04,-0.05 -0.08,-0.19 -0.09,-0.15 -0.13,0.35 -0.15,-0.27 -0.18,-0.33l-7.88 -15.37c-0.5,-0.84 -0.72,-1.45 -1.18,-2.31 -0.81,-1.5 -1.61,-2.89 -2.43,-4.32 -1.08,-1.86 -7.46,-12.35 -7.46,-13.23l0.65 -6.1c0.29,-2.16 0.1,-4.46 0.42,-6.58 0.32,-2.08 -0.06,-4.44 0.26,-6.5 0.29,-1.94 -0.25,-10.67 -0.36,-13.1 -0.24,-4.75 -2.05,-12.94 -3.68,-17.08 -5.16,-13.13 -12.93,-19.98 -24.52,-26.97l-9.12 -4.63c-5.83,-2.49 -10.89,-4.79 -17.15,-6.86 -1.85,-0.61 -14.62,-5.14 -15.53,-4.81 0.24,0.21 0.15,0.13 0.4,0.42l8.13 12.64c5.51,8.26 11.26,17.81 16.75,26.25l12.59 19.66c8.02,13.04 17.1,26.37 25.14,39.36 0.76,1.21 3.66,5.4 3.94,6.44l-10.7 -3.36z"/>
   <path class="fil1" d="M105.43 136.93c-1.54,9.27 -5.29,21.15 -8.36,30.32l-1.68 4.1 -41.77 -107.67c-0.05,0.05 -0.11,0.07 -0.13,0.16l-5.24 15.34c-1.55,5.61 -3.12,10.73 -4.31,16.69 -2.95,14.72 -3.25,31.22 5.63,42.99 0.81,1.07 1.36,2.02 2.24,3.01 2.56,2.86 4.73,5.51 7.84,7.92l5.81 4.68c7.76,5.7 12.27,7.79 19.44,12.07 2.26,1.35 4.56,2.43 6.85,3.64l-2.15 7.1c-5.43,16.32 -8.82,33.49 -10.64,50.61 -0.11,1.03 -0.44,3.23 -0.46,4.29 0.05,2.5 1.27,7.21 1.67,10.07 0.5,3.5 0.86,7.11 1.11,10.69 0.32,4.51 1.06,18.85 0.65,22.68l-61.32 -65.54c-2.58,-2.97 -7.38,-7.63 -10.3,-10.96l-7.6 -8.15c-0.49,-0.56 -0.8,-0.95 -1.33,-1.42 -0.75,-0.65 -0.76,-0.54 -1.16,-1.37 -0.13,0.24 -0.19,0.59 -0.22,0.95l0 9.29c0.07,1.63 0.27,1.59 0.25,4.77 -0.01,1.85 0.19,3.02 0.24,5 0.1,3.61 1.61,15.78 2.2,18.81 1.56,8.1 4,16.49 8.41,23.09 7.58,11.32 18.52,17.05 32.05,20.45 5.15,1.29 8.21,1.86 13.07,2.68 1.43,0.24 2.98,0.55 4.53,0.71 3.01,0.33 6.37,0.81 9.32,1.18l9.68 0.82c0,2.95 2.83,16.33 3.5,19l3.65 13.1c0.4,1.19 1.26,3.26 1.35,4.4 0.35,0 0.28,-0.07 0.14,0.25 1.02,1.32 1.73,1.88 2.73,2.88 6.91,6.89 11.03,13.05 16.38,21.62 1.81,2.89 13.97,24.7 14.9,28.14l-14.29 -7.74c-9.01,-5.11 -19.71,-10.5 -28.9,-15.61 -4.71,-2.63 -9.59,-5.38 -14.41,-7.84 -4.97,-2.53 -9.48,-5.33 -14.42,-7.82 -4.83,-2.44 -9.54,-5.23 -14.43,-7.82 -4.77,-2.52 -9.77,-5.14 -14.44,-7.81l-12.48 -6.77c-1.84,-0.98 -1.32,-0.54 -1.65,-1.23l3.29 7.59c1.25,2.5 2.48,5.32 3.88,7.62 0.71,1.15 1.28,2.42 1.94,3.56l4.12 7.38c0.75,1.29 1.42,2.37 2.15,3.59 2.16,3.59 6.54,10.03 9.32,13.44 5.01,6.15 8.39,9.56 14.46,14.04 8.81,6.5 18.42,9.01 29.75,10.25l10.95 0.27c7.81,-0.65 12.77,-0.84 20.91,-2.09 3.27,-0.51 6.84,-0.94 9.85,-1.65 2.49,3.73 5.46,6.85 8.18,10.08l8.82 9.8c2.99,1.07 5.81,1.83 8.74,3.13 13.21,5.86 21.28,13.07 31.73,21.53 1.16,0.94 1.91,1.73 3.02,2.72 0.6,0.53 1.08,0.81 1.64,1.37 3.05,3.04 7.43,6.39 10.52,9.93l-132.9 -8.91c0.91,1.73 6.25,5.96 7.82,7.54 5.85,5.88 19.79,16.79 26.03,20.96 14.47,9.66 30.9,15.42 48.56,10.27 15.79,-4.61 31.23,-14.58 44.3,-24.45 0.63,-0.47 1.07,-0.8 1.72,-1.29l1.82 -1.43c1.04,0.7 2.26,1.43 3.42,2.08l14.5 8.01c1.36,0.68 2.54,1.27 3.83,1.91 1.29,0.65 2.47,1.24 3.83,1.92 1.14,0.57 2.78,1.54 3.92,1.86 2.5,-1.4 6.25,-2.95 9.1,-4.18 1.76,-0.75 8.19,-3.31 9.19,-4.1 -5.75,-2.8 -12.54,-5.63 -18.62,-8.66l-13.34 -7.16c-1.01,-0.57 -3.8,-1.98 -4.33,-2.65 -0.85,0.42 -0.91,0.6 -1.62,1.36l-4.54 3.81 14.53 -111.45c-0.76,0.39 -1.93,1.42 -2.56,2.07 -0.87,0.89 -1.52,1.26 -2.38,2.12 -0.93,0.93 -1.34,1.29 -2.36,2.14l-11.71 11.53c-1.04,1.33 -6.13,6.71 -8.64,9.86 -5.7,7.15 -10.53,15.09 -12.45,24.3 -2.15,10.27 1.06,21.17 5.48,29.98 1.86,3.72 4.48,8.36 6.75,11.75 -0.97,-0.26 -5.42,-3.69 -6.5,-4.5 -2.16,-1.61 -4.19,-3.19 -6.33,-4.92l-8.98 -7.52c-0.63,-0.62 -0.88,-0.7 -1.5,-1.25 -2.22,-1.95 -5.16,-5.12 -7.23,-6.77 -2.56,-2.04 -7.95,-8.45 -10.77,-11.48l-5.19 -6.11 -7.14 2.49c4.13,-8.85 8.01,-17.99 12.19,-26.89 4.21,-8.96 8.32,-17.97 12.27,-26.97 4,-9.09 8.23,-17.89 12.28,-26.97l10.7 -23.57c0.89,-1.89 1.01,-3.04 1.7,-2.72l-0.26 -0.56c-0.99,0.48 -2.22,0.83 -3.27,1.21 -1.17,0.42 -2.28,0.85 -3.43,1.32 -2.14,0.86 -4.44,1.65 -6.63,2.63 -1.11,0.5 -2.14,0.88 -3.17,1.33 -6.3,2.76 -12.98,5.81 -18.79,9.45 -2.38,1.5 -9.99,6.93 -11.85,9.16 -3.82,4.57 -5.62,5.77 -8.6,12.4 -2.51,5.59 -3.75,13.21 -3.76,19.49 0,1.9 0.28,2.74 0.26,4.5 -0.05,5.35 1.87,15.02 2.98,20.53 0.25,1.23 0.74,2.68 0.77,3.97l-12 -22.5c-1.2,-2.67 -2.21,-5.33 -3.32,-8.17 -3.6,-9.2 -7.09,-21.93 -8.68,-31.57 -0.24,-1.44 -0.75,-3.57 -0.75,-5.05l-7.01 0.63c0.48,-0.98 1.76,-2.23 2.6,-3l8.07 -8.17c1.78,-1.88 3.47,-3.96 5.31,-5.7l5.3 -5.45c0.49,-0.53 0.81,-0.92 1.32,-1.43l4.1 -4.14c5.05,-5.44 10.65,-10.86 15.92,-16.59 0.9,-0.99 1.86,-1.74 2.77,-2.72 0.95,-1.02 1.71,-1.84 2.65,-2.86 1.74,-1.88 3.57,-3.56 5.3,-5.44l30.77 -31.99c0.8,-0.72 0.76,-0.42 1.27,-1.35l-7.05 0.57c-18.73,2.32 -42.93,5.11 -57.38,17.87 -2.05,1.82 -3.73,3.75 -5.5,5.76 -0.59,0.67 -1.07,1.37 -1.59,2.15 -3.82,5.75 -4.49,7.31 -6.95,13.8l-0.65 1.35c0,-6.44 3.41,-22.23 4.69,-28.31 1.53,-7.26 3.54,-12.76 5.36,-19.38 0.55,-1.99 1.58,-4.2 2.03,-6.31 -1.25,-0.83 -3.51,-1.34 -5.13,-1.75 0.99,-0.82 23.95,-9.96 27.23,-11.32l80.3 -32.96c0.02,-0.01 0.88,-0.31 0.92,-0.32 0.62,-0.07 0.43,-0.05 0.75,0.11 0.13,-0.93 -3.25,-1.69 -4.93,-2.23l-11.58 -3.42c-14.75,-3.69 -35.71,-8.69 -51.06,-1.27 -4.99,2.41 -6.89,3.34 -11.5,7.24 -4.1,3.47 -4.54,4.49 -7.52,7.49 -0.68,0.68 -1.03,1.42 -1.81,1.94 0.26,-1.13 4.54,-9.33 5.51,-10.99 0.67,-1.15 1.43,-2.41 2.07,-3.68 0.61,-1.2 1.29,-2.41 1.97,-3.54l6.2 -10.48 -10.71 3.33c0.28,-0.92 7.14,-11.47 8.23,-13.13 2.91,-4.45 5.63,-8.68 8.4,-13.09l12.56 -19.69c1.46,-2.18 2.7,-4.34 4.2,-6.55 1.49,-2.2 2.71,-4.31 4.19,-6.56 5.59,-8.48 11.17,-17.81 16.75,-26.26l10.45 -16.29c0.42,-0.67 0.69,-1.15 1.05,-1.7l1.13 -1.48c-1.29,-0.45 -22.77,7.46 -25.36,8.5 -3.2,1.28 -11.45,4.89 -14.19,6.56 -6.17,3.75 -5.66,3.02 -12.31,8.19 -3.92,3.05 -7.05,6.75 -9.84,10.9 -5.18,7.73 -8.45,20.19 -8.56,29.44 -0.04,3.12 -0.38,7.5 -0.06,9.83 0.23,1.7 0.28,10.6 0.64,13.37 0.96,7.35 1.15,5.53 -1.87,10.52 -2.71,4.5 -7.47,12.82 -9.87,17.63l-4.75 9.25c-0.51,1.03 -1.86,4.16 -2.4,4.66z"/>
   <path class="fil2" d="M57.75 416.33l132.9 8.91c-3.09,-3.54 -7.47,-6.89 -10.52,-9.93 -0.56,-0.56 -1.04,-0.84 -1.64,-1.37 -1.11,-0.99 -1.86,-1.78 -3.02,-2.72 -10.45,-8.46 -18.52,-15.67 -31.73,-21.53 -2.93,-1.3 -5.75,-2.06 -8.74,-3.13 -18.83,-5.65 -37.42,2.85 -53.14,12.48l-23.68 16.62c-0.82,0.67 -0.69,0.46 -0.43,0.67z"/>
   <path class="fil2" d="M377 386.57c-3.13,1.18 -4.42,1.29 -8.56,3.05 -12.13,5.19 -26.88,16.71 -36.32,25.45 -0.64,0.6 -0.92,0.91 -1.55,1.43l-9.23 8.64 132.91 -8.81c0.28,-0.12 0.47,0.14 -0.29,-0.56 -3.04,-2.8 -19.96,-14.26 -23.51,-16.54l-6.62 -3.88c-7.83,-3.97 -12.52,-6.73 -22.13,-9.12 -7.91,-1.97 -17.08,-1.98 -24.7,0.34z"/>
   <path class="fil2" d="M433.5 232.18c-0.06,2.49 -1.27,7.21 -1.67,10.04 -0.95,6.71 -2.41,27.41 -1.76,33.4 0.78,-0.88 1.69,-1.67 2.51,-2.6l17.9 -19.11c1.63,-1.88 3.38,-3.6 5.02,-5.48l5.15 -5.34c0.9,-0.95 1.55,-1.86 2.45,-2.81l3.76 -3.99c0.61,-0.6 0.85,-0.73 1.39,-1.35 0.89,-1.02 1.62,-2.02 2.61,-2.9 1.1,-0.97 1.63,-1.68 2.53,-2.71l15.22 -16.29c3.3,-3.18 10.69,-11.35 14.13,-15.12 0.48,-0.52 0.92,-0.81 1.41,-1.33l7.63 -8.41c-5.62,0 -22.02,2.31 -27.35,3.18 -4.26,0.7 -8.62,1.6 -12.52,2.74 -13.68,3.97 -24.18,9.05 -31.81,21.44 -1.74,2.83 -3.8,7.45 -4.82,10.67l-1.62 5.64c-0.02,0.04 -0.06,0.13 -0.08,0.17 -0.02,0.03 -0.05,0.11 -0.08,0.16z"/>
   <path class="fil2" d="M78.5 232.18c-0.19,-0.29 -0.03,0.05 -0.23,-0.51l-0.62 -2.38c-0.29,-1.01 -0.59,-1.98 -0.87,-2.89 -0.58,-1.91 -1.41,-3.74 -2.17,-5.57 -2,-4.81 -5.5,-9.97 -9.17,-13.59 -0.7,-0.69 -1.25,-1.04 -2,-1.74 -12.65,-11.78 -38.68,-14.93 -55.98,-16.77 -2.32,-0.25 -4.9,-0.55 -7.24,-0.55 0.4,0.83 0.41,0.72 1.16,1.37 0.53,0.47 0.84,0.86 1.33,1.42l7.6 8.15c2.92,3.33 7.72,7.99 10.3,10.96l61.32 65.54c0.41,-3.83 -0.33,-18.17 -0.65,-22.68 -0.25,-3.58 -0.61,-7.19 -1.11,-10.69 -0.4,-2.86 -1.62,-7.57 -1.67,-10.07z"/>
   <path class="fil2" d="M417 275.38l7.02 0.67c-0.48,-0.98 -6.73,-7.23 -7.9,-8.49l-2.78 -2.72c-1.77,-1.87 -3.36,-3.78 -5.18,-5.57l-16.15 -16.6c-3.5,-3.75 -7.11,-7.38 -10.61,-11.14 -0.88,-0.94 -1.78,-1.64 -2.65,-2.59l-10.61 -11.15c-0.91,-0.98 -1.86,-1.73 -2.77,-2.72 -1.58,-1.72 -3.64,-4.2 -5.37,-5.64 -1.7,-1.41 -3.69,-3.82 -5.25,-5.5l-16.11 -16.75c-0.5,1.37 1.06,16.8 1.31,19.05 1.31,11.59 3.22,23.59 7.73,34.03 1.65,3.83 3.35,6.76 5.71,10.03 0.77,1.06 1.42,2.05 2.29,2.96l2.37 2.63c2.54,2.37 6.07,5 8.99,6.76 8.69,5.24 21.03,8.56 31.46,10.29 2.01,0.34 16.55,2.61 18.5,2.45z"/>
   <path class="fil2" d="M95 275.39c2.28,0.15 15.98,-2.04 18.29,-2.42 7.38,-1.23 10.21,-2.1 17.01,-3.98l7.52 -2.73c4.38,-1.91 10.96,-5.5 14.49,-9.01 1.12,-1.12 1.41,-0.89 2.69,-2.57 1.1,-1.44 1.56,-1.49 3.5,-4.24 9.21,-13.12 11.67,-28.13 13.52,-43.98 0.28,-2.35 1.83,-17.79 1.35,-19.28 -0.51,0.93 -0.47,0.63 -1.27,1.35l-30.77 31.99c-1.73,1.88 -3.56,3.56 -5.3,5.44 -0.94,1.02 -1.7,1.84 -2.65,2.86 -0.91,0.98 -1.87,1.73 -2.77,2.72 -5.27,5.73 -10.87,11.15 -15.92,16.59l-4.1 4.14c-0.51,0.51 -0.83,0.9 -1.32,1.43l-5.3 5.45c-1.84,1.74 -3.53,3.82 -5.31,5.7l-8.07 8.17c-0.84,0.77 -2.12,2.02 -2.6,3l7.01 -0.63z"/>
   <path class="fil2" d="M374.25 109.5l10.7 3.36c-0.28,-1.04 -3.18,-5.23 -3.94,-6.44 -8.04,-12.99 -17.12,-26.32 -25.14,-39.36l-12.59 -19.66c-5.49,-8.44 -11.24,-17.99 -16.75,-26.25l-8.13 -12.64c-0.25,-0.29 -0.16,-0.21 -0.4,-0.42 -0.72,3.67 -1.2,9.55 -1.68,13.41 -0.95,7.59 -1.07,16.45 -1.07,24.69 0,6.63 0.96,12.54 2.3,17.95 0.68,2.76 1.48,5.12 2.55,7.69 1.04,2.48 2.26,4.47 3.57,6.69 1.68,2.85 5.57,7.32 8.02,9.48 3.52,3.1 9.61,7.44 13.72,9.52l6.67 3.33c6.98,3.52 13.41,5.34 20.06,7.94 0.81,0.32 1.15,0.53 2.11,0.71z"/>
   <path class="fil2" d="M336.5 257.26l-3.5 12.17c-4.73,17.87 -9.99,41 -2.82,57.58 1.7,3.95 5.27,9.28 8.38,12.36 8.48,8.39 21.34,15.05 32.48,19.53 2.49,1 4.96,2.16 7.46,2.97l7.1 2.6c-4.06,-8.87 -8.02,-17.99 -12.07,-26.82l-35.25 -77.51c-0.27,-0.58 -0.54,-1.12 -0.78,-1.7 -0.37,-0.87 -0.33,-1.33 -1,-1.18z"/>
   <path class="fil2" d="M133.5 361.88c2.37,-0.85 4.91,-1.84 7.32,-2.88 7.29,-3.14 10.66,-4.74 17.52,-8.48 1.22,-0.67 2.11,-1.21 3.3,-1.94 4.11,-2.51 8.36,-5.8 11.67,-9.08 0.55,-0.54 0.76,-0.75 1.19,-1.32 1.1,-1.43 1.88,-1.98 3.45,-4.29 8.58,-12.66 8.49,-27.17 5.84,-43.24 -1.21,-7.33 -2.99,-14.2 -4.74,-21.02l-3.55 -12.38c-0.69,-0.32 -0.81,0.83 -1.7,2.72l-10.7 23.57c-4.05,9.08 -8.28,17.88 -12.28,26.97 -3.95,9 -8.06,18.01 -12.27,26.97 -4.18,8.9 -8.06,18.04 -12.19,26.89l7.14 -2.49z"/>
   <path class="fil2" d="M137.75 109.5c1.27,-0.25 2.62,-0.9 3.78,-1.28 9.48,-3.14 16.36,-6.29 25.06,-10.7l12.1 -8.15c4.33,-4.03 3.78,-3.18 7.49,-7.76l2.15 -3.09c1.29,-2.19 2.46,-4.11 3.46,-6.55 5.34,-13.04 4.91,-21.88 4.97,-35.79 0.01,-4.27 -1.91,-23.72 -2.76,-28.1l-1.13 1.48c-0.36,0.55 -0.63,1.03 -1.05,1.7l-10.45 16.29c-5.58,8.45 -11.16,17.78 -16.75,26.26 -1.48,2.25 -2.7,4.36 -4.19,6.56 -1.5,2.21 -2.74,4.37 -4.2,6.55l-12.56 19.69c-2.77,4.41 -5.49,8.64 -8.4,13.09 -1.09,1.66 -7.95,12.21 -8.23,13.13l10.71 -3.33z"/>
   <path class="fil2" d="M423.61 312.68l-3.96 4.16c-9.4,9.37 -16.47,22.26 -22.92,34.07 -1.09,1.98 -6.73,12.9 -7.13,14.41 1.96,-1.2 4.92,-2.69 7.02,-3.76 2.39,-1.22 4.85,-2.57 7.13,-3.88 4.72,-2.69 9.67,-5.12 14.45,-7.8 4.77,-2.68 9.66,-5.36 14.42,-7.83 4.9,-2.53 9.47,-5.35 14.42,-7.83 4.83,-2.41 9.66,-5.22 14.41,-7.82 4.75,-2.61 9.72,-5.09 14.45,-7.81l26.91 -14.59c1.54,-0.85 1.35,-0.48 1.81,-1.32 -1.58,-0.11 -3.85,-0.7 -5.4,-0.96 -1.88,-0.32 -3.43,-0.57 -5.36,-0.89 -8.57,-1.44 -13.88,-1.93 -22.61,-2.39l-6 -0.26c-2.37,0 -3.78,0.23 -6.01,0.25 -3.9,0.02 -11.97,1.62 -15.84,2.91 -4.6,1.52 -8.78,3.41 -12.7,6.04 -3.36,2.25 -4.48,3.42 -7.09,5.3z"/>
   <path class="fil2" d="M7.38 302.68c0.33,0.69 -0.19,0.25 1.65,1.23l12.48 6.77c4.67,2.67 9.67,5.29 14.44,7.81 4.89,2.59 9.6,5.38 14.43,7.82 4.94,2.49 9.45,5.29 14.42,7.82 4.82,2.46 9.7,5.21 14.41,7.84 9.19,5.11 19.89,10.5 28.9,15.61l14.29 7.74c-0.93,-3.44 -13.09,-25.25 -14.9,-28.14 -5.35,-8.57 -9.47,-14.73 -16.38,-21.62 -1,-1 -1.71,-1.56 -2.73,-2.88l-0.14 -0.25 -7.1 -5.15c-4.02,-2.69 -8.08,-4.49 -12.74,-6.01 -6.41,-2.09 -14.93,-3.09 -21.66,-3.09 -4.12,0.01 -13.62,0.56 -17.65,1.11l-16.32 2.43c-1.55,0.26 -3.82,0.85 -5.4,0.96z"/>
   <path class="fil2" d="M405.67 174.68c1.25,-0.86 3.5,-1.29 5.13,-1.75 -0.89,-0.81 -51.93,-21.46 -54.52,-22.53l-53.73 -22.04c-0.08,-0.02 -0.32,-0.23 -0.94,0.08l3.64 6.75c0.33,0.64 0.55,0.89 0.92,1.58l8.78 14.71c3.16,4.74 5.15,7.54 8.76,11.99 0.44,0.54 0.72,0.73 1.18,1.32 0.56,0.71 0.68,0.85 1.3,1.46 1.81,1.8 3.36,3.55 5.35,5.15l2.89 2.36c11.07,8.31 23.2,10.32 37.36,8.72 10.48,-1.18 19.91,-3.68 29.87,-6.64 1.11,-0.32 3.1,-1.07 4.01,-1.16z"/>
   <path class="fil2" d="M106.33 174.68l7.87 2.31c18.6,5.22 38.83,9.86 56.8,0.95 6.28,-3.12 9.94,-6.85 14.56,-11.44 0.94,-0.93 1.62,-1.77 2.5,-2.76 3.65,-4.09 7.81,-10.55 10.84,-15.16 3.53,-5.37 5.65,-9.78 8.61,-14.88l2.89 -5.26c-0.32,-0.16 -0.13,-0.18 -0.75,-0.11 -0.04,0.01 -0.9,0.31 -0.92,0.32l-80.3 32.96c-3.28,1.36 -26.24,10.5 -27.23,11.32 1.62,0.41 3.88,0.92 5.13,1.75z"/>
   <path class="fil2" d="M312.5 416.96c1.18,0.57 4.35,4.23 6.12,5.16l-14.49 -111.44c-0.11,-0.32 0.19,-0.71 -0.99,0.88 -0.42,0.57 -0.66,0.9 -1.07,1.45 -0.81,1.07 -1.44,1.92 -2.25,3 -0.81,1.07 -1.39,1.94 -2.21,3.03l-8.44 12.56c-8.09,13.59 -14.44,27.65 -8.95,44.12 3.11,9.34 9.97,18.14 16.47,25.52 0.88,1.01 1.75,1.64 2.56,2.69 2.23,2.92 7.74,7.61 10.56,10.44l2.69 2.59z"/>
   <path class="fil2" d="M199.5 416.96c0.99,-0.73 1.68,-1.58 2.56,-2.46 0.99,-1 1.78,-1.52 2.75,-2.5 1.8,-1.82 3.44,-3.44 5.25,-5.25l9.94 -11.07c2.79,-3.57 6.36,-8.21 8.42,-12.33 2.61,-5.22 4.23,-8.85 5.23,-15.77 0.93,-6.4 -0.76,-13.86 -2.24,-18.3 -0.49,-1.47 -0.91,-2.47 -1.45,-3.81l-3.35 -7.14c-1.95,-3.25 -3.19,-6.03 -5.71,-9.8l-12.49 -17.55c-0.85,-0.94 -0.44,-0.44 -0.54,-0.3l-14.53 111.45 4.54 -3.81c0.71,-0.76 0.77,-0.94 1.62,-1.36z"/>
   <path class="fil2" d="M105.43 136.93c2.21,-11.18 2.45,-24.33 -2.59,-34.33 -2.99,-5.92 -5.56,-9.21 -10.28,-13.98 -4.66,-4.71 -12.8,-10.33 -18.45,-13.79l-19.29 -10.74c-0.04,-0.02 -0.65,-0.33 -0.66,-0.34 -0.66,-0.25 -0.32,-0.25 -0.54,-0.07l41.77 107.67 1.68 -4.1c3.07,-9.17 6.82,-21.05 8.36,-30.32z"/>
   <path class="fil2" d="M406.25 136.43l0.32 0.5c1.3,8.92 5.84,22.95 9,32.18 0.14,0.39 0.25,0.8 0.38,1.12l0.55 1.07 41.89 -107.62c-0.31,-0.24 -1.9,0.76 -2.39,1.01 -0.87,0.43 -1.75,0.82 -2.65,1.35l-7.77 4.23c-5.98,3.19 -11.55,7.07 -17.13,10.87 -0.88,0.6 -1.45,1.04 -2.28,1.72 -0.78,0.63 -1.49,1.12 -2.23,1.77 -7.27,6.36 -13.82,12.99 -16.8,23.2 -2.03,6.94 -2.7,13.94 -1.71,21.43l0.82 7.17z"/>
   <path class="fil1" d="M273 469.17l0.75 0.52c0.27,0.15 0.5,0.27 0.8,0.45l5.06 2.93c2.34,1.42 4.42,2.63 6.69,4.06 1.11,0.7 2.15,1.35 3.2,2.05 4.02,2.7 8.76,5.62 12.71,8.54l21.04 16.21c1.76,-2.63 12.41,-16.28 12.75,-17.75 -0.74,-0.19 -3.71,-2.91 -4.64,-3.61 -12.97,-9.75 -22.2,-14.84 -37.13,-22.39 -1.17,1.11 -18.47,8.19 -21.23,8.99z"/>
   <path class="fil3" d="M256.1 460.43l16.9 8.74c2.76,-0.8 20.06,-7.88 21.23,-8.99l-8.81 -4.16c-0.89,-0.45 -1.31,-0.62 -2.24,-1.01l-6.93 -3.08c-1.78,0.13 -19.17,7.53 -20.15,8.5z"/>
   <path class="fil3" d="M217.5 443.71c1.66,1.32 16.59,7.18 18.25,8.12 0.98,-0.16 19.81,-8.05 20.18,-8.4l-5 -1.92c-1.77,-0.69 -3.24,-1.3 -5,-2.01 -1.79,-0.72 -3.23,-1.29 -5,-1.99 -1.57,-0.63 -3.64,-1.7 -5.14,-2.08 -1,0.79 -7.43,3.35 -9.19,4.1 -2.85,1.23 -6.6,2.78 -9.1,4.18z"/>
  </g>
 </g>
</svg>
