<?xml version="1.0" encoding="UTF-8"?>
<!DOCTYPE svg PUBLIC "-//W3C//DTD SVG 1.1//EN" "http://www.w3.org/Graphics/SVG/1.1/DTD/svg11.dtd">
<!-- Creator: CorelDRAW -->
<svg xmlns="http://www.w3.org/2000/svg" xml:space="preserve" width="512px" height="512px" version="1.1" style="shape-rendering:geometricPrecision; text-rendering:geometricPrecision; image-rendering:optimizeQuality; fill-rule:evenodd; clip-rule:evenodd"
viewBox="0 0 512 512"
 xmlns:xlink="http://www.w3.org/1999/xlink"
 xmlns:xodm="http://www.corel.com/coreldraw/odm/2003">
 <defs>
  <style type="text/css">
   <![CDATA[
    .fil0 {fill:none}
    .fil3 {fill:#FF8300}
    .fil2 {fill:#FF9A00}
    .fil1 {fill:#FFCD37}
   ]]>
  </style>
 </defs>
 <g id="Camada_x0020_1">
  <metadata id="CorelCorpID_0Corel-Layer"/>
  <polygon id="Area" class="fil0" points="75,75 437,75 437,437 75,437 "/>
  <g id="Olympus">
   <path class="fil1" d="M339.61 152.42l2.9 4.83c1.04,1.72 1.89,3.31 2.87,5.08l2.74 5.03c0.49,0.8 2.44,4.57 2.62,5.34 -0.52,-0.35 -1.95,-2.22 -2.51,-2.79 -0.92,-0.92 -1.73,-1.73 -2.65,-2.65 -1.32,-1.3 -4.51,-3.64 -6.05,-4.56 -0.6,-0.36 -1.14,-0.63 -1.7,-0.95 -3.71,-2.18 -10.57,-3.56 -15.01,-3.54 -6.97,0.02 -13,1.12 -18.67,2.54 -5.03,1.26 -9.52,2.55 -14.41,4.15 -0.69,0.23 -1.6,0.28 -1.49,0.91 0.43,-0.22 0.61,-0.07 0.66,-0.06l37.99 15.59c1.83,0.76 37.92,15.35 38.55,15.93 -1.15,0.32 -2.74,0.62 -3.63,1.24l4.06 13.49c1.35,4.64 4.48,19.79 4.48,24.69 -0.41,-0.47 -2.01,-5.68 -4.24,-9.02 -0.35,-0.53 -0.71,-1.06 -1.06,-1.59l-2.34 -2.96c-1.87,-1.9 -3.4,-3.43 -5.65,-4.96 -2.26,-1.54 -4.31,-2.64 -6.99,-3.79 -5.17,-2.22 -10.32,-3.48 -16.56,-4.65 -3.09,-0.58 -5.97,-0.94 -9.22,-1.39 -1.66,-0.23 -3.07,-0.3 -4.77,-0.53 -1.62,-0.22 -3.41,-0.45 -5.1,-0.45l11.39 11.83c1.1,1.19 2.51,2.9 3.71,3.9 1.22,1.01 2.68,2.77 3.8,3.98 0.64,0.7 1.32,1.23 1.96,1.93l7.5 7.88c0.62,0.67 1.25,1.16 1.87,1.83 2.47,2.66 5.03,5.22 7.5,7.88l11.42 11.73c1.29,1.27 2.41,2.62 3.67,3.94l1.96 1.92c0.83,0.89 5.25,5.31 5.58,6l-4.96 -0.47c0,1.02 -0.35,2.49 -0.5,3.42 -0.2,1.23 -0.42,2.18 -0.66,3.41 -1.29,6.46 -3.13,12.87 -5.45,18.94 -0.78,2.03 -1.51,3.83 -2.35,5.78 -1.72,3.99 -3.4,7.07 -5.41,10.85 -0.26,0.48 -0.44,0.75 -0.73,1.22 -0.31,0.51 -0.48,0.87 -0.77,1.35 -0.38,0.64 -1.15,2.09 -1.63,2.44 0.23,-2.7 2.71,-11.1 2.66,-16.96 -0.02,-1.36 0.18,-1.92 0.18,-3.19 0,-1.24 -0.17,-1.85 -0.18,-3.19 -0.02,-3.18 -1.2,-7.79 -2.43,-10.65 -1.48,-3.42 -3.71,-6.24 -6.04,-8.81 -1.1,-1.21 -5.19,-4.37 -6.35,-5.13l-4.02 -2.52c-5.67,-3.35 -14.33,-6.93 -20.61,-9.27 -0.77,-0.28 -1.77,-0.58 -2.45,-0.91l-0.17 0.41c0.47,-0.11 0.44,0.22 0.7,0.83 0.18,0.41 0.37,0.8 0.56,1.21l24.91 54.8c2.87,6.24 5.67,12.69 8.54,18.96l-5.02 -1.84 -7.38 8.4c-1.34,1.33 -2.35,2.75 -3.81,3.97l-2.02 1.86c-0.37,0.37 -0.61,0.62 -0.97,0.98l-5.24 4.66c-3.86,3.1 -9.31,7.63 -13.46,10.4 0.44,-1.62 11.38,-15.34 8.71,-29.39 -1.51,-7.96 -5.6,-13.24 -10.22,-19.11 -0.33,-0.42 -0.41,-0.49 -0.73,-0.87l-2.3 -2.64c-0.68,-0.67 -1.02,-1 -1.62,-1.75 -1.75,-2.19 -7.64,-7.3 -9.96,-9.65 -0.61,-0.62 -1.08,-0.88 -1.68,-1.5 -0.49,-0.49 -1.32,-1.25 -1.9,-1.55l10.24 78.79c-1.25,-0.65 -3.49,-3.24 -4.32,-3.65 -0.35,0.45 -1.57,1.01 -2.16,1.37 -3.23,1.94 -8.62,4.7 -11.98,6.39 -7.24,3.66 -15.56,6.93 -23.11,9.95 -0.89,0.36 -1.82,0.82 -2.75,1.01 -0.26,0.25 -13.57,5.83 -14.27,5.94l-16.91 8.08c-5.89,2.95 -14.43,7.92 -19.42,11.69l-3.51 2.67c-0.5,0.39 -0.72,0.62 -1.17,0.96 -0.47,0.38 -0.65,0.73 -1.23,0.89 0.17,0.74 1.63,2.53 2.12,3.18l6.89 9.37 10.89 -8.56c0.49,-0.36 0.87,-0.66 1.31,-0.99 8.46,-6.36 22.65,-14.95 31.99,-19.62 1.19,-0.59 2.12,-1.08 3.43,-1.59 0.69,-0.68 12.99,-5.92 14.25,-6.01l13.08 -5.83c4.12,-1.84 8.8,-4.6 12.6,-6.48l8.08 -4.66 4.95 3.71c1.75,1.23 3.39,2.39 5.23,3.61 11.77,7.85 24.47,15.14 39.36,12.71 10.72,-1.75 20.98,-9.34 28.63,-15.57l7.13 -6.12c0.46,-0.36 0.69,-0.63 1.09,-1.03l3.5 -3.21c0.7,-0.54 1.82,-1.58 2.2,-2.3l-93.97 6.23 6.52 -6.11c0.45,-0.37 0.64,-0.59 1.1,-1.01 6.67,-6.18 17.1,-14.33 25.68,-17.99 2.92,-1.25 3.84,-1.33 6.05,-2.17 0.57,-1.13 2.2,-2.23 3.08,-3.37l8.94 -10.68c2.11,0.49 4.52,0.77 6.82,1.14 2.47,0.39 4.68,0.55 7.22,0.9 2.99,0.42 8.23,0.59 11.41,0.61 1.26,0.01 2.57,-0.08 3.88,-0.19 7.36,-0.58 11.53,-1.92 17.27,-4.82 0.58,-0.29 0.84,-0.4 1.37,-0.75 6.5,-4.31 9.18,-6.82 14.37,-13.73 0.62,-0.82 1.13,-1.51 1.72,-2.36 1.72,-2.48 4.59,-7.06 6.17,-9.91 1.28,-2.32 7.93,-14.78 8.25,-16.14l-0.27 0c-0.33,0.59 -0.19,0.33 -1.27,0.93l-19.03 10.31c-3.35,1.92 -6.86,3.68 -10.22,5.52 -3.36,1.85 -6.77,3.83 -10.19,5.54 -3.5,1.75 -6.73,3.74 -10.19,5.53 -3.37,1.74 -6.83,3.64 -10.2,5.53 -3.38,1.9 -6.88,3.62 -10.22,5.52 -1.61,0.92 -3.34,1.88 -5.03,2.74 -1.49,0.76 -3.58,1.82 -4.97,2.66 0.29,-1.06 4.27,-8.78 5.04,-10.19 4.56,-8.34 9.56,-17.46 16.21,-24.08l2.8 -2.94 1.86 -6.01c0.59,-2.11 1.2,-4.27 1.73,-6.4 0.55,-2.16 0.98,-4.41 1.41,-6.55 0.28,-1.39 1.1,-5.74 1.1,-7.03l6.69 -0.56c6.76,-0.75 12.56,-1.6 19.05,-3.22 4.11,-1.02 7.49,-2.31 10.85,-3.99 3.58,-1.79 5.9,-3.54 8.62,-6.23 5.21,-5.15 7.85,-13.39 9.25,-20.45 0.5,-2.53 1.42,-10.29 1.58,-13.27l0.35 -10.78 0 -0.03 0 -0.03 0 -0.03c0,-0.47 0,-0.95 0,-1.43l0 -1.45c-0.02,-0.21 -0.07,-0.41 -0.16,-0.57l-5.39 5.95c-0.35,0.36 -0.66,0.57 -1,0.94 -2.43,2.66 -7.66,8.43 -9.99,10.69l-10.76 11.51c-0.63,0.73 -1.01,1.23 -1.79,1.92 -0.7,0.62 -1.21,1.33 -1.84,2.05 -0.38,0.44 -0.55,0.53 -0.99,0.95l-2.65 2.83c-0.64,0.67 -1.1,1.31 -1.74,1.98l-3.64 3.78c-1.16,1.33 -2.39,2.54 -3.55,3.88l-12.65 13.5c-0.58,0.66 -1.22,1.22 -1.78,1.84 -0.46,-4.23 0.57,-18.87 1.25,-23.61 0.28,-2 1.14,-5.34 1.18,-7.1l-1.43 -11.83 -2.11 -11.15c-1.31,-5.35 -2.52,-10.49 -4.26,-15.71l-1.57 -5.14c3.21,-1.7 6.34,-3.32 9.47,-5.21 0.44,-0.27 0.72,-0.4 1.13,-0.63 4.79,-2.76 7.81,-5.24 12.02,-8.48l5.53 -5.61c12.57,-14.08 5.34,-36.52 -0.07,-52.7 -0.14,-0.44 -0.34,-0.89 -0.48,-1.28 -0.19,-0.54 -0.24,-0.99 -0.64,-1.39l-29.61 76.09 -0.39 -0.76c-0.09,-0.23 -0.17,-0.52 -0.27,-0.79 -2.23,-6.53 -5.44,-16.45 -6.36,-22.75 -0.29,-0.14 -0.23,0.25 -0.23,-0.36 -0.02,-0.03 -0.05,-0.13 -0.06,-0.11 -0.09,0.25 -0.11,-0.19 -0.13,-0.23l-5.57 -10.87c-0.35,-0.59 -0.51,-1.02 -0.84,-1.63 -0.57,-1.06 -1.13,-2.04 -1.72,-3.06 -0.75,-1.31 -5.27,-8.72 -5.26,-9.35l0.45 -4.31c0.2,-1.53 0.08,-3.15 0.3,-4.65 0.22,-1.48 -0.04,-3.14 0.18,-4.6 0.21,-1.37 -0.17,-7.54 -0.26,-9.26 -0.16,-3.36 -1.44,-9.15 -2.59,-12.08 -3.65,-9.28 -9.15,-14.13 -17.34,-19.07l-6.45 -3.27c-4.12,-1.76 -7.7,-3.39 -12.12,-4.85 -1.31,-0.43 -10.34,-3.64 -10.98,-3.4 0.17,0.15 0.1,0.09 0.28,0.3l5.75 8.93c3.89,5.84 7.96,12.59 11.84,18.57l8.9 13.89c5.67,9.23 12.09,18.65 17.78,27.83 0.53,0.86 2.58,3.82 2.78,4.56l-7.56 -2.38z"/>
   <path class="fil1" d="M149.54 171.82c-1.08,6.55 -3.74,14.95 -5.91,21.43l-1.19 2.9 -29.53 -76.12c-0.04,0.03 -0.08,0.04 -0.09,0.11l-3.71 10.85c-1.09,3.96 -2.2,7.58 -3.05,11.79 -2.08,10.41 -2.29,22.08 3.99,30.4 0.57,0.76 0.96,1.43 1.58,2.13 1.81,2.02 3.35,3.89 5.54,5.6l4.11 3.31c5.49,4.03 8.68,5.5 13.74,8.53 1.61,0.96 3.23,1.72 4.85,2.58l-1.52 5.01c-3.84,11.54 -6.24,23.68 -7.52,35.79 -0.08,0.72 -0.31,2.28 -0.33,3.03 0.04,1.77 0.9,5.09 1.18,7.12 0.35,2.48 0.61,5.03 0.79,7.55 0.23,3.19 0.75,13.34 0.45,16.04l-43.35 -46.34c-1.83,-2.1 -5.22,-5.39 -7.28,-7.74l-5.37 -5.77c-0.35,-0.4 -0.57,-0.67 -0.94,-1 -0.53,-0.46 -0.54,-0.38 -0.82,-0.97 -0.1,0.17 -0.14,0.42 -0.16,0.67l0 6.57c0.05,1.15 0.19,1.12 0.17,3.37 0,1.31 0.14,2.14 0.18,3.54 0.06,2.55 1.13,11.15 1.55,13.3 1.11,5.72 2.83,11.66 5.95,16.32 5.36,8.01 13.1,12.05 22.66,14.46 3.64,0.92 5.8,1.32 9.24,1.89 1.01,0.18 2.1,0.39 3.2,0.51 2.13,0.23 4.51,0.57 6.59,0.83l6.85 0.58c0,2.09 1.99,11.55 2.47,13.44l2.58 9.26c0.28,0.84 0.89,2.3 0.96,3.11 0.24,0 0.19,-0.05 0.1,0.18 0.71,0.93 1.21,1.33 1.92,2.03 4.89,4.87 7.8,9.23 11.59,15.29 1.27,2.04 9.88,17.46 10.53,19.89l-10.11 -5.47c-6.36,-3.61 -13.93,-7.42 -20.42,-11.04 -3.34,-1.86 -6.79,-3.8 -10.19,-5.54 -3.52,-1.79 -6.71,-3.77 -10.2,-5.53 -3.41,-1.72 -6.74,-3.69 -10.21,-5.53 -3.37,-1.78 -6.9,-3.63 -10.2,-5.52l-8.82 -4.79c-1.31,-0.69 -0.94,-0.38 -1.17,-0.86l2.32 5.36c0.89,1.77 1.76,3.76 2.75,5.39 0.5,0.82 0.9,1.71 1.37,2.51l2.91 5.22c0.53,0.91 1,1.68 1.52,2.54 1.53,2.54 4.63,7.09 6.59,9.5 3.54,4.35 5.93,6.76 10.22,9.93 6.24,4.6 13.03,6.37 21.04,7.25l7.74 0.19c5.52,-0.46 9.03,-0.59 14.78,-1.48 2.32,-0.36 4.84,-0.67 6.97,-1.16 1.76,2.63 3.86,4.84 5.78,7.12l6.24 6.93c2.12,0.76 4.1,1.29 6.18,2.21 9.34,4.15 15.04,9.24 22.43,15.23 0.82,0.66 1.35,1.22 2.14,1.92 0.43,0.38 0.76,0.57 1.16,0.96 2.15,2.16 5.25,4.52 7.44,7.03l-93.97 -6.3c0.64,1.22 4.42,4.22 5.53,5.33 4.13,4.16 13.99,11.87 18.4,14.82 10.23,6.83 21.85,10.9 34.34,7.26 11.16,-3.26 22.08,-10.31 31.32,-17.29 0.44,-0.33 0.76,-0.56 1.21,-0.91l1.29 -1.01c0.73,0.49 1.6,1.01 2.42,1.47l10.25 5.66c0.96,0.48 1.8,0.9 2.71,1.36 0.91,0.45 1.75,0.87 2.71,1.35 0.8,0.41 1.96,1.09 2.77,1.32 1.76,-0.99 4.42,-2.09 6.44,-2.96 1.24,-0.53 5.79,-2.34 6.49,-2.89 -4.07,-1.98 -8.87,-3.99 -13.17,-6.13l-9.43 -5.06c-0.71,-0.4 -2.68,-1.4 -3.06,-1.88 -0.6,0.3 -0.64,0.43 -1.14,0.96l-3.21 2.7 10.27 -78.8c-0.54,0.28 -1.36,1 -1.81,1.46 -0.62,0.63 -1.08,0.89 -1.68,1.5 -0.66,0.66 -0.95,0.91 -1.67,1.52l-8.28 8.15c-0.73,0.94 -4.34,4.74 -6.11,6.97 -4.03,5.06 -7.44,10.67 -8.8,17.18 -1.52,7.26 0.75,14.97 3.87,21.2 1.32,2.63 3.17,5.91 4.78,8.31 -0.69,-0.19 -3.83,-2.61 -4.6,-3.18 -1.52,-1.15 -2.96,-2.26 -4.47,-3.48l-6.36 -5.32c-0.44,-0.44 -0.62,-0.5 -1.06,-0.88 -1.57,-1.39 -3.64,-3.62 -5.1,-4.79 -1.82,-1.45 -5.63,-5.97 -7.62,-8.12l-3.67 -4.32 -5.05 1.76c2.92,-6.26 5.67,-12.72 8.62,-19.01 2.98,-6.33 5.88,-12.7 8.68,-19.07 2.82,-6.43 5.81,-12.64 8.68,-19.07l7.56 -16.66c0.63,-1.34 0.71,-2.15 1.2,-1.92l-0.18 -0.4c-0.7,0.33 -1.57,0.59 -2.31,0.86 -0.83,0.29 -1.61,0.6 -2.43,0.93 -1.51,0.6 -3.13,1.16 -4.68,1.86 -0.79,0.35 -1.52,0.62 -2.24,0.94 -4.46,1.95 -9.18,4.11 -13.29,6.68 -1.68,1.06 -7.06,4.9 -8.38,6.47 -2.7,3.24 -3.97,4.08 -6.08,8.77 -1.77,3.95 -2.65,9.34 -2.66,13.78 0,1.34 0.2,1.94 0.19,3.18 -0.04,3.78 1.31,10.63 2.1,14.52 0.18,0.87 0.53,1.9 0.55,2.81l-8.48 -15.91c-0.86,-1.89 -1.57,-3.77 -2.36,-5.78 -2.54,-6.5 -5.01,-15.5 -6.13,-22.32 -0.17,-1.02 -0.53,-2.52 -0.53,-3.57l-4.96 0.44c0.34,-0.69 1.24,-1.57 1.84,-2.11l5.71 -5.78c1.25,-1.33 2.45,-2.8 3.75,-4.03l3.75 -3.85c0.34,-0.38 0.57,-0.66 0.93,-1.02l2.9 -2.93c3.57,-3.84 7.53,-7.67 11.25,-11.73 0.64,-0.69 1.32,-1.22 1.97,-1.92 0.66,-0.72 1.2,-1.3 1.87,-2.02 1.23,-1.33 2.52,-2.52 3.75,-3.84l21.75 -22.62c0.56,-0.51 0.54,-0.3 0.9,-0.95l-4.99 0.4c-13.24,1.64 -30.35,3.61 -40.57,12.63 -1.45,1.29 -2.63,2.65 -3.88,4.07 -0.42,0.48 -0.76,0.97 -1.13,1.53 -2.7,4.06 -3.18,5.16 -4.91,9.75l-0.46 0.96c0,-4.56 2.41,-15.72 3.31,-20.02 1.08,-5.14 2.5,-9.03 3.8,-13.71 0.38,-1.4 1.11,-2.96 1.43,-4.45 -0.89,-0.59 -2.48,-0.95 -3.63,-1.24 0.7,-0.58 16.93,-7.05 19.25,-8.01l56.78 -23.3c0.01,0 0.62,-0.22 0.65,-0.22 0.43,-0.06 0.3,-0.04 0.53,0.07 0.09,-0.66 -2.3,-1.2 -3.49,-1.57l-8.18 -2.42c-10.44,-2.61 -25.25,-6.15 -36.1,-0.9 -3.54,1.7 -4.87,2.36 -8.14,5.12 -2.9,2.45 -3.21,3.17 -5.31,5.29 -0.49,0.49 -0.73,1 -1.28,1.37 0.18,-0.79 3.21,-6.59 3.89,-7.77 0.48,-0.81 1.02,-1.7 1.47,-2.6 0.43,-0.85 0.91,-1.7 1.39,-2.5l4.38 -7.41 -7.57 2.36c0.2,-0.65 5.05,-8.11 5.82,-9.29 2.06,-3.15 3.98,-6.14 5.94,-9.25l8.88 -13.93c1.03,-1.53 1.91,-3.07 2.97,-4.63 1.05,-1.56 1.91,-3.04 2.96,-4.63 3.96,-6 7.9,-12.59 11.85,-18.57l7.38 -11.52c0.3,-0.47 0.49,-0.81 0.75,-1.2l0.79 -1.04c-0.91,-0.33 -16.1,5.27 -17.92,6 -2.27,0.91 -8.1,3.46 -10.04,4.64 -4.36,2.65 -4,2.14 -8.7,5.79 -2.78,2.16 -4.99,4.77 -6.96,7.71 -3.67,5.47 -5.97,14.27 -6.05,20.82 -0.03,2.2 -0.27,5.3 -0.04,6.95 0.16,1.2 0.19,7.49 0.45,9.44 0.68,5.21 0.81,3.91 -1.32,7.44 -1.92,3.18 -5.29,9.07 -6.98,12.47l-3.36 6.54c-0.36,0.73 -1.32,2.94 -1.7,3.3z"/>
   <path class="fil2" d="M115.83 369.36l93.97 6.3c-2.19,-2.51 -5.29,-4.87 -7.44,-7.03 -0.4,-0.39 -0.73,-0.58 -1.16,-0.96 -0.79,-0.7 -1.32,-1.26 -2.14,-1.92 -7.39,-5.99 -13.09,-11.08 -22.43,-15.23 -2.08,-0.92 -4.06,-1.45 -6.18,-2.21 -13.31,-4 -26.46,2.01 -37.58,8.82l-16.74 11.75c-0.57,0.48 -0.48,0.33 -0.3,0.48z"/>
   <path class="fil2" d="M341.55 348.31c-2.21,0.84 -3.13,0.92 -6.05,2.17 -8.58,3.66 -19.01,11.81 -25.68,17.99 -0.46,0.42 -0.65,0.64 -1.1,1.01l-6.52 6.11 93.97 -6.23c0.2,-0.09 0.33,0.1 -0.21,-0.4 -2.15,-1.98 -14.11,-10.08 -16.62,-11.69l-4.68 -2.74c-5.54,-2.81 -8.85,-4.76 -15.64,-6.45 -5.6,-1.39 -12.08,-1.4 -17.47,0.23z"/>
   <path class="fil2" d="M381.5 239.16c-0.04,1.76 -0.9,5.1 -1.18,7.1 -0.68,4.74 -1.71,19.38 -1.25,23.61 0.56,-0.62 1.2,-1.18 1.78,-1.84l12.65 -13.5c1.16,-1.34 2.39,-2.55 3.55,-3.88l3.64 -3.78c0.64,-0.67 1.1,-1.31 1.74,-1.98l2.65 -2.83c0.44,-0.42 0.61,-0.51 0.99,-0.95 0.63,-0.72 1.14,-1.43 1.84,-2.05 0.78,-0.69 1.16,-1.19 1.79,-1.92l10.76 -11.51c2.33,-2.26 7.56,-8.03 9.99,-10.69 0.34,-0.37 0.65,-0.58 1,-0.94l5.39 -5.95c-3.97,0 -15.57,1.63 -19.33,2.25 -3.01,0.5 -6.1,1.13 -8.85,1.93 -9.68,2.81 -17.1,6.4 -22.49,15.16 -1.23,2 -2.7,5.27 -3.41,7.55l-1.15 3.98c-0.01,0.04 -0.04,0.1 -0.06,0.12 -0.01,0.03 -0.03,0.08 -0.05,0.12z"/>
   <path class="fil2" d="M130.5 239.16c-0.13,-0.21 -0.02,0.03 -0.16,-0.36l-0.44 -1.69c-0.2,-0.71 -0.42,-1.39 -0.61,-2.04 -0.41,-1.35 -1,-2.64 -1.54,-3.94 -1.42,-3.4 -3.89,-7.05 -6.48,-9.6 -0.5,-0.49 -0.89,-0.74 -1.42,-1.24 -8.94,-8.32 -27.35,-10.55 -39.58,-11.85 -1.64,-0.18 -3.46,-0.39 -5.11,-0.39 0.28,0.59 0.29,0.51 0.82,0.97 0.37,0.33 0.59,0.6 0.94,1l5.37 5.77c2.06,2.35 5.45,5.64 7.28,7.74l43.35 46.34c0.3,-2.7 -0.22,-12.85 -0.45,-16.04 -0.18,-2.52 -0.44,-5.07 -0.79,-7.55 -0.28,-2.03 -1.14,-5.35 -1.18,-7.12z"/>
   <path class="fil2" d="M369.83 269.7l4.96 0.47c-0.33,-0.69 -4.75,-5.11 -5.58,-6l-1.96 -1.92c-1.26,-1.32 -2.38,-2.67 -3.67,-3.94l-11.42 -11.73c-2.47,-2.66 -5.03,-5.22 -7.5,-7.88 -0.62,-0.67 -1.25,-1.16 -1.87,-1.83l-7.5 -7.88c-0.64,-0.7 -1.32,-1.23 -1.96,-1.93 -1.12,-1.21 -2.58,-2.97 -3.8,-3.98 -1.2,-1 -2.61,-2.71 -3.71,-3.9l-11.39 -11.83c-0.35,0.96 0.75,11.87 0.93,13.46 0.92,8.19 2.28,16.68 5.46,24.06 1.17,2.71 2.37,4.78 4.04,7.09 0.54,0.75 1,1.46 1.62,2.1l1.68 1.86c1.79,1.67 4.29,3.53 6.35,4.77 6.15,3.71 14.87,6.06 22.24,7.28 1.42,0.24 11.71,1.84 13.08,1.73z"/>
   <path class="fil2" d="M142.17 269.71c1.61,0.1 11.3,-1.44 12.93,-1.71 5.22,-0.87 7.22,-1.49 12.03,-2.82l5.32 -1.93c3.09,-1.34 7.74,-3.89 10.24,-6.37 0.79,-0.79 1,-0.62 1.9,-1.81 0.78,-1.02 1.11,-1.05 2.48,-3 6.51,-9.28 8.24,-19.89 9.55,-31.1 0.2,-1.66 1.3,-12.58 0.96,-13.62 -0.36,0.65 -0.34,0.44 -0.9,0.95l-21.75 22.62c-1.23,1.32 -2.52,2.51 -3.75,3.84 -0.67,0.72 -1.21,1.3 -1.87,2.02 -0.65,0.7 -1.33,1.23 -1.97,1.92 -3.72,4.06 -7.68,7.89 -11.25,11.73l-2.9 2.93c-0.36,0.36 -0.59,0.64 -0.93,1.02l-3.75 3.85c-1.3,1.23 -2.5,2.7 -3.75,4.03l-5.71 5.78c-0.6,0.54 -1.5,1.42 -1.84,2.11l4.96 -0.44z"/>
   <path class="fil2" d="M339.61 152.42l7.56 2.38c-0.2,-0.74 -2.25,-3.7 -2.78,-4.56 -5.69,-9.18 -12.11,-18.6 -17.78,-27.83l-8.9 -13.89c-3.88,-5.98 -7.95,-12.73 -11.84,-18.57l-5.75 -8.93c-0.18,-0.21 -0.11,-0.15 -0.28,-0.3 -0.51,2.6 -0.85,6.75 -1.19,9.48 -0.68,5.37 -0.76,11.63 -0.76,17.45 0,4.69 0.68,8.88 1.63,12.7 0.48,1.95 1.05,3.62 1.8,5.44 0.73,1.75 1.6,3.16 2.52,4.72 1.19,2.02 3.95,5.18 5.67,6.71 2.5,2.19 6.8,5.26 9.71,6.73l4.72 2.35c4.93,2.49 9.47,3.78 14.18,5.62 0.57,0.22 0.81,0.37 1.49,0.5z"/>
   <path class="fil2" d="M312.92 256.89l-2.48 8.61c-3.34,12.63 -7.06,28.98 -1.99,40.71 1.2,2.79 3.72,6.56 5.92,8.74 6,5.93 15.09,10.64 22.97,13.8 1.76,0.71 3.5,1.53 5.27,2.1l5.02 1.84c-2.87,-6.27 -5.67,-12.72 -8.54,-18.96l-24.91 -54.8c-0.19,-0.41 -0.38,-0.8 -0.56,-1.21 -0.26,-0.61 -0.23,-0.94 -0.7,-0.83z"/>
   <path class="fil2" d="M169.39 330.86c1.67,-0.6 3.47,-1.3 5.17,-2.03 5.16,-2.23 7.54,-3.35 12.39,-6 0.87,-0.48 1.5,-0.86 2.34,-1.37 2.9,-1.78 5.91,-4.11 8.25,-6.42 0.38,-0.38 0.53,-0.53 0.84,-0.93 0.77,-1.01 1.33,-1.41 2.44,-3.04 6.06,-8.95 6,-19.21 4.12,-30.57 -0.85,-5.18 -2.11,-10.04 -3.34,-14.86l-2.52 -8.75c-0.49,-0.23 -0.57,0.58 -1.2,1.92l-7.56 16.66c-2.87,6.43 -5.86,12.64 -8.68,19.07 -2.8,6.37 -5.7,12.74 -8.68,19.07 -2.95,6.29 -5.7,12.75 -8.62,19.01l5.05 -1.76z"/>
   <path class="fil2" d="M172.39 152.42c0.9,-0.18 1.86,-0.64 2.68,-0.91 6.7,-2.22 11.56,-4.44 17.71,-7.56l8.56 -5.76c3.06,-2.85 2.67,-2.25 5.29,-5.49l1.53 -2.19c0.91,-1.54 1.73,-2.9 2.44,-4.62 3.78,-9.22 3.47,-15.47 3.51,-25.31 0.01,-3.02 -1.34,-16.77 -1.95,-19.86l-0.79 1.04c-0.26,0.39 -0.45,0.73 -0.75,1.2l-7.38 11.52c-3.95,5.98 -7.89,12.57 -11.85,18.57 -1.05,1.59 -1.91,3.07 -2.96,4.63 -1.06,1.56 -1.94,3.1 -2.97,4.63l-8.88 13.93c-1.96,3.11 -3.88,6.1 -5.94,9.25 -0.77,1.18 -5.62,8.64 -5.82,9.29l7.57 -2.36z"/>
   <path class="fil2" d="M374.51 296.08l-2.8 2.94c-6.65,6.62 -11.65,15.74 -16.21,24.08 -0.77,1.41 -4.75,9.13 -5.04,10.19 1.39,-0.84 3.48,-1.9 4.97,-2.66 1.69,-0.86 3.42,-1.82 5.03,-2.74 3.34,-1.9 6.84,-3.62 10.22,-5.52 3.37,-1.89 6.83,-3.79 10.2,-5.53 3.46,-1.79 6.69,-3.78 10.19,-5.53 3.42,-1.71 6.83,-3.69 10.19,-5.54 3.36,-1.84 6.87,-3.6 10.22,-5.52l19.03 -10.31c1.08,-0.6 0.94,-0.34 1.27,-0.93 -1.11,-0.08 -2.72,-0.5 -3.82,-0.69 -1.32,-0.22 -2.42,-0.4 -3.79,-0.63 -6.05,-1.01 -9.81,-1.35 -15.98,-1.69l-4.24 -0.17c-1.68,0 -2.67,0.16 -4.25,0.17 -2.76,0.02 -8.47,1.15 -11.2,2.06 -3.25,1.08 -6.21,2.41 -8.98,4.27 -2.38,1.59 -3.17,2.41 -5.01,3.75z"/>
   <path class="fil2" d="M80.22 289.01c0.23,0.48 -0.14,0.17 1.17,0.86l8.82 4.79c3.3,1.89 6.83,3.74 10.2,5.52 3.47,1.84 6.8,3.81 10.21,5.53 3.49,1.76 6.68,3.74 10.2,5.53 3.4,1.74 6.85,3.68 10.19,5.54 6.49,3.62 14.06,7.43 20.42,11.04l10.11 5.47c-0.65,-2.43 -9.26,-17.85 -10.53,-19.89 -3.79,-6.06 -6.7,-10.42 -11.59,-15.29 -0.71,-0.7 -1.21,-1.1 -1.92,-2.03l-0.1 -0.18 -5.02 -3.64c-2.85,-1.9 -5.72,-3.17 -9.01,-4.25 -4.53,-1.48 -10.56,-2.19 -15.32,-2.18 -2.91,0 -9.63,0.39 -12.47,0.78l-11.54 1.71c-1.1,0.19 -2.71,0.61 -3.82,0.69z"/>
   <path class="fil2" d="M361.82 198.51c0.89,-0.62 2.48,-0.92 3.63,-1.24 -0.63,-0.58 -36.72,-15.17 -38.55,-15.93l-37.99 -15.59c-0.05,-0.01 -0.23,-0.16 -0.66,0.06l2.57 4.77c0.24,0.46 0.39,0.64 0.65,1.12l6.21 10.4c2.23,3.35 3.64,5.33 6.19,8.48 0.31,0.38 0.51,0.51 0.84,0.93 0.39,0.5 0.48,0.6 0.91,1.03 1.29,1.27 2.38,2.52 3.79,3.64l2.04 1.67c7.83,5.88 16.41,7.3 26.42,6.17 7.41,-0.84 14.08,-2.6 21.12,-4.69 0.78,-0.23 2.19,-0.76 2.83,-0.82z"/>
   <path class="fil2" d="M150.18 198.51l5.56 1.63c13.15,3.69 27.46,6.97 40.16,0.67 4.44,-2.21 7.03,-4.84 10.3,-8.09 0.66,-0.66 1.14,-1.25 1.76,-1.95 2.59,-2.89 5.53,-7.46 7.67,-10.72 2.49,-3.8 3.99,-6.91 6.09,-10.52l2.04 -3.72c-0.23,-0.11 -0.1,-0.13 -0.53,-0.07 -0.03,0 -0.64,0.22 -0.65,0.22l-56.78 23.3c-2.32,0.96 -18.55,7.43 -19.25,8.01 1.15,0.29 2.74,0.65 3.63,1.24z"/>
   <path class="fil2" d="M295.95 369.8c0.83,0.41 3.07,3 4.32,3.65l-10.24 -78.79c-0.08,-0.22 0.13,-0.5 -0.7,0.63 -0.29,0.4 -0.47,0.63 -0.76,1.02 -0.57,0.76 -1.02,1.36 -1.59,2.12 -0.57,0.76 -0.98,1.37 -1.56,2.14l-5.97 8.88c-5.72,9.61 -10.21,19.55 -6.33,31.19 2.2,6.61 7.05,12.83 11.65,18.05 0.62,0.71 1.24,1.16 1.81,1.9 1.57,2.07 5.47,5.38 7.47,7.38l1.9 1.83z"/>
   <path class="fil2" d="M216.05 369.8c0.7,-0.51 1.19,-1.11 1.81,-1.74 0.7,-0.7 1.26,-1.07 1.95,-1.76 1.27,-1.29 2.43,-2.44 3.71,-3.72l7.03 -7.82c1.97,-2.53 4.5,-5.81 5.95,-8.72 1.84,-3.69 2.99,-6.26 3.7,-11.15 0.66,-4.53 -0.54,-9.8 -1.59,-12.94 -0.34,-1.04 -0.64,-1.74 -1.02,-2.69l-2.37 -5.05c-1.38,-2.3 -2.25,-4.26 -4.04,-6.93l-8.83 -12.41c-0.6,-0.66 -0.31,-0.31 -0.38,-0.21l-10.27 78.8 3.21 -2.7c0.5,-0.53 0.54,-0.66 1.14,-0.96z"/>
   <path class="fil2" d="M149.54 171.82c1.56,-7.91 1.73,-17.21 -1.83,-24.28 -2.11,-4.18 -3.93,-6.51 -7.26,-9.88 -3.3,-3.34 -9.06,-7.31 -13.06,-9.75l-13.63 -7.6c-0.03,-0.01 -0.46,-0.23 -0.47,-0.23 -0.46,-0.19 -0.22,-0.18 -0.38,-0.05l29.53 76.12 1.19 -2.9c2.17,-6.48 4.83,-14.88 5.91,-21.43z"/>
   <path class="fil2" d="M362.23 171.46l0.23 0.36c0.92,6.3 4.13,16.22 6.36,22.75 0.1,0.27 0.18,0.56 0.27,0.79l0.39 0.76 29.61 -76.09c-0.21,-0.18 -1.34,0.53 -1.68,0.7 -0.62,0.31 -1.24,0.59 -1.87,0.96l-5.5 2.99c-4.23,2.26 -8.17,5 -12.11,7.69 -0.63,0.42 -1.03,0.74 -1.61,1.21 -0.56,0.45 -1.05,0.8 -1.58,1.26 -5.14,4.49 -9.77,9.18 -11.88,16.4 -1.43,4.91 -1.91,9.86 -1.21,15.15l0.58 5.07z"/>
   <path class="fil1" d="M268.02 406.72l0.53 0.36c0.19,0.11 0.35,0.2 0.56,0.32l3.58 2.08c1.65,1 3.13,1.86 4.73,2.87 0.79,0.5 1.53,0.95 2.27,1.45 2.84,1.91 6.19,3.97 8.98,6.03l14.88 11.47c1.24,-1.86 8.77,-11.51 9.01,-12.55 -0.52,-0.14 -2.62,-2.06 -3.28,-2.55 -9.17,-6.9 -15.69,-10.5 -26.25,-15.83 -0.83,0.77 -13.06,5.78 -15.01,6.35z"/>
   <path class="fil3" d="M256.07 400.54l11.95 6.18c1.95,-0.57 14.18,-5.58 15.01,-6.35l-6.23 -2.95c-0.63,-0.32 -0.92,-0.43 -1.58,-0.72l-4.9 -2.17c-1.26,0.09 -13.56,5.33 -14.25,6.01z"/>
   <path class="fil3" d="M228.78 388.72c1.17,0.93 11.73,5.07 12.9,5.74 0.7,-0.11 14.01,-5.69 14.27,-5.94l-3.54 -1.36c-1.24,-0.49 -2.29,-0.92 -3.53,-1.42 -1.27,-0.5 -2.28,-0.91 -3.54,-1.41 -1.11,-0.44 -2.57,-1.2 -3.63,-1.46 -0.7,0.55 -5.25,2.36 -6.49,2.89 -2.02,0.87 -4.68,1.97 -6.44,2.96z"/>
  </g>
 </g>
</svg>
