<svg xmlns="http://www.w3.org/2000/svg" xml:space="preserve" style="shape-rendering:geometricPrecision;text-rendering:geometricPrecision;image-rendering:optimizeQuality;fill-rule:evenodd;clip-rule:evenodd" viewBox="0 0 4334.92 4334.92"><path d="M1166.27 927.12c10.75-2.12 22.18-7.63 32.02-10.89 80.25-26.58 138.48-53.25 212.13-90.55l102.45-69c36.65-34.13 32.03-26.96 63.39-65.72l18.26-26.19c10.92-18.5 20.79-34.77 29.25-55.42 45.24-110.37 41.6-185.25 42.08-303.03.15-36.13-16.1-200.86-23.33-237.87-10.91-3.88-192.81 63.16-214.69 71.91-27.12 10.84-96.94 41.41-120.15 55.53-52.28 31.81-47.99 25.6-104.24 69.34-33.24 25.84-59.71 57.16-83.32 92.35-43.89 65.43-71.51 170.89-72.47 249.27-.32 26.4-3.2 63.46-.49 83.21 1.97 14.37 2.32 89.74 5.39 113.14 8.17 62.3 9.72 46.82-15.8 89.08-22.99 38.08-63.28 108.53-83.56 149.27l-40.21 78.32c-4.36 8.72-15.78 35.24-20.34 39.51 18.69-94.66 20.71-206.01-21.98-290.7-25.25-50.1-47.03-77.95-86.97-118.35-39.46-39.92-108.42-87.47-156.27-116.78l-163.27-90.92c-.39-.21-5.54-2.81-5.63-2.84-5.54-2.19-2.69-2.14-4.59-.59-.41.4-.92.53-1.07 1.34L408.5 670.42c-13.12 47.45-26.43 90.79-36.52 141.28-24.91 124.64-27.51 264.36 47.7 364.02 6.83 9.06 11.51 17.09 19 25.45 21.65 24.18 40.01 46.64 66.3 67.05l49.25 39.65c65.7 48.26 103.84 65.94 164.53 102.17 19.21 11.47 38.62 20.58 58.04 30.86l-18.22 60.08c-45.93 138.14-74.65 283.53-90.08 428.51-.93 8.71-3.69 27.36-3.86 36.34-1.59-2.49-.3.37-2-4.37l-5.24-20.16c-2.44-8.54-4.97-16.74-7.31-24.44-4.92-16.19-11.97-31.69-18.43-47.19-16.95-40.7-46.55-84.41-77.59-115.02-5.94-5.86-10.6-8.83-16.98-14.77-107.08-99.71-327.5-126.4-473.96-141.99-19.64-2.09-41.46-4.59-61.26-4.59-1.15 2.03-1.66 4.94-1.88 8.02v78.67c.56 13.75 2.25 13.39 2.09 40.33-.1 15.69 1.64 25.6 2.08 42.37.79 30.53 13.59 133.57 18.56 159.24 13.27 68.57 33.88 139.65 71.24 195.46 64.18 95.89 156.84 144.36 271.34 173.16 43.65 10.97 69.54 15.79 110.64 22.7 12.18 2.05 25.24 4.66 38.39 6.06 25.5 2.73 53.93 6.86 78.92 9.98l81.95 6.95c0 24.98 23.94 138.26 29.64 160.87L735.76 2608c3.37 10.11 10.6 27.59 11.41 37.27l-60.1-43.61c-34.06-22.8-68.47-38-107.89-50.86-54.24-17.71-126.44-26.21-183.38-26.18-34.92.03-115.36 4.69-149.4 9.35l-138.18 20.56c-13.15 2.22-32.41 7.27-45.74 8.2l27.82 64.2c10.61 21.22 21.01 45.04 32.86 64.5 5.98 9.82 10.83 20.49 16.44 30.14l34.85 62.51c6.4 10.9 12.01 20.08 18.25 30.43 18.29 30.35 55.4 84.89 78.88 113.74 42.43 52.12 71.06 80.93 122.43 118.87 74.63 55.11 155.98 76.32 251.87 86.79l92.71 2.32c66.17-5.48 108.11-7.08 177.02-17.72 27.74-4.28 57.93-7.98 83.44-13.92 21.12 31.53 46.23 57.95 69.23 85.29l74.71 83.02c-159.42-47.9-316.81 24.08-449.96 105.63l-200.46 140.7c-6.91 5.72-5.82 3.92-3.63 5.68 7.7 14.66 52.94 50.52 66.17 63.83 49.54 49.82 167.55 142.22 220.43 177.52 122.49 81.77 261.57 130.54 411.16 86.89 133.69-39.01 264.36-123.43 375.09-206.99 5.25-3.97 9.04-6.8 14.51-10.89l15.42-12.1c8.77 5.88 19.1 12.1 28.98 17.59l122.71 67.78c11.54 5.75 21.52 10.76 32.46 16.23 10.93 5.47 20.92 10.46 32.45 16.23 9.64 4.82 23.5 13.03 33.16 15.73 14.05 11.21 140.48 60.78 154.52 68.76l-202.49 96.84c-70.62 35.3-172.87 94.72-232.63 139.9l-42.05 32.03c-5.92 4.63-8.61 7.37-13.89 11.51-5.71 4.48-7.87 8.73-14.82 10.58 2.08 8.93 19.6 30.36 25.4 38.1l82.55 112.19 130.34-102.5c5.9-4.24 10.44-7.84 15.7-11.81 101.28-76.21 271.25-179.01 383.12-234.94 14.23-7.12 25.42-12.92 41.04-19.05l143.11 73.98 6.34 4.35c2.28 1.33 4.22 2.31 6.76 3.82l42.86 24.87c19.78 11.97 37.41 22.28 56.63 34.38 9.43 5.93 18.25 11.41 27.11 17.35 34.06 22.83 74.18 47.55 107.63 72.28l178.12 137.27c14.92-22.29 105.05-137.86 107.95-150.29-6.29-1.68-31.42-24.64-39.29-30.56-109.77-82.55-187.93-125.7-314.36-189.57l-74.63-35.27c-7.46-3.79-11.04-5.19-18.95-8.57l-58.65-26.01 156.6-69.88c49.37-21.95 105.43-55.05 151-77.6l96.68-55.72 59.28 44.44c20.94 14.7 40.63 28.52 62.64 43.19 141.01 94.01 293 181.25 471.36 152.17 128.36-20.93 251.26-111.82 342.77-186.4l85.4-73.34c5.54-4.28 8.31-7.53 13.06-12.35l41.98-38.45c8.3-6.41 21.75-18.89 26.29-27.52 2.42-1 4 1.23-2.47-4.73-25.72-23.69-169.01-120.74-199.02-140.02l-56.03-32.87c-66.35-33.65-106.01-56.96-187.38-77.2-67.01-16.66-144.64-16.8-209.15 2.83 6.8-13.62 26.33-26.78 36.88-40.44l107.05-127.89c25.28 5.89 54.17 9.2 81.63 13.63 29.56 4.77 56.09 6.62 86.49 10.87 35.85 5.01 98.54 7.07 136.7 7.26 15.08.08 30.76-1 46.44-2.24 88.14-7 138.05-23.05 206.81-57.77 6.96-3.51 10.06-4.76 16.42-8.98 77.8-51.62 109.91-81.67 172.09-164.46 7.34-9.77 13.47-17.99 20.52-28.16 20.61-29.74 55.04-84.59 73.89-118.72 15.33-27.74 95-176.94 98.81-193.29h-3.22c-13.34-.93-32.59-5.98-45.74-8.2-15.88-2.67-29.03-4.79-45.38-7.53-72.52-12.15-117.47-16.28-191.42-20.25l-50.79-2.13c-20.07-.01-31.95 1.92-50.87 2.05-32.98.23-101.35 13.78-134.1 24.65-38.97 12.94-74.33 28.89-107.56 51.19-28.41 19.07-37.87 28.9-60 44.88l22.34-71.96c6.99-25.3 14.33-51.14 20.73-76.63 6.49-25.83 11.7-52.78 16.83-78.42 3.34-16.67 13.23-68.72 13.23-84.14l80.06-6.73c80.98-9 150.37-19.17 228.13-38.57 49.23-12.28 89.68-27.7 129.96-47.83 42.78-21.37 70.66-42.41 103.21-74.59 62.32-61.62 94-160.27 110.77-244.83 6.01-30.28 17.02-123.22 18.86-158.94l4.23-129.12v-.99c-.01-5.74-.03-11.48 0-17.22v-17.27c-.28-2.59-.83-4.98-1.88-6.85-47.59 0-186.43 19.47-231.56 26.91-36.01 5.93-72.96 13.55-105.98 23.13-115.84 33.64-204.69 76.62-269.29 181.56-14.74 23.95-32.25 63.08-40.86 90.38l-13.71 47.68c-.16.4-.53 1.13-.67 1.45-.14.31-.42.97-.7 1.42l-17.03-141.71-25.26-133.48c-15.75-64.04-30.19-125.68-51.1-188.09l-18.78-61.65c38.39-20.31 75.98-39.66 113.38-62.31 5.32-3.23 8.65-4.82 13.54-7.63 57.39-33.06 93.57-62.66 144.02-101.51l66.16-67.19c150.57-168.58 63.96-437.28-.79-631.06-1.75-5.23-4.07-10.65-5.79-15.38-2.32-6.4-2.89-11.84-7.62-16.62-2.59-2.08-16.04 6.37-20.21 8.47-7.4 3.69-14.84 6.95-22.39 11.47l-65.81 35.8c-50.63 26.99-97.84 59.84-145.06 92.01-7.48 5.1-12.25 8.85-19.29 14.57-6.65 5.39-12.58 9.52-18.86 15.01-61.61 53.86-117.03 109.98-142.26 196.4-17.18 58.83-22.86 118.07-14.53 181.46l6.98 60.76c-.29-.43-.66-1.66-.77-1.35-1.08 3.03-1.24-2.24-1.49-2.74l-66.7-130.16c-4.24-7.09-6.12-12.28-10.05-19.57-6.81-12.66-13.61-24.47-20.58-36.57-9.09-15.76-63.13-104.54-63.1-111.97l5.48-51.71c2.42-18.26.87-37.69 3.59-55.67 2.66-17.66-.52-37.6 2.11-55.04 2.49-16.42-2.04-90.34-3.04-110.92-1.97-40.19-17.28-109.52-31.08-144.6-43.72-111.15-109.52-169.19-207.64-228.39l-77.24-39.18c-49.33-21.09-92.2-40.55-145.17-58.03-15.63-5.16-123.79-43.57-131.5-40.78-6.1 31.12-10.12 80.9-14.23 113.6-8.07 64.19-9.01 139.26-9.05 208.96-.04 56.17 8.14 106.24 19.47 151.98 5.79 23.42 12.56 43.41 21.62 65.16 8.75 21.02 19.12 37.85 30.19 56.6 14.26 24.16 47.21 62.03 67.9 80.26 29.83 26.27 81.38 63.03 116.2 80.65l56.49 28.18c59.07 29.83 113.51 45.22 169.83 67.23 6.83 2.67 9.74 4.47 17.83 5.97l34.79 57.83c12.49 20.65 22.6 39.66 34.38 60.86l32.84 60.3c5.77 9.48 29.19 54.71 31.34 63.91-6.2-4.14-23.38-26.56-30.12-33.38a4525.792 4525.792 0 0 0-31.75-31.75c-15.72-15.54-53.97-43.59-72.34-54.66-7.21-4.33-13.76-7.46-20.39-11.35-44.47-26.08-126.57-42.63-179.83-42.43-83.42.31-155.63 13.4-223.54 30.47-60.17 15.13-113.96 30.52-172.55 49.7-8.22 2.69-19.13 3.29-17.88 10.85l30.82 57.18c2.83 5.47 4.71 7.59 7.79 13.38l74.37 124.6c26.75 40.1 43.57 63.81 74.19 101.49 3.69 4.54 6.1 6.14 10 11.16 4.67 6.02 5.7 7.16 10.94 12.35 15.39 15.21 28.5 30.08 45.3 43.6l24.49 19.96c93.72 70.37 196.44 87.41 316.36 73.86 88.71-10.02 168.57-31.14 252.86-56.17 9.39-2.79 26.26-9.09 33.97-9.82l48.59 161.61c16.2 55.54 53.67 236.98 53.67 295.58-4.89-5.61-24.07-68-50.78-107.97-4.26-6.38-8.5-12.66-12.72-19.03l-28.01-35.49c-22.43-22.67-40.68-41.07-67.64-59.36-27.12-18.39-51.61-31.68-83.68-45.43-61.91-26.54-123.6-41.61-198.33-55.67-36.97-6.96-71.55-11.26-110.38-16.63-19.87-2.74-36.87-3.53-57.17-6.32-19.45-2.69-40.83-5.46-61.05-5.46-4.23 11.53 8.96 142.24 11.09 161.25 11.03 98.09 27.27 199.72 65.38 288.1 13.99 32.44 28.42 57.25 48.41 84.94 6.47 8.97 11.96 17.4 19.37 25.08l20.09 22.25c21.46 20.06 51.38 42.29 76.12 57.22 73.56 44.41 177.98 72.53 266.31 87.17 17.04 2.83 140.18 22.05 156.64 20.73 0 12.21-4.2 29.73-6.05 40.96-2.4 14.66-4.95 26.1-7.89 40.79-15.47 77.39-37.42 154.09-65.28 226.82-9.3 24.27-18 45.81-28.12 69.24-20.59 47.68-40.73 84.64-64.82 129.92-3.03 5.71-5.22 8.88-8.68 14.6-3.67 6.06-5.75 10.34-9.24 16.16-4.55 7.59-13.77 25.03-19.47 29.21 2.69-32.35 32.43-132.89 31.78-203.16-.15-16.24 2.18-23 2.18-38.14 0-14.83-2.03-22.12-2.14-38.17-.27-38.15-14.32-93.37-29.09-127.55-17.7-40.99-44.44-74.79-72.28-105.51-13.21-14.56-62.26-52.32-76.08-61.5l-48.2-30.12c-67.88-40.14-171.61-82.98-246.76-110.96-9.23-3.43-21.24-7.03-29.31-10.9l-2.12 4.84-29.65 103.09c-40.01 151.26-84.53 347.08-23.88 487.47 14.44 33.44 44.6 78.61 70.98 104.7 71.78 71.03 180.67 127.39 274.98 165.29 21.1 8.48 42.02 18.3 63.17 25.15l-88.37 100.58c-16.02 15.97-28.14 32.94-45.6 47.54l-24.25 22.31c-4.38 4.39-7.23 7.36-11.6 11.69l-62.7 55.83c-46.21 37.11-111.51 91.31-161.18 124.57 5.2-19.48 136.27-183.74 104.31-351.95-18.13-95.39-67.16-158.56-122.46-228.91-3.93-5.01-4.91-5.82-8.71-10.34l-27.61-31.66c-8.07-8.02-12.19-12.02-19.3-20.92-20.99-26.32-91.55-87.42-119.35-115.59-7.33-7.42-12.87-10.52-20.14-17.96-5.76-5.9-15.75-14.99-22.74-18.53-.91-2.7 1.61-6.05-8.32 7.45-3.54 4.82-5.6 7.57-9.07 12.2-6.84 9.11-12.21 16.3-19.05 25.4-6.86 9.13-11.79 16.51-18.75 25.71l-71.44 106.35c-68.51 115.01-122.23 234.08-75.79 373.49 26.35 79.08 84.43 153.65 139.46 216.14 7.48 8.49 14.85 13.82 21.68 22.77 18.85 24.7 65.57 64.37 89.43 88.37l22.75 21.91c-4.17 5.31-18.72 12.06-25.8 16.31-38.72 23.28-103.24 56.28-143.52 76.62-86.71 43.78-186.32 82.96-276.68 119.13-10.69 4.28-21.85 9.82-32.97 12.09l-42.36-16.3c-14.92-5.82-27.42-11-42.29-16.97-15.18-6.09-27.33-10.94-42.35-16.92-13.29-5.29-30.78-14.34-43.53-17.54-48.69-23.7-106.17-47.72-157.65-73.38l-112.94-60.62c-8.54-4.78-32.18-16.75-36.64-22.41 8.35-6.15 14.26-13.36 21.69-20.86 8.36-8.43 15.06-12.82 23.3-21.16 15.24-15.42 29.11-29.13 44.44-44.46l84.14-93.66c23.63-30.26 53.88-69.55 71.29-104.39 22.09-44.23 35.78-74.97 44.28-133.52 7.88-54.26-6.46-117.39-19-155-4.14-12.42-7.66-20.84-12.21-32.23l-28.43-60.47c-16.48-27.51-26.97-51.06-48.3-82.93l-105.73-148.65c-7.23-7.91-3.77-3.68-4.58-2.47-6.45 3.28-16.33 11.97-21.68 17.45-7.41 7.58-12.91 10.7-20.13 17.97-7.89 7.93-11.37 10.92-19.99 18.12l-99.21 97.63c-8.72 11.3-51.89 56.82-73.14 83.5-48.24 60.56-89.14 127.73-105.42 205.72-18.16 86.94 8.99 179.23 46.43 253.87 15.77 31.44 37.91 70.74 57.15 99.49-8.22-2.2-45.86-31.24-55.03-38.1-18.25-13.68-35.46-27.01-53.58-41.67l-76.05-63.65c-5.32-5.29-7.46-5.97-12.7-10.59-18.82-16.58-43.67-43.38-61.18-57.35-21.7-17.3-67.34-71.51-91.21-97.17l-43.94-51.74c20.04-7.25 41.57-15.57 61.97-24.37 61.76-26.65 90.24-40.13 148.3-71.84 10.39-5.67 17.94-10.26 28.02-16.43 34.72-21.27 70.75-49.13 98.79-76.89 4.59-4.54 6.36-6.31 10.05-11.12 9.27-12.11 15.95-16.79 29.23-36.38 72.65-107.14 71.87-230.02 49.4-366.1-10.23-62.01-25.25-120.21-40.08-177.94l-30.09-104.79-2.2-4.77c-8.4 4.02-18.79 7.07-27.7 10.27-9.92 3.56-19.27 7.21-29.06 11.15-18.1 7.27-37.52 13.95-56.06 22.26-9.41 4.22-18.13 7.42-26.85 11.24-53.38 23.41-109.93 49.24-159.11 80.08-20.13 12.63-84.6 58.67-100.31 77.48-32.36 38.73-47.63 48.87-72.81 104.99-21.26 47.36-31.78 111.88-31.84 165.04-.02 16.05 2.35 23.18 2.2 38.12-.44 45.24 15.77 127.17 25.18 173.78 2.11 10.46 6.31 22.74 6.55 33.67l-101.56-190.53c-10.19-22.65-18.74-45.1-28.17-69.2-30.48-77.87-60.01-185.65-73.48-267.3-2.01-12.15-6.34-30.18-6.34-42.69 19.26 1.2 135.31-17.29 154.81-20.53 62.51-10.39 86.49-17.78 144.09-33.72l63.66-23.11c37.09-16.13 92.77-46.56 122.67-76.3 9.48-9.43 11.96-7.49 22.77-21.68 9.34-12.26 13.25-12.62 29.65-35.97 77.99-111.05 98.78-238.17 114.46-372.37 2.32-19.88 15.52-150.61 11.44-163.16l-59.72 4.81c-158.6 19.64-363.48 43.23-485.81 151.31-17.4 15.37-31.57 31.71-46.53 48.72-4.99 5.67-9.11 11.63-13.51 18.24-32.29 48.65-38.03 61.89-58.84 116.85l-5.49 11.43c0-54.53 28.86-188.25 39.69-239.7 12.95-61.52 29.95-108.09 45.42-164.13 4.65-16.83 13.34-35.56 17.15-53.36l66.61 19.5c157.48 44.23 328.83 83.49 480.96 8.03 53.18-26.38 84.14-57.94 123.28-96.85 7.93-7.88 13.71-15 21.13-23.32 30.92-34.69 66.18-89.39 91.78-128.36 29.91-45.52 47.81-82.79 72.92-126.04l24.48-44.55c1.1-7.86-27.56-14.29-41.76-18.8l-98.04-28.95c-124.92-31.24-302.32-73.59-432.28-10.81-42.32 20.45-58.35 28.31-97.42 61.33-34.71 29.33-38.44 38.01-63.64 63.37-5.79 5.83-8.76 12.01-15.33 16.41 2.21-9.48 38.47-78.94 46.66-93.04 5.66-9.73 12.1-20.39 17.55-31.13a473.178 473.178 0 0 1 16.63-29.94l52.51-88.73zm-419.1 1718.15c.1 0 .3.15.6.4l-.6-.4zm2692.39-1490.12 2.73 4.23c-3.5-1.64-2.73 3.06-2.73-4.23z" style="fill:#ffcd37"/><path d="m488.94 3524.91 1125.21 75.42c-26.18-29.95-63.24-58.29-89.05-84.08-4.75-4.73-8.78-7.03-13.9-11.58-9.44-8.38-15.74-15.06-25.58-23.02-88.51-71.63-156.83-132.62-268.63-182.26-24.86-11.04-48.67-17.48-74-26.49-159.42-47.9-316.81 24.08-449.96 105.63l-200.46 140.7c-6.91 5.72-5.82 3.92-3.63 5.68zm1352.54 231.82c14.05 11.21 140.48 60.78 154.52 68.76 8.33-1.35 167.74-68.16 170.84-71.09l-42.36-16.3c-14.92-5.82-27.42-11-42.29-16.97-15.18-6.09-27.33-10.94-42.35-16.92-13.29-5.29-30.78-14.34-43.53-17.54-8.42 6.64-62.89 28.31-77.75 34.71-24.18 10.41-55.93 23.55-77.08 35.35zm326.79 141.61 143.11 73.98c23.33-6.79 169.83-66.77 179.75-76.1l-74.63-35.27c-7.46-3.79-11.04-5.19-18.95-8.57l-58.65-26.01c-15.08 1.07-162.3 63.76-170.63 71.97zm1271.29-2743.19 2.73 4.23c10.98 75.5 49.43 194.28 76.2 272.43 1.14 3.32 2.15 6.79 3.17 9.49l4.68 9.07 354.65-911.17c-2.59-2.08-16.04 6.37-20.21 8.47-7.4 3.69-14.84 6.95-22.39 11.47l-65.81 35.8c-50.63 26.99-97.84 59.84-145.06 92.01-7.48 5.1-12.25 8.85-19.29 14.57-6.65 5.39-12.58 9.52-18.86 15.01-61.61 53.86-117.03 109.98-142.26 196.4-17.18 58.83-22.86 118.07-14.53 181.46l6.98 60.76zm-2546.92 4.23c18.69-94.66 20.71-206.01-21.98-290.7-25.25-50.1-47.03-77.95-86.97-118.35-39.46-39.92-108.42-87.47-156.27-116.78l-163.27-90.92c-.39-.21-5.54-2.81-5.63-2.84-5.54-2.19-2.69-2.14-4.59-.59l353.71 911.54 14.18-34.67c25.99-77.64 57.8-178.21 70.82-256.69zm796.44 2370.88c8.35-6.15 14.26-13.36 21.69-20.86 8.36-8.43 15.06-12.82 23.3-21.16 15.24-15.42 29.11-29.13 44.44-44.46l84.14-93.66c23.63-30.26 53.88-69.55 71.29-104.39 22.09-44.23 35.78-74.97 44.28-133.52 7.88-54.26-6.46-117.39-19-155-4.14-12.42-7.66-20.84-12.21-32.23l-28.43-60.47c-16.48-27.51-26.97-51.06-48.3-82.93l-105.73-148.65c-7.23-7.91-3.77-3.68-4.58-2.47l-123.07 943.56 38.51-32.27c5.96-6.4 6.49-7.92 13.67-11.49zm956.73-.01c10.01 4.81 36.85 35.83 51.8 43.71l-122.7-943.5c-.91-2.7 1.61-6.05-8.32 7.45-3.54 4.82-5.6 7.57-9.07 12.2-6.84 9.11-12.21 16.3-19.05 25.4-6.86 9.13-11.79 16.51-18.75 25.71l-71.44 106.35c-68.51 115.01-122.23 234.08-75.79 373.49 26.35 79.08 84.43 153.65 139.46 216.14 7.48 8.49 14.85 13.82 21.68 22.77 18.85 24.7 65.57 64.37 89.43 88.37l22.75 21.91zM900.23 1479l66.61 19.5c157.48 44.23 328.83 83.49 480.96 8.03 53.18-26.38 84.14-57.94 123.28-96.85 7.93-7.88 13.71-15 21.13-23.32 30.92-34.69 66.18-89.39 91.78-128.36 29.91-45.52 47.81-82.79 72.92-126.04l24.48-44.55c-2.73-1.27-1.16-1.51-6.39-.86-.31.04-7.6 2.63-7.78 2.7l-679.89 279.06c-27.75 11.5-222.16 88.88-230.51 95.83 13.74 3.47 32.84 7.76 43.41 14.86zm2534.44 0c10.59-7.35 29.66-10.95 43.39-14.82-7.53-6.92-439.66-181.72-461.56-190.78l-454.91-186.65c-.69-.15-2.76-1.94-8.01.66l30.82 57.18c2.83 5.47 4.71 7.59 7.79 13.38l74.37 124.6c26.75 40.1 43.57 63.81 74.19 101.49 3.69 4.54 6.1 6.14 10 11.16 4.67 6.02 5.7 7.16 10.94 12.35 15.39 15.21 28.5 30.08 45.3 43.6l24.49 19.96c93.72 70.37 196.44 87.41 316.36 73.86 88.71-10.02 168.57-31.14 252.86-56.17 9.39-2.79 26.26-9.09 33.97-9.82zM62.48 2562.73c2.74 5.8-1.62 2.1 14 10.36l105.6 57.32c39.56 22.66 81.87 44.8 122.25 66.16 41.45 21.93 81.33 45.56 122.19 66.19 41.82 21.1 80.03 44.8 122.12 66.23 40.81 20.78 82.07 44.06 122.02 66.31 77.74 43.3 168.41 88.92 244.62 132.23l121 65.48c-7.82-29.08-110.83-213.75-126.1-238.2-45.31-72.54-80.18-124.77-138.72-183.03-8.5-8.47-14.49-13.25-23.09-24.39l-1.2-2.12-60.1-43.61c-34.06-22.8-68.47-38-107.89-50.86-54.24-17.71-126.44-26.21-183.38-26.18-34.92.03-115.36 4.69-149.4 9.35l-138.18 20.56c-13.15 2.22-32.41 7.27-45.74 8.2zm3524.08 84.66-33.53 35.19c-79.63 79.37-139.44 188.48-194.07 288.44-9.19 16.82-56.94 109.26-60.34 121.99 16.58-10.09 41.66-22.74 59.45-31.83 20.23-10.33 41-21.77 60.31-32.8 39.95-22.81 81.9-43.4 122.33-66.1 40.42-22.68 81.81-45.38 122.13-66.23 41.48-21.45 80.15-45.34 122.07-66.28 40.92-20.44 81.83-44.21 122.06-66.27 40.18-22.04 82.22-43.12 122.3-66.13l227.87-123.47c12.99-7.19 11.37-4.14 15.28-11.17-13.34-.93-32.59-5.98-45.74-8.2-15.88-2.67-29.03-4.79-45.38-7.53-72.52-12.15-117.47-16.28-191.42-20.25l-50.79-2.13c-20.07-.01-31.95 1.92-50.87 2.05-32.98.23-101.35 13.78-134.1 24.65-38.97 12.94-74.33 28.89-107.56 51.19-28.41 19.07-37.87 28.9-60 44.88zM1166.27 927.12c10.75-2.12 22.18-7.63 32.02-10.89 80.25-26.58 138.48-53.25 212.13-90.55l102.45-69c36.65-34.13 32.03-26.96 63.39-65.72l18.26-26.19c10.92-18.5 20.79-34.77 29.25-55.42 45.24-110.37 41.6-185.25 42.08-303.03.15-36.13-16.1-200.86-23.33-237.87l-9.56 12.45c-3.03 4.68-5.31 8.77-8.91 14.41l-88.44 137.99c-47.27 71.52-94.49 150.5-141.82 222.3-12.58 19.08-22.92 36.87-35.5 55.49-12.66 18.74-23.17 37.08-35.53 55.46L1216.39 733.3c-23.43 37.3-46.51 73.11-71.14 110.8-9.23 14.12-67.29 103.42-69.68 111.23l90.7-28.21zm-35.98 2136.82c20.04-7.25 41.57-15.57 61.97-24.37 61.76-26.65 90.24-40.13 148.3-71.84 10.39-5.67 17.94-10.26 28.02-16.43 34.72-21.27 70.75-49.13 98.79-76.89 4.59-4.54 6.36-6.31 10.05-11.12 9.27-12.11 15.95-16.79 29.23-36.38 72.65-107.14 71.87-230.02 49.4-366.1-10.23-62.01-25.25-120.21-40.08-177.94l-30.09-104.79c-5.88-2.77-6.88 6.98-14.42 23.03l-90.53 199.55c-34.36 76.89-70.15 151.32-103.96 228.29-33.5 76.25-68.27 152.55-103.9 228.39-35.39 75.31-68.31 152.73-103.21 227.62l60.43-21.02zm1718.72-885.84-29.65 103.09c-40.01 151.26-84.53 347.08-23.88 487.47 14.44 33.44 44.6 78.61 70.98 104.7 71.78 71.03 180.67 127.39 274.98 165.29 21.1 8.48 42.02 18.3 63.17 25.15l60.12 22.01c-34.4-75.05-67.93-152.26-102.23-227.03l-298.39-656.23c-2.28-4.97-4.57-9.53-6.66-14.46-3.09-7.31-2.76-11.26-8.44-9.99zm319.62-1251.04 90.6 28.51c-2.37-8.82-26.92-44.27-33.32-54.59-68.14-109.97-144.98-222.76-212.88-333.21l-106.58-166.41c-46.51-71.52-95.21-152.35-141.82-222.31l-68.86-106.96c-2.1-2.53-1.34-1.84-3.39-3.62-6.1 31.12-10.12 80.9-14.23 113.6-8.07 64.19-9.01 139.26-9.05 208.96-.04 56.17 8.14 106.24 19.47 151.98 5.79 23.42 12.56 43.41 21.62 65.16 8.75 21.02 19.12 37.85 30.19 56.6 14.26 24.16 47.21 62.03 67.9 80.26 29.83 26.27 81.38 63.03 116.2 80.65l56.49 28.18c59.07 29.83 113.51 45.22 169.83 67.23 6.83 2.67 9.74 4.47 17.83 5.97zM804.32 2331.67c19.26 1.2 135.31-17.29 154.81-20.53 62.51-10.39 86.49-17.78 144.09-33.72l63.66-23.11c37.09-16.13 92.77-46.56 122.67-76.3 9.48-9.43 11.96-7.49 22.77-21.68 9.34-12.26 13.25-12.62 29.65-35.97 77.99-111.05 98.78-238.17 114.46-372.37 2.32-19.88 15.52-150.61 11.44-163.16-4.34 7.87-4.02 5.3-10.81 11.38l-260.44 270.86c-14.69 15.9-30.17 30.17-44.9 46.09-7.97 8.61-14.43 15.56-22.43 24.17-7.73 8.33-15.87 14.7-23.51 23.02-44.54 48.53-92.01 94.45-134.73 140.45l-34.73 35.1c-4.29 4.26-7.05 7.63-11.19 12.1l-44.9 46.11c-15.55 14.75-29.86 32.39-44.92 48.28l-68.32 69.2c-7.13 6.46-17.92 17.09-22.06 25.37l59.39-5.29zm2726.26-.1 59.42 5.62c-4.04-8.27-56.94-61.19-66.85-71.86l-23.51-23c-15.01-15.89-28.49-32.02-43.87-47.21l-136.76-140.48c-29.62-31.82-60.23-62.54-89.84-94.35-7.43-7.99-15.05-13.86-22.46-21.94l-89.81-94.38c-7.68-8.31-15.76-14.68-23.48-23.05-13.38-14.53-30.82-35.58-45.44-47.7-14.42-11.95-31.23-32.38-44.41-46.64l-136.4-141.75c-4.23 11.53 8.96 142.24 11.09 161.25 11.03 98.09 27.27 199.72 65.38 288.1 13.99 32.44 28.42 57.25 48.41 84.94 6.47 8.97 11.96 17.4 19.37 25.08l20.09 22.25c21.46 20.06 51.38 42.29 76.12 57.22 73.56 44.41 177.98 72.53 266.31 87.17 17.04 2.83 140.18 22.05 156.64 20.73zM664.64 1965.83c-1.59-2.49-.3.37-2-4.37l-5.24-20.16c-2.44-8.54-4.97-16.74-7.31-24.44-4.92-16.19-11.97-31.69-18.43-47.19-16.95-40.7-46.55-84.41-77.59-115.02-5.94-5.86-10.6-8.83-16.98-14.77-107.08-99.71-327.5-126.4-473.96-141.99-19.64-2.09-41.46-4.59-61.26-4.59 3.39 7.01 3.46 6.02 9.8 11.59 4.52 3.97 7.08 7.23 11.27 12.01l64.34 69.02c24.73 28.15 65.33 67.59 87.16 92.73l519.2 554.94c3.49-32.39-2.74-153.86-5.46-192.07-2.16-30.28-5.23-60.81-9.42-90.51-3.41-24.2-13.71-64.04-14.12-85.18zm3005.62 0c-.49 21.02-10.73 61.02-14.13 85-8.05 56.78-20.39 232.07-14.87 282.76 6.61-7.5 14.3-14.15 21.23-22.06l151.53-161.72c13.87-15.99 28.63-30.54 42.52-46.45l43.6-45.21c7.63-8.04 13.11-15.73 20.77-23.78l31.81-33.79c5.21-5.04 7.23-6.15 11.79-11.41 7.51-8.67 13.71-17.1 22.09-24.53 9.31-8.27 13.83-14.28 21.45-23.01l128.84-137.88c27.91-26.97 90.54-96.14 119.64-128.01 4.05-4.43 7.75-6.91 11.93-11.26l64.57-71.18c-47.59 0-186.43 19.47-231.56 26.91-36.01 5.93-72.96 13.55-105.98 23.13-115.84 33.64-204.69 76.62-269.29 181.56-14.74 23.95-32.25 63.08-40.86 90.38l-13.71 47.68c-.16.4-.53 1.13-.67 1.45-.14.31-.42.97-.7 1.42zm-478.35 1307.09c-26.5 10-37.45 10.94-72.45 25.89-102.73 43.88-227.62 141.47-307.48 215.41-5.5 5.09-7.84 7.76-13.18 12.16l-78.11 73.17 1125.27-74.64c2.42-1 4 1.23-2.47-4.73-25.72-23.69-169.01-120.74-199.02-140.02l-56.03-32.87c-66.35-33.65-106.01-56.96-187.38-77.2-67.01-16.66-144.64-16.8-209.15 2.83z" style="fill:#ff9a00"/></svg>