<svg xmlns="http://www.w3.org/2000/svg" xml:space="preserve" style="shape-rendering:geometricPrecision;text-rendering:geometricPrecision;image-rendering:optimizeQuality;fill-rule:evenodd;clip-rule:evenodd" viewBox="0 0 16852.56 4334.92"><defs><style>.fil0{fill:#fff;fill-rule:nonzero}</style></defs><g id="Name"><path class="fil0" d="M7628.69 2163.24 6553.42 3399.36h-70.55L5404.78 2163.24 6482.87 935.57h70.55l1075.27 1227.67zm-476.96 2.82L6519.56 1421l-635 745.06 635 747.88 632.17-747.88z"/><path id="_1" class="fil0" d="M8946.67 3167.94H7854.46V1169.82h341.5v1670.75h750.71z"/><path id="_2" class="fil0" d="m10306.98 1251.66-558.8 1143v767.64h-341.49v-773.29l-558.8-1137.35 330.2-155.22 399.34 914.4 402.17-914.4z"/><path id="_3" class="fil0" d="m12248.66 3145.37-361.25 73.37-248.36-1117.59-333.02 1092.19h-107.24l-324.55-1092.19-254 1117.59-361.25-73.37 524.94-1998.13h104.42l366.88 1151.46 364.07-1151.46h104.42z"/><path id="_4" class="fil0" d="m13798.06 2022.13-982.13 682.97v460.02h-341.49l2.82-2048.92h93.14l1227.66 905.93zm-553.15-8.47-428.98-327.38v637.82l428.98-310.44z"/><path id="_5" class="fil0" d="M15282.54 3167.94h-1272.82V1169.82h341.49v1679.21h589.84V1169.82h341.49z"/><path id="_6" class="fil0" d="m16846.05 2561.17-942.63 668.86-206.02-276.57 623.72-423.34-812.81-770.46 922.88-651.93 208.84 273.75-606.78 412.05z"/></g><g id="Icon"><g id="Laurel"><path id="Background" d="M1198.26 886.19c11.1-2.19 22.91-7.88 33.08-11.25 82.9-27.46 143.05-55.01 219.13-93.54l105.83-71.27c37.86-35.26 33.09-27.85 65.48-67.89l18.86-27.06c11.28-19.11 21.48-35.91 30.22-57.25 46.73-114.01 42.97-191.36 43.47-313.03.15-37.32-16.63-207.48-24.1-245.71-11.27-4.01-199.18 65.24-221.78 74.28-28.01 11.2-100.14 42.78-124.11 57.36-54.01 32.86-49.58 26.45-107.68 71.63-34.34 26.69-61.68 59.05-86.07 95.4-45.34 67.59-73.87 176.53-74.86 257.49-.33 27.27-3.31 65.56-.51 85.96 2.03 14.84 2.4 92.7 5.57 116.87 8.44 64.36 10.04 48.37-16.32 92.02-23.75 39.34-65.37 112.11-86.32 154.2l-41.54 80.9c-4.5 9.01-16.3 36.4-21.01 40.81 19.31-97.78 21.39-212.8-22.71-300.29-26.08-51.75-48.58-80.52-89.84-122.25-40.76-41.24-111.99-90.36-161.42-120.64l-168.66-93.92c-.4-.21-5.72-2.9-5.82-2.93-5.72-2.26-2.78-2.21-4.74-.61-.42.41-.95.55-1.1 1.38l-45.83 134.17c-13.55 49.02-27.3 93.79-37.72 145.94-25.73 128.75-28.42 273.09 49.27 376.03 7.06 9.36 11.89 17.66 19.63 26.29 22.36 24.98 41.33 48.18 68.49 69.27l50.87 40.95c67.87 49.86 107.27 68.12 169.96 105.55 19.85 11.84 39.9 21.26 59.96 31.87l-18.82 62.07c-47.45 142.7-77.12 292.88-93.06 442.65-.96 8.99-3.81 28.26-3.98 37.54-1.65-2.58-.31.38-2.07-4.52l-5.41-20.82c-2.52-8.82-5.14-17.3-7.55-25.25-5.09-16.72-12.37-32.74-19.04-48.75-17.51-42.04-48.09-87.19-80.15-118.81-6.14-6.06-10.95-9.12-17.54-15.26-110.62-103-338.31-130.57-489.6-146.68-20.29-2.15-42.83-4.74-63.29-4.74-1.18 2.1-1.71 5.11-1.94 8.29v81.26c.58 14.21 2.33 13.84 2.16 41.67-.1 16.2 1.69 26.44 2.15 43.76.82 31.54 14.04 137.98 19.17 164.5 13.71 70.83 35 144.26 73.59 201.91 66.3 99.05 162.02 149.12 280.3 178.87 45.09 11.33 71.83 16.31 114.29 23.45 12.58 2.12 26.07 4.81 39.66 6.26 26.34 2.82 55.71 7.09 81.52 10.31l84.65 7.18c0 25.8 24.73 142.82 30.62 166.18l31.94 114.55c3.48 10.44 10.95 28.5 11.79 38.5l-62.08-45.05c-35.19-23.55-70.73-39.26-111.45-52.54-56.03-18.29-130.62-27.08-189.44-27.04-36.07.03-119.16 4.84-154.33 9.65l-142.74 21.24c-13.58 2.3-33.48 7.51-47.25 8.47l28.74 66.32c10.96 21.92 21.71 46.53 33.95 66.63 6.17 10.14 11.18 21.17 16.98 31.13l36 64.58c6.61 11.26 12.41 20.74 18.85 31.43 18.9 31.35 57.23 87.69 81.48 117.5 43.83 53.83 73.41 83.6 126.47 122.79 77.1 56.93 161.13 78.84 260.19 89.65l95.77 2.4c68.35-5.66 111.67-7.32 182.86-18.31 28.65-4.42 59.84-8.24 86.19-14.38 21.82 32.57 47.76 59.87 71.52 88.11l77.17 85.76c-164.68-49.48-327.26 24.87-464.81 109.11l-207.07 145.35c-7.14 5.91-6.01 4.05-3.75 5.86 7.95 15.15 54.68 52.19 68.35 65.94 51.18 51.46 173.08 146.91 227.71 183.38 126.53 84.47 270.2 134.85 424.72 89.76 138.11-40.3 273.09-127.51 387.47-213.82 5.43-4.11 9.34-7.03 14.99-11.25l15.93-12.5c9.06 6.07 19.73 12.5 29.94 18.17l126.76 70.01c11.92 5.94 22.23 11.12 33.53 16.77 11.29 5.65 21.61 10.8 33.52 16.76 9.96 4.98 24.27 13.46 34.25 16.25 14.52 11.58 145.12 62.79 159.62 71.03l-209.17 100.04c-72.95 36.46-178.58 97.84-240.31 144.51l-43.44 33.09c-6.11 4.78-8.89 7.61-14.34 11.89-5.9 4.63-8.13 9.02-15.31 10.93 2.15 9.23 20.24 31.36 26.24 39.36l85.27 115.89 134.64-105.88c6.1-4.38 10.79-8.1 16.22-12.2 104.62-78.73 280.2-184.92 395.76-242.69 14.7-7.36 26.26-13.35 42.4-19.68l147.83 76.42 6.55 4.49c2.35 1.38 4.36 2.39 6.98 3.95l44.28 25.69c20.43 12.36 38.64 23.01 58.5 35.51 9.74 6.13 18.85 11.79 28 17.93 35.18 23.58 76.63 49.11 111.18 74.66l184 141.8c15.41-23.03 108.52-142.41 111.51-155.25-6.5-1.73-32.45-25.45-40.58-31.57-113.4-85.27-194.14-129.85-324.74-195.82l-77.09-36.44c-7.71-3.91-11.41-5.36-19.58-8.85l-60.58-26.87 161.77-72.18c51-22.68 108.91-56.87 155.98-80.16l99.87-57.56 61.24 45.9c21.63 15.19 41.97 29.46 64.7 44.62 145.67 97.11 302.67 187.23 486.92 157.19 132.59-21.62 259.55-115.51 354.08-192.55l88.22-75.76c5.72-4.42 8.58-7.78 13.49-12.76l43.36-39.72c8.58-6.62 22.47-19.51 27.16-28.43 2.5-1.03 4.13 1.27-2.55-4.88-26.57-24.47-174.59-124.73-205.59-144.64l-57.88-33.96c-68.54-34.76-109.5-58.84-193.56-79.74-69.22-17.21-149.41-17.36-216.05 2.92 7.02-14.07 27.2-27.67 38.1-41.78l110.58-132.11c26.11 6.09 55.96 9.51 84.32 14.08 30.54 4.93 57.94 6.84 89.35 11.23 37.03 5.18 101.79 7.31 141.21 7.5 15.57.08 31.77-1.03 47.97-2.31 91.05-7.23 142.61-23.81 213.63-59.68 7.19-3.62 10.4-4.92 16.97-9.27 80.36-53.33 113.53-84.37 177.77-169.89 7.58-10.09 13.91-18.59 21.19-29.09 21.29-30.72 56.86-87.38 76.33-122.64 15.84-28.65 98.14-182.78 102.07-199.67h-3.32c-13.78-.96-33.67-6.17-47.25-8.47-16.41-2.76-29.99-4.95-46.88-7.78-74.91-12.55-121.35-16.81-197.74-20.91l-52.46-2.2c-20.74-.01-33.01 1.98-52.55 2.11-34.07.24-104.7 14.24-138.53 25.47-40.25 13.36-76.78 29.84-111.11 52.88-29.35 19.7-39.12 29.85-61.98 46.36l23.08-74.34c7.22-26.13 14.8-52.83 21.41-79.16 6.71-26.68 12.09-54.52 17.39-81 3.45-17.22 13.67-70.99 13.67-86.92l82.7-6.95c83.65-9.3 155.33-19.81 235.66-39.85 50.85-12.68 92.64-28.61 134.24-49.4 44.2-22.08 73-43.81 106.62-77.06 64.38-63.65 97.1-165.55 114.43-252.9 6.2-31.28 17.58-127.29 19.48-164.19l4.37-133.38v-1.02c-.01-5.93-.03-11.86 0-17.79v-17.84c-.29-2.68-.86-5.14-1.94-7.08-49.16 0-192.59 20.12-239.21 27.8-37.19 6.13-75.36 14-109.47 23.89-119.67 34.75-211.45 79.15-278.18 187.56-15.23 24.74-33.31 65.16-42.21 93.36l-14.16 49.25c-.17.41-.55 1.17-.69 1.5-.15.32-.44 1-.73 1.47l-17.59-146.39-26.09-137.88c-16.27-66.16-31.19-129.83-52.79-194.3l-19.4-63.69c39.66-20.98 78.49-40.96 117.12-64.36 5.5-3.34 8.94-4.98 13.99-7.88 59.28-34.15 96.66-64.73 148.77-104.86l68.35-69.41c155.54-174.14 66.07-451.71-.82-651.88-1.81-5.41-4.2-11.01-5.98-15.89-2.4-6.61-2.99-12.23-7.87-17.17-2.68-2.15-16.57 6.58-20.88 8.75-7.64 3.81-15.33 7.18-23.13 11.85l-67.98 36.98c-52.3 27.88-101.07 61.81-149.85 95.05-7.72 5.26-12.65 9.14-19.92 15.05-6.87 5.56-13 9.83-19.49 15.5-63.64 55.64-120.89 113.61-146.95 202.88-17.75 60.77-23.61 121.97-15.01 187.45l7.21 62.77c-.3-.45-.68-1.72-.79-1.4-1.12 3.13-1.29-2.31-1.54-2.83l-68.9-134.45c-4.38-7.33-6.33-12.69-10.39-20.22-7.03-13.08-14.06-25.28-21.26-37.78-9.39-16.28-65.21-107.99-65.18-115.66l5.66-53.42c2.5-18.86.9-38.93 3.71-57.51 2.75-18.24-.54-38.84 2.18-56.85 2.57-16.96-2.11-93.32-3.14-114.58-2.03-41.52-17.85-113.14-32.11-149.37-45.16-114.82-113.13-174.78-214.49-235.93l-79.79-40.47c-50.95-21.79-95.24-41.89-149.96-59.95C2894.43 36 2782.7-3.68 2774.73-.79c-6.3 32.14-10.45 83.57-14.7 117.34-8.33 66.31-9.3 143.86-9.35 215.86-.04 58.02 8.41 109.75 20.12 157 5.98 24.19 12.97 44.84 22.33 67.31 9.04 21.71 19.75 39.09 31.19 58.46 14.73 24.96 48.77 64.08 70.14 82.91 30.81 27.14 84.06 65.11 120.03 83.31l58.36 29.11c61.02 30.82 117.25 46.72 175.43 69.45 7.06 2.76 10.06 4.62 18.42 6.17l35.94 59.74c12.9 21.33 23.34 40.97 35.51 62.87l33.93 62.28c5.96 9.8 30.15 56.52 32.37 66.02-6.4-4.27-24.15-27.43-31.11-34.48a5338.508 5338.508 0 0 0-32.8-32.8c-16.24-16.05-55.75-45.02-74.73-56.46-7.45-4.47-14.21-7.71-21.06-11.72-45.94-26.94-130.75-44.04-185.77-43.83-86.17.32-160.76 13.84-230.91 31.47-62.16 15.63-117.72 31.53-178.25 51.34-8.49 2.78-19.76 3.4-18.47 11.21l31.84 59.07c2.92 5.65 4.87 7.84 8.05 13.82l76.82 128.71c27.63 41.42 45.01 65.92 76.64 104.84 3.81 4.69 6.3 6.34 10.33 11.53 4.82 6.22 5.89 7.39 11.3 12.75 15.9 15.72 29.44 31.08 46.8 45.04l25.29 20.62c96.82 72.69 202.93 90.3 326.8 76.3 91.64-10.35 174.14-32.17 261.21-58.02 9.7-2.89 27.12-9.39 35.09-10.15l50.19 166.94c16.74 57.38 55.44 244.8 55.44 305.34-5.05-5.8-24.86-70.25-52.45-111.53-4.4-6.59-8.78-13.08-13.14-19.66l-28.94-36.66c-23.17-23.42-42.02-42.43-69.87-61.32-28.01-19-53.31-32.73-86.44-46.93-63.95-27.42-127.68-42.98-204.87-57.51-38.19-7.19-73.92-11.63-114.03-17.18-20.52-2.83-38.08-3.64-59.05-6.53-20.1-2.77-42.18-5.64-63.07-5.64-4.37 11.91 9.26 146.94 11.46 166.58 11.39 101.32 28.17 206.31 67.53 297.6 14.46 33.51 29.36 59.14 50.01 87.74 6.69 9.27 12.36 17.98 20.01 25.91l20.75 22.99c22.17 20.72 53.08 43.68 78.64 59.1 75.98 45.88 183.85 74.93 275.1 90.05 17.6 2.92 144.8 22.78 161.8 21.42 0 12.61-4.33 30.71-6.25 42.31-2.47 15.14-5.11 26.96-8.15 42.13-15.98 79.95-38.65 159.18-67.43 234.31-9.61 25.07-18.59 47.32-29.05 71.52-21.27 49.26-42.07 87.44-66.96 134.21-3.13 5.9-5.39 9.17-8.96 15.08-3.79 6.26-5.94 10.68-9.55 16.69-4.7 7.85-14.22 25.86-20.11 30.18 2.78-33.42 33.5-137.28 32.83-209.87-.16-16.77 2.25-23.75 2.25-39.39 0-15.32-2.1-22.85-2.21-39.43-.28-39.41-14.79-96.45-30.05-131.76-18.28-42.34-45.91-77.26-74.67-108.99-13.64-15.04-64.31-54.05-78.59-63.53l-49.79-31.12c-70.12-41.46-177.27-85.72-254.9-114.62-9.54-3.54-21.94-7.26-30.28-11.26l-2.19 5-30.63 106.49c-41.33 156.25-87.32 358.54-24.66 503.56 14.91 34.54 46.07 81.2 73.32 108.15 74.15 73.38 186.63 131.6 284.05 170.75 21.8 8.76 43.41 18.9 65.26 25.98l-91.29 103.9c-16.55 16.49-29.07 34.02-47.1 49.11l-25.05 23.04c-4.53 4.54-7.47 7.6-11.99 12.08l-64.77 57.67c-47.73 38.33-115.19 94.32-166.5 128.68 5.38-20.12 140.77-189.8 107.76-363.56-18.73-98.54-69.38-163.8-126.5-236.47-4.06-5.17-5.08-6.01-9-10.68l-28.52-32.7c-8.34-8.29-12.6-12.42-19.94-21.61-21.68-27.19-94.57-90.31-123.29-119.41-7.57-7.66-13.29-10.86-20.8-18.55-5.95-6.09-16.27-15.48-23.49-19.14-.94-2.79 1.66-6.25-8.6 7.69-3.65 4.98-5.78 7.82-9.37 12.61-7.06 9.41-12.61 16.83-19.68 26.23-7.08 9.44-12.18 17.06-19.36 26.56l-73.8 109.86c-70.77 118.81-126.27 241.81-78.29 385.82 27.22 81.69 87.21 158.72 144.06 223.27 7.73 8.77 15.34 14.28 22.39 23.52 19.48 25.52 67.74 66.5 92.39 91.29l23.5 22.63c-4.31 5.49-19.34 12.46-26.66 16.85-39.99 24.05-106.64 58.14-148.25 79.15-89.57 45.22-192.47 85.69-285.81 123.06-11.04 4.42-22.57 10.14-34.06 12.49l-43.76-16.84c-15.41-6.01-28.32-11.36-43.68-17.53-15.68-6.29-28.24-11.3-43.75-17.48-13.73-5.46-31.8-14.81-44.97-18.12-50.29-24.48-109.67-49.29-162.85-75.8l-116.67-62.62c-8.82-4.94-33.24-17.3-37.85-23.15 8.63-6.35 14.73-13.8 22.41-21.55 8.64-8.71 15.56-13.24 24.07-21.86 15.74-15.92 30.07-30.09 45.9-45.92l86.92-96.75c24.41-31.26 55.66-71.85 73.64-107.84 22.82-45.69 36.96-77.44 45.75-137.92 8.14-56.06-6.68-121.27-19.63-160.12-4.28-12.83-7.91-21.53-12.61-33.29l-29.37-62.47c-17.03-28.42-27.86-52.74-49.9-85.66l-109.22-153.56c-7.46-8.17-3.89-3.8-4.73-2.55-6.66 3.39-16.87 12.36-22.39 18.02-7.66 7.83-13.34 11.06-20.8 18.57-8.15 8.19-11.74 11.28-20.65 18.72l-102.48 100.85c-9.01 11.67-53.6 58.69-75.55 86.25-49.84 62.56-92.09 131.95-108.9 212.51-18.76 89.81 9.28 185.14 47.96 262.25 16.29 32.48 39.16 73.07 59.03 102.77-8.49-2.27-47.37-32.27-56.84-39.36-18.85-14.13-36.63-27.9-55.35-43.04l-78.56-65.75c-5.49-5.47-7.71-6.17-13.12-10.94-19.44-17.13-45.11-44.81-63.2-59.24-22.41-17.87-69.56-73.87-94.22-100.38l-45.39-53.45c20.7-7.49 42.94-16.08 64.02-25.17 63.8-27.53 93.22-41.46 153.19-74.21 10.73-5.86 18.53-10.6 28.95-16.97 35.86-21.98 73.08-50.76 102.05-79.43 4.74-4.69 6.57-6.52 10.38-11.49 9.57-12.51 16.47-17.34 30.19-37.58 75.05-110.67 74.24-237.61 51.03-378.18-10.56-64.06-26.08-124.18-41.4-183.81l-31.08-108.25-2.28-4.93c-8.67 4.16-19.41 7.31-28.61 10.61-10.25 3.68-19.91 7.45-30.02 11.52-18.7 7.51-38.76 14.41-57.91 22.99-9.72 4.36-18.73 7.67-27.73 11.62-55.15 24.18-113.56 50.86-164.37 82.72-20.79 13.04-87.39 60.6-103.62 80.03-33.42 40.01-49.2 50.49-75.21 108.46-21.96 48.92-32.83 115.57-32.89 170.49-.02 16.57 2.43 23.94 2.27 39.37-.45 46.74 16.29 131.37 26.01 179.52 2.18 10.8 6.52 23.49 6.77 34.78l-104.91-196.82c-10.53-23.4-19.36-46.59-29.1-71.48-31.49-80.44-61.99-191.78-75.91-276.12-2.07-12.55-6.54-31.18-6.54-44.1 19.89 1.24 139.77-17.86 159.91-21.21 64.58-10.73 89.35-18.37 148.85-34.83l65.76-23.87c38.31-16.67 95.83-48.1 126.72-78.82 9.79-9.74 12.35-7.74 23.52-22.4 9.65-12.66 13.69-13.03 30.63-37.15 80.56-114.72 102.04-246.03 118.24-384.66 2.39-20.54 16.03-155.58 11.81-168.55l-61.69 4.97c-163.83 20.29-375.47 44.66-501.84 156.31-17.97 15.87-32.61 32.75-48.07 50.32-5.15 5.86-9.41 12.02-13.95 18.85-33.36 50.25-39.29 63.93-60.78 120.7l-5.67 11.81c0-56.33 29.81-194.46 41-247.61 13.37-63.55 30.93-111.66 46.91-169.55 4.81-17.38 13.78-36.73 17.72-55.12l68.81 20.15c162.68 45.68 339.68 86.24 496.83 8.29 54.94-27.25 86.92-59.85 127.35-100.05 8.19-8.14 14.16-15.49 21.83-24.09 31.94-35.83 68.36-92.33 94.81-132.59 30.89-47.02 49.38-85.52 75.32-130.2l25.29-46.02c1.14-8.12-28.47-14.76-43.14-19.42l-101.27-29.91c-129.05-32.27-312.3-76.01-446.55-11.16-43.72 21.12-60.28 29.24-100.63 63.35-35.86 30.3-39.71 39.27-65.74 65.46-5.99 6.02-9.05 12.41-15.84 16.95 2.28-9.79 39.74-81.54 48.2-96.11 5.85-10.05 12.5-21.06 18.13-32.15 5.33-10.5 11.24-21.1 17.18-30.93l54.24-91.66zM765.33 2661.04c.1 0 .31.15.62.41l-.62-.41zm2781.24-1539.29 2.82 4.36c-3.61-1.69-2.82 3.17-2.82-4.36z" style="fill:#ffcd37"/><path id="Foreground" d="m498.58 3569.7 1162.34 77.91c-27.04-30.94-65.33-60.21-91.99-86.85-4.9-4.89-9.07-7.26-14.36-11.96-9.75-8.66-16.26-15.56-26.42-23.78-91.43-74-162.01-137-277.5-188.28-25.68-11.4-50.27-18.05-76.44-27.36-164.68-49.48-327.26 24.87-464.81 109.11l-207.07 145.35c-7.14 5.91-6.01 4.05-3.75 5.86zm1397.17 239.47c14.52 11.58 145.12 62.79 159.62 71.03 8.61-1.39 173.28-70.41 176.48-73.43l-43.76-16.84c-15.41-6.01-28.32-11.36-43.68-17.53-15.68-6.29-28.24-11.3-43.75-17.48-13.73-5.46-31.8-14.81-44.97-18.12-8.7 6.86-64.96 29.25-80.31 35.86-24.98 10.75-57.78 24.32-79.63 36.51zm337.58 146.29 147.83 76.42c24.1-7.02 175.43-68.98 185.68-78.61l-77.09-36.44c-7.71-3.91-11.41-5.36-19.58-8.85l-60.58-26.87c-15.58 1.11-167.66 65.87-176.26 74.35zm1313.24-2833.71 2.82 4.36c11.34 78 51.06 200.7 78.72 281.42 1.17 3.43 2.22 7.02 3.27 9.81l4.83 9.37 366.36-941.24c-2.68-2.15-16.57 6.58-20.88 8.75-7.64 3.81-15.33 7.18-23.13 11.85l-67.98 36.98c-52.3 27.88-101.07 61.81-149.85 95.05-7.72 5.26-12.65 9.14-19.92 15.05-6.87 5.56-13 9.83-19.49 15.5-63.64 55.64-120.89 113.61-146.95 202.88-17.75 60.77-23.61 121.97-15.01 187.45l7.21 62.77zm-2630.97 4.36c19.31-97.78 21.39-212.8-22.71-300.29-26.08-51.75-48.58-80.52-89.84-122.25-40.76-41.24-111.99-90.36-161.42-120.64l-168.66-93.92c-.4-.21-5.72-2.9-5.82-2.93-5.72-2.26-2.78-2.21-4.74-.61l365.39 941.62 14.64-35.81c26.85-80.21 59.71-184.1 73.16-265.17zm822.72 2449.12c8.63-6.35 14.73-13.8 22.41-21.55 8.64-8.71 15.56-13.24 24.07-21.86 15.74-15.92 30.07-30.09 45.9-45.92l86.92-96.75c24.41-31.26 55.66-71.85 73.64-107.84 22.82-45.69 36.96-77.44 45.75-137.92 8.14-56.06-6.68-121.27-19.63-160.12-4.28-12.83-7.91-21.53-12.61-33.29l-29.37-62.47c-17.03-28.42-27.86-52.74-49.9-85.66l-109.22-153.56c-7.46-8.17-3.89-3.8-4.73-2.55l-127.13 974.69 39.78-33.33c6.16-6.61 6.71-8.18 14.12-11.87zm988.31-.01c10.34 4.97 38.06 37.01 53.51 45.15l-126.75-974.63c-.94-2.79 1.66-6.25-8.6 7.69-3.65 4.98-5.78 7.82-9.37 12.61-7.06 9.41-12.61 16.83-19.68 26.23-7.08 9.44-12.18 17.06-19.36 26.56l-73.8 109.86c-70.77 118.81-126.27 241.81-78.29 385.82 27.22 81.69 87.21 158.72 144.06 223.27 7.73 8.77 15.34 14.28 22.39 23.52 19.48 25.52 67.74 66.5 92.39 91.29l23.5 22.63zM923.44 1456.28l68.81 20.15c162.68 45.68 339.68 86.24 496.83 8.29 54.94-27.25 86.92-59.85 127.35-100.05 8.19-8.14 14.16-15.49 21.83-24.09 31.94-35.83 68.36-92.33 94.81-132.59 30.89-47.02 49.38-85.52 75.32-130.2l25.29-46.02c-2.82-1.31-1.2-1.56-6.6-.89-.32.04-7.85 2.72-8.04 2.79l-702.32 288.27c-28.67 11.88-229.5 91.81-238.12 98.99 14.19 3.59 33.92 8.02 44.84 15.35zm2618.08 0c10.94-7.59 30.64-11.31 44.82-15.31-7.78-7.15-454.17-187.71-476.79-197.07l-469.92-192.81c-.72-.16-2.85-2.01-8.28.68l31.84 59.07c2.92 5.65 4.87 7.84 8.05 13.82l76.82 128.71c27.63 41.42 45.01 65.92 76.64 104.84 3.81 4.69 6.3 6.34 10.33 11.53 4.82 6.22 5.89 7.39 11.3 12.75 15.9 15.72 29.44 31.08 46.8 45.04l25.29 20.62c96.82 72.69 202.93 90.3 326.8 76.3 91.64-10.35 174.14-32.17 261.21-58.02 9.7-2.89 27.12-9.39 35.09-10.15zM58.04 2575.77c2.83 5.99-1.67 2.17 14.47 10.71l109.08 59.21c40.87 23.4 84.57 46.28 126.29 68.34 42.81 22.65 84.01 47.06 126.22 68.37 43.2 21.8 82.67 46.28 126.15 68.42 42.15 21.47 84.78 45.51 126.04 68.5 80.31 44.73 173.97 91.85 252.7 136.59l124.99 67.64c-8.08-30.04-114.49-220.8-130.26-246.06-46.81-74.93-82.83-128.89-143.3-189.07-8.78-8.75-14.97-13.69-23.85-25.19l-1.24-2.19-62.08-45.05c-35.19-23.55-70.73-39.26-111.45-52.54-56.03-18.29-130.62-27.08-189.44-27.04-36.07.03-119.16 4.84-154.33 9.65l-142.74 21.24c-13.58 2.3-33.48 7.51-47.25 8.47zm3640.38 87.46-34.63 36.35c-82.26 81.99-144.05 194.7-200.48 297.96-9.49 17.37-58.82 112.86-62.33 126.01 17.13-10.42 43.03-23.49 61.41-32.88 20.9-10.67 42.35-22.49 62.3-33.88 41.27-23.56 84.6-44.83 126.37-68.28 41.75-23.43 84.51-46.88 126.16-68.42 42.85-22.16 82.79-46.83 126.1-68.46 42.27-21.12 84.53-45.67 126.09-68.46 41.5-22.77 84.93-44.54 126.33-68.31l235.39-127.55c13.42-7.43 11.75-4.27 15.79-11.54-13.78-.96-33.67-6.17-47.25-8.47-16.41-2.76-29.99-4.95-46.88-7.78-74.91-12.55-121.35-16.81-197.74-20.91l-52.46-2.2c-20.74-.01-33.01 1.98-52.55 2.11-34.07.24-104.7 14.24-138.53 25.47-40.25 13.36-76.78 29.84-111.11 52.88-29.35 19.7-39.12 29.85-61.98 46.36zM1198.26 886.19c11.1-2.19 22.91-7.88 33.08-11.25 82.9-27.46 143.05-55.01 219.13-93.54l105.83-71.27c37.86-35.26 33.09-27.85 65.48-67.89l18.86-27.06c11.28-19.11 21.48-35.91 30.22-57.25 46.73-114.01 42.97-191.36 43.47-313.03.15-37.32-16.63-207.48-24.1-245.71l-9.88 12.86c-3.13 4.83-5.48 9.06-9.2 14.88l-91.36 142.55c-48.83 73.88-97.61 155.46-146.5 229.63-13 19.71-23.68 38.09-36.67 57.32-13.08 19.36-23.94 38.31-36.71 57.29l-109.88 172.25c-24.2 38.54-48.04 75.53-73.48 114.46-9.54 14.59-69.51 106.83-71.98 114.9l93.69-29.14zm-37.17 2207.33c20.7-7.49 42.94-16.08 64.02-25.17 63.8-27.53 93.22-41.46 153.19-74.21 10.73-5.86 18.53-10.6 28.95-16.97 35.86-21.98 73.08-50.76 102.05-79.43 4.74-4.69 6.57-6.52 10.38-11.49 9.57-12.51 16.47-17.34 30.19-37.58 75.05-110.67 74.24-237.61 51.03-378.18-10.56-64.06-26.08-124.18-41.4-183.81l-31.08-108.25c-6.08-2.86-7.11 7.21-14.9 23.79L1420 2408.36c-35.49 79.42-72.46 156.31-107.39 235.82-34.6 78.76-70.52 157.58-107.33 235.93-36.55 77.79-70.56 157.76-106.61 235.13l62.42-21.72zm1775.44-915.07-30.63 106.49c-41.33 156.25-87.32 358.54-24.66 503.56 14.91 34.54 46.07 81.2 73.32 108.15 74.15 73.38 186.63 131.6 284.05 170.75 21.8 8.76 43.41 18.9 65.26 25.98l62.1 22.73c-35.53-77.52-70.17-157.28-105.6-234.52l-308.24-677.88c-2.35-5.14-4.72-9.85-6.88-14.94-3.19-7.55-2.85-11.63-8.72-10.32zM3266.7 886.13l93.59 29.45c-2.45-9.11-27.81-45.73-34.42-56.39-70.39-113.6-149.76-230.11-219.91-344.21l-110.09-171.9c-48.05-73.88-98.35-157.38-146.5-229.64L2778.24 2.95c-2.17-2.62-1.39-1.9-3.51-3.74-6.3 32.14-10.45 83.57-14.7 117.34-8.33 66.31-9.3 143.86-9.35 215.86-.04 58.02 8.41 109.75 20.12 157 5.98 24.19 12.97 44.84 22.33 67.31 9.04 21.71 19.75 39.09 31.19 58.46 14.73 24.96 48.77 64.08 70.14 82.91 30.81 27.14 84.06 65.11 120.03 83.31l58.36 29.11c61.02 30.82 117.25 46.72 175.43 69.45 7.06 2.76 10.06 4.62 18.42 6.17zM824.37 2337.09c19.89 1.24 139.77-17.86 159.91-21.21 64.58-10.73 89.35-18.37 148.85-34.83l65.76-23.87c38.31-16.67 95.83-48.1 126.72-78.82 9.79-9.74 12.35-7.74 23.52-22.4 9.65-12.66 13.69-13.03 30.63-37.15 80.56-114.72 102.04-246.03 118.24-384.66 2.39-20.54 16.03-155.58 11.81-168.55-4.48 8.13-4.15 5.48-11.16 11.76l-269.04 279.8c-15.17 16.42-31.16 31.16-46.38 47.61-8.23 8.89-14.91 16.07-23.17 24.97-7.99 8.6-16.39 15.18-24.29 23.78-46.01 50.13-95.04 97.56-139.17 145.08l-35.88 36.26c-4.43 4.4-7.28 7.88-11.56 12.5l-46.38 47.63c-16.06 15.24-30.84 33.46-46.4 49.87l-70.58 71.49c-7.36 6.67-18.51 17.65-22.78 26.2l61.35-5.46zm2816.22-.1 61.39 5.8c-4.18-8.54-58.82-63.21-69.06-74.23l-24.29-23.76c-15.5-16.41-29.43-33.08-45.31-48.77l-141.28-145.11c-30.59-32.87-62.22-64.61-92.8-97.47-7.68-8.25-15.55-14.31-23.2-22.66l-92.78-97.49c-7.93-8.59-16.28-15.17-24.25-23.82-13.82-15-31.84-36.75-46.94-49.27-14.9-12.34-32.26-33.45-45.88-48.18l-140.9-146.43c-4.37 11.91 9.26 146.94 11.46 166.58 11.39 101.32 28.17 206.31 67.53 297.6 14.46 33.51 29.36 59.14 50.01 87.74 6.69 9.27 12.36 17.98 20.01 25.91l20.75 22.99c22.17 20.72 53.08 43.68 78.64 59.1 75.98 45.88 183.85 74.93 275.1 90.05 17.6 2.92 144.8 22.78 161.8 21.42zM680.08 1959.18c-1.65-2.58-.31.38-2.07-4.52l-5.41-20.82c-2.52-8.82-5.14-17.3-7.55-25.25-5.09-16.72-12.37-32.74-19.04-48.75-17.51-42.04-48.09-87.19-80.15-118.81-6.14-6.06-10.95-9.12-17.54-15.26-110.62-103-338.31-130.57-489.6-146.68-20.29-2.15-42.83-4.74-63.29-4.74 3.51 7.24 3.58 6.22 10.13 11.98 4.67 4.1 7.31 7.46 11.64 12.4l66.46 71.3c25.55 29.08 67.49 69.82 90.04 95.79l536.33 573.25c3.61-33.46-2.83-158.94-5.64-198.41-2.23-31.28-5.4-62.81-9.73-93.49-3.52-25-14.16-66.16-14.58-87.99zm3104.8 0c-.5 21.71-11.08 63.03-14.59 87.8-8.32 58.66-21.07 239.73-15.36 292.09 6.83-7.75 14.77-14.61 21.93-22.79l156.53-167.05c14.33-16.52 29.57-31.55 43.92-47.99l45.04-46.7c7.88-8.3 13.54-16.25 21.46-24.56l32.86-34.91c5.38-5.2 7.46-6.35 12.17-11.78 7.76-8.96 14.17-17.67 22.82-25.34 9.62-8.55 14.29-14.75 22.16-23.77l133.09-142.43c28.83-27.86 93.53-99.31 123.59-132.24 4.19-4.57 8.01-7.13 12.33-11.63l66.7-73.53c-49.16 0-192.59 20.12-239.21 27.8-37.19 6.13-75.36 14-109.47 23.89-119.67 34.75-211.45 79.15-278.18 187.56-15.23 24.74-33.31 65.16-42.21 93.36l-14.16 49.25c-.17.41-.55 1.17-.69 1.5-.15.32-.44 1-.73 1.47zM3290.75 3309.4c-27.38 10.33-38.69 11.3-74.84 26.74-106.12 45.33-235.13 146.14-317.63 222.52-5.68 5.26-8.1 8.02-13.61 12.56l-80.69 75.59 1162.4-77.11c2.5-1.03 4.13 1.27-2.55-4.88-26.57-24.47-174.59-124.73-205.59-144.64l-57.88-33.96c-68.54-34.76-109.5-58.84-193.56-79.74-69.22-17.21-149.41-17.36-216.05 2.92z" style="fill:#ff9a00"/></g></g></svg>