<?xml version="1.0" encoding="UTF-8"?>
<!DOCTYPE svg PUBLIC "-//W3C//DTD SVG 1.1//EN" "http://www.w3.org/Graphics/SVG/1.1/DTD/svg11.dtd">
<!-- Creator: CorelDRAW -->
<svg xmlns="http://www.w3.org/2000/svg" xml:space="preserve" width="64px" height="64px" version="1.1" style="shape-rendering:geometricPrecision; text-rendering:geometricPrecision; image-rendering:optimizeQuality; fill-rule:evenodd; clip-rule:evenodd"
viewBox="0 0 64 64"
 xmlns:xlink="http://www.w3.org/1999/xlink"
 xmlns:xodm="http://www.corel.com/coreldraw/odm/2003">
 <defs>
  <style type="text/css">
   <![CDATA[
    .fil0 {fill:none}
    .fil3 {fill:#FF8300}
    .fil2 {fill:#FF9A00}
    .fil1 {fill:#FFCD37}
   ]]>
  </style>
 </defs>
 <g id="Camada_x0020_1">
  <metadata id="CorelCorpID_0Corel-Layer"/>
  <polygon id="Area" class="fil0" points="0,0 64,0 64,64 0,64 "/>
  <g id="_2263526024496">
   <path class="fil1" d="M46.78 13.69l0.51 0.85c0.19,0.31 0.34,0.59 0.51,0.9l0.49 0.89c0.08,0.14 0.43,0.81 0.46,0.94 -0.09,-0.06 -0.35,-0.39 -0.44,-0.49 -0.17,-0.16 -0.31,-0.31 -0.47,-0.47 -0.24,-0.23 -0.8,-0.64 -1.07,-0.81 -0.11,-0.06 -0.2,-0.11 -0.3,-0.16 -0.66,-0.39 -1.87,-0.63 -2.66,-0.63 -1.23,0.01 -2.3,0.2 -3.3,0.45 -0.89,0.22 -1.68,0.45 -2.55,0.73 -0.12,0.04 -0.28,0.05 -0.26,0.16 0.08,-0.03 0.11,-0.01 0.12,-0.01l6.72 2.76c0.32,0.13 6.7,2.71 6.81,2.82 -0.2,0.05 -0.48,0.11 -0.64,0.22l0.72 2.38c0.24,0.82 0.79,3.5 0.79,4.37 -0.07,-0.09 -0.36,-1.01 -0.75,-1.6 -0.06,-0.09 -0.13,-0.19 -0.19,-0.28l-0.41 -0.52c-0.33,-0.34 -0.6,-0.61 -1,-0.88 -0.4,-0.27 -0.76,-0.47 -1.24,-0.67 -0.91,-0.39 -1.82,-0.61 -2.92,-0.82 -0.55,-0.11 -1.06,-0.17 -1.63,-0.25 -0.3,-0.04 -0.55,-0.05 -0.85,-0.09 -0.29,-0.04 -0.6,-0.08 -0.9,-0.08l2.01 2.09c0.2,0.21 0.45,0.51 0.66,0.69 0.22,0.18 0.47,0.49 0.67,0.7 0.11,0.13 0.23,0.22 0.35,0.34l1.32 1.4c0.11,0.12 0.23,0.2 0.34,0.32 0.43,0.47 0.88,0.92 1.32,1.39l2.02 2.08c0.23,0.22 0.43,0.46 0.65,0.7l0.35 0.33c0.14,0.16 0.92,0.94 0.98,1.07l-0.88 -0.09c0,0.18 -0.06,0.44 -0.08,0.61 -0.04,0.21 -0.08,0.38 -0.12,0.6 -0.23,1.14 -0.55,2.27 -0.96,3.35 -0.14,0.36 -0.27,0.67 -0.42,1.02 -0.3,0.7 -0.6,1.25 -0.96,1.92 -0.04,0.08 -0.07,0.13 -0.12,0.21 -0.06,0.09 -0.09,0.16 -0.14,0.24 -0.07,0.11 -0.2,0.37 -0.29,0.43 0.04,-0.47 0.48,-1.96 0.47,-3 0,-0.24 0.03,-0.33 0.03,-0.56 0,-0.22 -0.03,-0.32 -0.03,-0.56 0,-0.57 -0.21,-1.38 -0.43,-1.88 -0.26,-0.61 -0.65,-1.11 -1.07,-1.56 -0.19,-0.22 -0.91,-0.78 -1.12,-0.91l-0.71 -0.45c-1,-0.59 -2.53,-1.22 -3.64,-1.63 -0.14,-0.05 -0.32,-0.11 -0.44,-0.16l-0.03 0.07c0.09,-0.02 0.08,0.04 0.13,0.14 0.03,0.08 0.06,0.14 0.1,0.22l4.4 9.69c0.51,1.1 1,2.24 1.51,3.35l-0.89 -0.33 -1.3 1.49c-0.24,0.23 -0.42,0.48 -0.68,0.7l-0.35 0.33c-0.07,0.06 -0.11,0.11 -0.17,0.17l-0.93 0.83c-0.68,0.54 -1.65,1.34 -2.38,1.84 0.08,-0.29 2.01,-2.72 1.54,-5.2 -0.27,-1.41 -0.99,-2.34 -1.81,-3.38 -0.06,-0.07 -0.07,-0.09 -0.13,-0.15l-0.4 -0.47c-0.12,-0.12 -0.18,-0.18 -0.29,-0.31 -0.31,-0.39 -1.35,-1.29 -1.76,-1.71 -0.11,-0.11 -0.19,-0.15 -0.3,-0.26 -0.08,-0.09 -0.23,-0.22 -0.33,-0.27l1.81 13.93c-0.22,-0.12 -0.62,-0.58 -0.77,-0.65 -0.06,0.08 -0.27,0.18 -0.38,0.24 -0.57,0.34 -1.52,0.83 -2.12,1.13 -1.28,0.65 -2.75,1.23 -4.08,1.76 -0.16,0.06 -0.32,0.15 -0.49,0.18 -0.04,0.04 -2.4,1.03 -2.52,1.05l-2.99 1.43c-1.04,0.52 -2.55,1.4 -3.44,2.06l-0.62 0.48c-0.08,0.07 -0.12,0.11 -0.2,0.17 -0.09,0.06 -0.12,0.13 -0.22,0.15 0.03,0.13 0.29,0.45 0.38,0.57l1.21 1.65 1.93 -1.51c0.09,-0.06 0.15,-0.12 0.23,-0.18 1.5,-1.12 4,-2.64 5.66,-3.46 0.21,-0.11 0.37,-0.2 0.6,-0.29 0.13,-0.12 2.3,-1.04 2.52,-1.06l2.31 -1.03c0.73,-0.32 1.56,-0.81 2.23,-1.15l1.43 -0.82 0.88 0.66c0.3,0.21 0.6,0.42 0.92,0.64 2.08,1.38 4.33,2.67 6.96,2.24 1.89,-0.31 3.71,-1.65 5.06,-2.75l1.26 -1.08c0.08,-0.07 0.12,-0.11 0.19,-0.19l0.62 -0.56c0.13,-0.1 0.32,-0.28 0.39,-0.41l-16.61 1.1 1.15 -1.08c0.08,-0.06 0.11,-0.1 0.2,-0.18 1.17,-1.09 3.02,-2.53 4.54,-3.18 0.51,-0.22 0.67,-0.23 1.06,-0.38 0.11,-0.2 0.39,-0.39 0.55,-0.6l1.58 -1.88c0.37,0.08 0.8,0.13 1.2,0.2 0.44,0.07 0.83,0.09 1.28,0.16 0.53,0.07 1.46,0.1 2.02,0.1 0.22,0.01 0.45,-0.01 0.69,-0.03 1.3,-0.1 2.03,-0.34 3.05,-0.85 0.1,-0.05 0.15,-0.07 0.24,-0.13 1.15,-0.77 1.62,-1.21 2.54,-2.43 0.11,-0.15 0.2,-0.27 0.31,-0.42 0.3,-0.44 0.81,-1.25 1.09,-1.75 0.22,-0.41 1.4,-2.61 1.45,-2.85l-0.04 0c-0.06,0.1 -0.04,0.05 -0.23,0.16l-3.36 1.82c-0.59,0.34 -1.21,0.65 -1.81,0.98 -0.59,0.33 -1.2,0.68 -1.8,0.98 -0.62,0.31 -1.19,0.66 -1.8,0.98 -0.6,0.3 -1.21,0.64 -1.81,0.97 -0.59,0.34 -1.21,0.64 -1.8,0.98 -0.29,0.16 -0.59,0.33 -0.89,0.48 -0.26,0.14 -0.63,0.33 -0.88,0.47 0.05,-0.18 0.76,-1.55 0.89,-1.8 0.81,-1.47 1.69,-3.08 2.87,-4.26l0.49 -0.51 0.33 -1.07c0.1,-0.37 0.21,-0.75 0.31,-1.13 0.09,-0.38 0.17,-0.78 0.25,-1.16 0.05,-0.24 0.19,-1.01 0.19,-1.24l1.18 -0.1c1.2,-0.13 2.22,-0.28 3.37,-0.57 0.73,-0.18 1.33,-0.41 1.92,-0.7 0.63,-0.32 1.04,-0.63 1.52,-1.1 0.92,-0.91 1.39,-2.37 1.64,-3.62 0.09,-0.45 0.25,-1.82 0.28,-2.35l0.06 -1.9 0 -0.01 0 0 0 -0.01c0,-0.08 0,-0.17 0,-0.25l0 -0.26c0,-0.03 -0.01,-0.07 -0.03,-0.1l-0.95 1.05c-0.06,0.07 -0.12,0.1 -0.18,0.17 -0.43,0.47 -1.35,1.49 -1.76,1.89l-1.91 2.04c-0.11,0.12 -0.18,0.21 -0.31,0.34 -0.13,0.11 -0.22,0.23 -0.33,0.36 -0.07,0.08 -0.1,0.09 -0.17,0.17l-0.47 0.5c-0.12,0.11 -0.2,0.23 -0.31,0.35l-0.64 0.66c-0.21,0.24 -0.43,0.45 -0.63,0.69l-2.24 2.39c-0.1,0.11 -0.21,0.21 -0.31,0.32 -0.08,-0.75 0.1,-3.33 0.22,-4.17 0.05,-0.36 0.2,-0.95 0.21,-1.26l-0.25 -2.09 -0.38 -1.97c-0.23,-0.95 -0.44,-1.86 -0.75,-2.78l-0.28 -0.91c0.57,-0.3 1.12,-0.58 1.67,-0.92 0.08,-0.04 0.13,-0.07 0.2,-0.11 0.85,-0.49 1.39,-0.92 2.13,-1.5l0.98 -0.99c2.22,-2.49 0.94,-6.46 -0.01,-9.32 -0.03,-0.07 -0.06,-0.15 -0.09,-0.22 -0.03,-0.1 -0.04,-0.18 -0.11,-0.25l-5.24 13.45 -0.07 -0.13c-0.01,-0.04 -0.03,-0.09 -0.04,-0.14 -0.4,-1.15 -0.97,-2.91 -1.13,-4.02 -0.05,-0.03 -0.04,0.04 -0.04,-0.07 0,0 -0.01,-0.02 -0.01,-0.02 -0.02,0.05 -0.02,-0.03 -0.02,-0.04l-0.99 -1.92c-0.06,-0.1 -0.09,-0.18 -0.15,-0.29 -0.1,-0.18 -0.2,-0.36 -0.3,-0.54 -0.13,-0.23 -0.93,-1.54 -0.93,-1.65l0.08 -0.76c0.04,-0.27 0.01,-0.56 0.05,-0.82 0.04,-0.27 0,-0.56 0.03,-0.82 0.04,-0.24 -0.03,-1.33 -0.04,-1.64 -0.03,-0.59 -0.26,-1.61 -0.46,-2.13 -0.64,-1.64 -1.62,-2.5 -3.07,-3.37l-1.14 -0.58c-0.72,-0.31 -1.36,-0.6 -2.14,-0.86 -0.23,-0.07 -1.83,-0.64 -1.94,-0.6 0.03,0.03 0.02,0.02 0.05,0.05l1.02 1.58c0.68,1.04 1.4,2.23 2.09,3.29l1.57 2.45c1.01,1.63 2.14,3.3 3.15,4.92 0.09,0.15 0.45,0.68 0.49,0.81l-1.34 -0.42z"/>
   <path class="fil1" d="M13.18 17.12c-0.19,1.16 -0.66,2.64 -1.05,3.79l-0.21 0.51 -5.22 -13.46c0,0.01 -0.01,0.01 -0.01,0.02l-0.66 1.92c-0.19,0.7 -0.39,1.34 -0.54,2.08 -0.37,1.84 -0.4,3.91 0.71,5.38 0.1,0.13 0.17,0.25 0.28,0.37 0.32,0.36 0.59,0.69 0.98,0.99l0.72 0.59c0.97,0.71 1.54,0.97 2.43,1.51 0.29,0.17 0.57,0.3 0.86,0.45l-0.27 0.89c-0.68,2.04 -1.1,4.19 -1.33,6.33 -0.01,0.13 -0.05,0.4 -0.06,0.53 0.01,0.32 0.16,0.9 0.21,1.26 0.06,0.44 0.11,0.89 0.14,1.34 0.04,0.56 0.13,2.35 0.08,2.83l-7.66 -8.19c-0.33,-0.37 -0.93,-0.95 -1.29,-1.37l-0.95 -1.02c-0.06,-0.07 -0.1,-0.12 -0.17,-0.18 -0.09,-0.08 -0.09,-0.06 -0.14,-0.17 -0.02,0.03 -0.03,0.08 -0.03,0.12l0 1.16c0.01,0.21 0.03,0.2 0.03,0.6 0,0.23 0.03,0.38 0.03,0.62 0.01,0.45 0.2,1.98 0.28,2.36 0.19,1.01 0.5,2.06 1.05,2.88 0.94,1.42 2.31,2.13 4,2.56 0.65,0.16 1.03,0.23 1.64,0.33 0.18,0.03 0.37,0.07 0.56,0.09 0.38,0.04 0.8,0.1 1.17,0.15l1.21 0.1c0,0.37 0.35,2.04 0.44,2.38l0.45 1.63c0.05,0.15 0.16,0.41 0.17,0.55 0.04,0 0.04,0 0.02,0.04 0.13,0.16 0.21,0.23 0.34,0.36 0.86,0.86 1.38,1.63 2.05,2.7 0.22,0.36 1.74,3.09 1.86,3.51l-1.79 -0.96c-1.12,-0.64 -2.46,-1.32 -3.61,-1.95 -0.59,-0.33 -1.2,-0.68 -1.8,-0.98 -0.62,-0.32 -1.19,-0.67 -1.8,-0.98 -0.61,-0.31 -1.19,-0.65 -1.81,-0.98 -0.59,-0.31 -1.22,-0.64 -1.8,-0.98l-1.56 -0.84c-0.23,-0.12 -0.17,-0.07 -0.21,-0.15l0.41 0.94c0.16,0.32 0.31,0.67 0.49,0.96 0.09,0.14 0.16,0.3 0.24,0.44l0.52 0.92c0.09,0.16 0.17,0.3 0.27,0.45 0.27,0.45 0.81,1.26 1.16,1.68 0.63,0.77 1.05,1.2 1.81,1.76 1.1,0.81 2.3,1.12 3.72,1.28l1.36 0.03c0.98,-0.08 1.6,-0.1 2.62,-0.26 0.41,-0.06 0.85,-0.12 1.23,-0.2 0.31,0.46 0.68,0.85 1.02,1.25l1.11 1.23c0.37,0.13 0.72,0.23 1.09,0.39 1.65,0.73 2.66,1.63 3.96,2.69 0.15,0.12 0.24,0.22 0.38,0.34 0.08,0.07 0.14,0.1 0.21,0.17 0.38,0.38 0.92,0.8 1.31,1.24l-16.61 -1.11c0.11,0.22 0.78,0.75 0.98,0.94 0.73,0.74 2.47,2.1 3.25,2.62 1.81,1.21 3.86,1.93 6.07,1.29 1.97,-0.58 3.9,-1.83 5.54,-3.06 0.08,-0.06 0.13,-0.1 0.21,-0.16l0.23 -0.18c0.13,0.09 0.28,0.18 0.43,0.26l1.81 1c0.17,0.09 0.32,0.16 0.48,0.24 0.16,0.08 0.31,0.16 0.48,0.24 0.14,0.07 0.34,0.19 0.49,0.23 0.31,-0.17 0.78,-0.36 1.14,-0.52 0.21,-0.09 1.02,-0.41 1.14,-0.51 -0.72,-0.35 -1.56,-0.71 -2.32,-1.08l-1.67 -0.9c-0.13,-0.07 -0.48,-0.25 -0.54,-0.33 -0.11,0.05 -0.12,0.08 -0.2,0.17l-0.57 0.48 1.81 -13.93c-0.09,0.04 -0.24,0.17 -0.32,0.25 -0.11,0.12 -0.19,0.16 -0.29,0.27 -0.12,0.12 -0.17,0.16 -0.3,0.27l-1.46 1.44c-0.13,0.16 -0.77,0.84 -1.08,1.23 -0.72,0.89 -1.32,1.89 -1.56,3.04 -0.27,1.28 0.13,2.64 0.69,3.75 0.23,0.46 0.56,1.04 0.84,1.46 -0.12,-0.03 -0.68,-0.46 -0.81,-0.56 -0.27,-0.2 -0.53,-0.4 -0.79,-0.61l-1.13 -0.94c-0.07,-0.08 -0.11,-0.09 -0.18,-0.16 -0.28,-0.24 -0.65,-0.64 -0.91,-0.85 -0.32,-0.25 -0.99,-1.05 -1.34,-1.43l-0.65 -0.76 -0.89 0.31c0.51,-1.11 1,-2.25 1.52,-3.36 0.53,-1.12 1.04,-2.25 1.53,-3.38 0.5,-1.13 1.03,-2.23 1.54,-3.37l1.33 -2.94c0.12,-0.24 0.13,-0.38 0.22,-0.34l-0.04 -0.07c-0.12,0.06 -0.27,0.1 -0.4,0.15 -0.15,0.05 -0.29,0.1 -0.43,0.16 -0.27,0.11 -0.56,0.21 -0.83,0.33 -0.14,0.06 -0.27,0.11 -0.4,0.17 -0.79,0.34 -1.62,0.72 -2.35,1.18 -0.29,0.19 -1.25,0.87 -1.48,1.14 -0.47,0.58 -0.7,0.72 -1.07,1.55 -0.32,0.7 -0.47,1.66 -0.47,2.44 0,0.24 0.03,0.34 0.03,0.56 -0.01,0.67 0.23,1.88 0.37,2.57 0.03,0.15 0.1,0.33 0.1,0.5l-1.5 -2.82c-0.15,-0.33 -0.28,-0.66 -0.42,-1.02 -0.45,-1.15 -0.88,-2.74 -1.08,-3.95 -0.03,-0.17 -0.09,-0.44 -0.09,-0.63l-0.88 0.08c0.06,-0.12 0.22,-0.28 0.32,-0.37l1.01 -1.02c0.22,-0.24 0.44,-0.5 0.67,-0.72l0.66 -0.68c0.06,-0.06 0.1,-0.11 0.16,-0.18l0.52 -0.51c0.63,-0.68 1.33,-1.36 1.99,-2.08 0.11,-0.12 0.23,-0.21 0.34,-0.34 0.12,-0.12 0.22,-0.23 0.33,-0.35 0.22,-0.24 0.45,-0.45 0.67,-0.68l3.84 -4c0.1,-0.09 0.1,-0.06 0.16,-0.17l-0.88 0.07c-2.34,0.29 -5.37,0.64 -7.17,2.23 -0.26,0.23 -0.47,0.47 -0.69,0.72 -0.07,0.09 -0.13,0.17 -0.2,0.27 -0.48,0.72 -0.56,0.92 -0.87,1.73l-0.08 0.17c0,-0.81 0.43,-2.78 0.59,-3.54 0.19,-0.91 0.44,-1.6 0.67,-2.43 0.07,-0.25 0.19,-0.52 0.25,-0.78 -0.15,-0.11 -0.44,-0.17 -0.64,-0.22 0.12,-0.11 2.99,-1.25 3.4,-1.42l10.04 -4.12c0,0 0.11,-0.04 0.12,-0.04 0.07,-0.01 0.05,0 0.09,0.01 0.02,-0.11 -0.41,-0.21 -0.62,-0.27l-1.44 -0.43c-1.85,-0.46 -4.47,-1.09 -6.39,-0.16 -0.62,0.3 -0.86,0.42 -1.43,0.91 -0.52,0.43 -0.57,0.56 -0.94,0.93 -0.09,0.09 -0.13,0.18 -0.23,0.24 0.03,-0.14 0.57,-1.16 0.69,-1.37 0.08,-0.14 0.18,-0.3 0.26,-0.46 0.07,-0.15 0.16,-0.3 0.24,-0.44l0.78 -1.31 -1.34 0.41c0.04,-0.11 0.89,-1.43 1.03,-1.64 0.36,-0.55 0.7,-1.08 1.05,-1.63l1.57 -2.47c0.18,-0.27 0.34,-0.54 0.52,-0.81 0.19,-0.28 0.34,-0.54 0.53,-0.82 0.7,-1.06 1.39,-2.23 2.09,-3.29l1.31 -2.03c0.05,-0.09 0.08,-0.15 0.13,-0.22l0.14 -0.18c-0.16,-0.06 -2.85,0.93 -3.17,1.06 -0.4,0.16 -1.43,0.61 -1.77,0.82 -0.78,0.47 -0.71,0.38 -1.54,1.03 -0.49,0.38 -0.88,0.84 -1.23,1.36 -0.65,0.97 -1.06,2.52 -1.07,3.68 -0.01,0.39 -0.05,0.94 -0.01,1.23 0.03,0.21 0.03,1.32 0.08,1.67 0.12,0.92 0.14,0.69 -0.23,1.31 -0.34,0.57 -0.94,1.61 -1.24,2.21l-0.59 1.15c-0.07,0.13 -0.23,0.52 -0.3,0.59z"/>
   <path class="fil2" d="M7.22 52.04l16.61 1.11c-0.39,-0.44 -0.93,-0.86 -1.31,-1.24 -0.07,-0.07 -0.13,-0.1 -0.21,-0.17 -0.14,-0.12 -0.23,-0.22 -0.38,-0.34 -1.3,-1.06 -2.31,-1.96 -3.96,-2.69 -0.37,-0.16 -0.72,-0.26 -1.09,-0.39 -2.36,-0.71 -4.68,0.36 -6.65,1.56l-2.96 2.08c-0.1,0.08 -0.08,0.06 -0.05,0.08z"/>
   <path class="fil2" d="M47.12 48.32c-0.39,0.15 -0.55,0.16 -1.06,0.38 -1.52,0.65 -3.37,2.09 -4.54,3.18 -0.09,0.08 -0.12,0.12 -0.2,0.18l-1.15 1.08 16.61 -1.1c0.04,-0.01 0.06,0.02 -0.04,-0.07 -0.38,-0.35 -2.49,-1.78 -2.93,-2.07l-0.83 -0.48c-0.98,-0.5 -1.57,-0.84 -2.77,-1.14 -0.99,-0.25 -2.13,-0.25 -3.09,0.04z"/>
   <path class="fil2" d="M54.19 29.02c-0.01,0.31 -0.16,0.9 -0.21,1.26 -0.12,0.84 -0.3,3.42 -0.22,4.17 0.1,-0.11 0.21,-0.21 0.31,-0.32l2.24 -2.39c0.2,-0.24 0.42,-0.45 0.63,-0.69l0.64 -0.66c0.11,-0.12 0.19,-0.24 0.31,-0.35l0.47 -0.5c0.07,-0.08 0.1,-0.09 0.17,-0.17 0.11,-0.13 0.2,-0.25 0.33,-0.36 0.13,-0.13 0.2,-0.22 0.31,-0.34l1.91 -2.04c0.41,-0.4 1.33,-1.42 1.76,-1.89 0.06,-0.07 0.12,-0.1 0.18,-0.17l0.95 -1.05c-0.7,0 -2.75,0.29 -3.42,0.4 -0.53,0.09 -1.07,0.2 -1.56,0.34 -1.71,0.5 -3.02,1.13 -3.98,2.68 -0.21,0.36 -0.47,0.93 -0.6,1.34l-0.2 0.7c-0.01,0.01 -0.01,0.02 -0.01,0.02 0,0.01 -0.01,0.02 -0.01,0.02z"/>
   <path class="fil2" d="M9.81 29.02c-0.02,-0.03 0,0.01 -0.03,-0.06l-0.07 -0.3c-0.04,-0.13 -0.08,-0.25 -0.11,-0.36 -0.07,-0.24 -0.18,-0.47 -0.27,-0.7 -0.25,-0.6 -0.69,-1.24 -1.15,-1.69 -0.09,-0.09 -0.16,-0.14 -0.25,-0.22 -1.58,-1.47 -4.84,-1.87 -7,-2.1 -0.29,-0.03 -0.61,-0.07 -0.9,-0.07 0.05,0.11 0.05,0.09 0.14,0.17 0.07,0.06 0.11,0.11 0.17,0.18l0.95 1.02c0.36,0.42 0.96,1 1.29,1.37l7.66 8.19c0.05,-0.48 -0.04,-2.27 -0.08,-2.83 -0.03,-0.45 -0.08,-0.9 -0.14,-1.34 -0.05,-0.36 -0.2,-0.94 -0.21,-1.26z"/>
   <path class="fil2" d="M52.12 34.42l0.88 0.09c-0.06,-0.13 -0.84,-0.91 -0.98,-1.07l-0.35 -0.33c-0.22,-0.24 -0.42,-0.48 -0.65,-0.7l-2.02 -2.08c-0.44,-0.47 -0.89,-0.92 -1.32,-1.39 -0.11,-0.12 -0.23,-0.2 -0.34,-0.32l-1.32 -1.4c-0.12,-0.12 -0.24,-0.21 -0.35,-0.34 -0.2,-0.21 -0.45,-0.52 -0.67,-0.7 -0.21,-0.18 -0.46,-0.48 -0.66,-0.69l-2.01 -2.09c-0.06,0.17 0.13,2.1 0.16,2.38 0.17,1.45 0.41,2.95 0.97,4.25 0.21,0.48 0.42,0.85 0.71,1.26 0.1,0.13 0.18,0.25 0.29,0.37l0.3 0.32c0.31,0.3 0.76,0.63 1.12,0.85 1.09,0.66 2.63,1.07 3.93,1.29 0.25,0.04 2.07,0.32 2.31,0.3z"/>
   <path class="fil2" d="M11.88 34.42c0.28,0.02 1.99,-0.25 2.28,-0.3 0.92,-0.15 1.28,-0.26 2.13,-0.5l0.94 -0.34c0.55,-0.24 1.37,-0.69 1.81,-1.12 0.14,-0.14 0.18,-0.12 0.34,-0.32 0.13,-0.19 0.19,-0.19 0.43,-0.54 1.15,-1.64 1.46,-3.51 1.69,-5.49 0.04,-0.3 0.23,-2.23 0.17,-2.41 -0.06,0.11 -0.06,0.08 -0.16,0.17l-3.84 4c-0.22,0.23 -0.45,0.44 -0.67,0.68 -0.11,0.12 -0.21,0.23 -0.33,0.35 -0.11,0.13 -0.23,0.22 -0.34,0.34 -0.66,0.72 -1.36,1.4 -1.99,2.08l-0.52 0.51c-0.06,0.07 -0.1,0.12 -0.16,0.18l-0.66 0.68c-0.23,0.22 -0.45,0.48 -0.67,0.72l-1.01 1.02c-0.1,0.09 -0.26,0.25 -0.32,0.37l0.88 -0.08z"/>
   <path class="fil2" d="M46.78 13.69l1.34 0.42c-0.04,-0.13 -0.4,-0.66 -0.49,-0.81 -1.01,-1.62 -2.14,-3.29 -3.15,-4.92l-1.57 -2.45c-0.69,-1.06 -1.41,-2.25 -2.09,-3.29l-1.02 -1.58c-0.03,-0.03 -0.02,-0.02 -0.05,-0.05 -0.09,0.46 -0.15,1.2 -0.21,1.68 -0.12,0.95 -0.13,2.05 -0.13,3.08 0,0.83 0.12,1.57 0.28,2.25 0.09,0.34 0.19,0.64 0.32,0.96 0.13,0.31 0.29,0.56 0.45,0.83 0.21,0.36 0.7,0.92 1,1.19 0.44,0.39 1.2,0.93 1.72,1.19l0.83 0.42c0.87,0.44 1.68,0.66 2.51,0.99 0.1,0.04 0.14,0.06 0.26,0.09z"/>
   <path class="fil2" d="M42.06 32.16l-0.44 1.52c-0.59,2.23 -1.24,5.12 -0.35,7.2 0.22,0.49 0.66,1.16 1.05,1.54 1.06,1.05 2.67,1.88 4.06,2.44 0.31,0.13 0.62,0.27 0.93,0.37l0.89 0.33c-0.51,-1.11 -1,-2.25 -1.51,-3.35l-4.4 -9.69c-0.04,-0.08 -0.07,-0.14 -0.1,-0.22 -0.05,-0.1 -0.04,-0.16 -0.13,-0.14z"/>
   <path class="fil2" d="M16.69 45.24c0.29,-0.11 0.61,-0.23 0.91,-0.36 0.91,-0.4 1.33,-0.6 2.19,-1.07 0.16,-0.08 0.27,-0.15 0.42,-0.24 0.51,-0.31 1.04,-0.72 1.45,-1.13 0.07,-0.07 0.1,-0.1 0.15,-0.17 0.14,-0.18 0.24,-0.24 0.43,-0.53 1.08,-1.59 1.07,-3.4 0.73,-5.41 -0.15,-0.91 -0.37,-1.77 -0.59,-2.63l-0.44 -1.54c-0.09,-0.04 -0.1,0.1 -0.22,0.34l-1.33 2.94c-0.51,1.14 -1.04,2.24 -1.54,3.37 -0.49,1.13 -1,2.26 -1.53,3.38 -0.52,1.11 -1.01,2.25 -1.52,3.36l0.89 -0.31z"/>
   <path class="fil2" d="M17.22 13.69c0.16,-0.03 0.33,-0.11 0.47,-0.16 1.19,-0.4 2.05,-0.79 3.13,-1.34l1.52 -1.02c0.54,-0.5 0.47,-0.4 0.93,-0.97l0.27 -0.39c0.16,-0.27 0.31,-0.51 0.43,-0.81 0.67,-1.63 0.62,-2.74 0.62,-4.48 0.01,-0.53 -0.23,-2.96 -0.34,-3.51l-0.14 0.18c-0.05,0.07 -0.08,0.13 -0.13,0.22l-1.31 2.03c-0.7,1.06 -1.39,2.23 -2.09,3.29 -0.19,0.28 -0.34,0.54 -0.53,0.82 -0.18,0.27 -0.34,0.54 -0.52,0.81l-1.57 2.47c-0.35,0.55 -0.69,1.08 -1.05,1.63 -0.14,0.21 -0.99,1.53 -1.03,1.64l1.34 -0.41z"/>
   <path class="fil2" d="M52.95 39.09l-0.49 0.51c-1.18,1.18 -2.06,2.79 -2.87,4.26 -0.13,0.25 -0.84,1.62 -0.89,1.8 0.25,-0.14 0.62,-0.33 0.88,-0.47 0.3,-0.15 0.6,-0.32 0.89,-0.48 0.59,-0.34 1.21,-0.64 1.8,-0.98 0.6,-0.33 1.21,-0.67 1.81,-0.97 0.61,-0.32 1.18,-0.67 1.8,-0.98 0.6,-0.3 1.21,-0.65 1.8,-0.98 0.6,-0.33 1.22,-0.64 1.81,-0.98l3.36 -1.82c0.19,-0.11 0.17,-0.06 0.23,-0.16 -0.2,-0.02 -0.48,-0.09 -0.68,-0.13 -0.23,-0.03 -0.43,-0.07 -0.67,-0.11 -1.07,-0.18 -1.73,-0.24 -2.82,-0.3l-0.75 -0.03c-0.3,0 -0.48,0.03 -0.75,0.03 -0.49,0.01 -1.5,0.21 -1.98,0.37 -0.58,0.19 -1.1,0.42 -1.59,0.75 -0.42,0.28 -0.56,0.43 -0.89,0.67z"/>
   <path class="fil2" d="M0.92 37.84c0.04,0.08 -0.02,0.03 0.21,0.15l1.56 0.84c0.58,0.34 1.21,0.67 1.8,0.98 0.62,0.33 1.2,0.67 1.81,0.98 0.61,0.31 1.18,0.66 1.8,0.98 0.6,0.3 1.21,0.65 1.8,0.98 1.15,0.63 2.49,1.31 3.61,1.95l1.79 0.96c-0.12,-0.42 -1.64,-3.15 -1.86,-3.51 -0.67,-1.07 -1.19,-1.84 -2.05,-2.7 -0.13,-0.13 -0.21,-0.2 -0.34,-0.36l-0.02 -0.04 -0.89 -0.64c-0.5,-0.34 -1.01,-0.56 -1.59,-0.75 -0.8,-0.26 -1.87,-0.39 -2.71,-0.39 -0.51,0 -1.7,0.07 -2.2,0.14l-2.04 0.3c-0.2,0.04 -0.48,0.11 -0.68,0.13z"/>
   <path class="fil2" d="M50.71 21.84c0.16,-0.11 0.44,-0.17 0.64,-0.22 -0.11,-0.11 -6.49,-2.69 -6.81,-2.82l-6.72 -2.76c-0.01,0 -0.04,-0.02 -0.12,0.01l0.46 0.85c0.04,0.08 0.07,0.11 0.11,0.2l1.1 1.84c0.39,0.59 0.64,0.94 1.09,1.49 0.06,0.07 0.09,0.09 0.15,0.17 0.07,0.09 0.09,0.1 0.16,0.18 0.23,0.23 0.42,0.45 0.67,0.64l0.36 0.3c1.39,1.04 2.9,1.29 4.67,1.09 1.31,-0.15 2.49,-0.46 3.74,-0.83 0.14,-0.04 0.39,-0.13 0.5,-0.14z"/>
   <path class="fil2" d="M13.29 21.84l0.98 0.28c2.33,0.66 4.86,1.24 7.11,0.12 0.78,-0.39 1.24,-0.85 1.82,-1.43 0.11,-0.11 0.2,-0.22 0.31,-0.34 0.45,-0.51 0.97,-1.32 1.35,-1.9 0.44,-0.67 0.71,-1.22 1.08,-1.86l0.36 -0.66c-0.04,-0.01 -0.02,-0.02 -0.09,-0.01 -0.01,0 -0.12,0.04 -0.12,0.04l-10.04 4.12c-0.41,0.17 -3.28,1.31 -3.4,1.42 0.2,0.05 0.49,0.11 0.64,0.22z"/>
   <path class="fil2" d="M39.06 52.12c0.15,0.07 0.55,0.53 0.77,0.65l-1.81 -13.93c-0.02,-0.04 0.02,-0.09 -0.13,0.11 -0.05,0.07 -0.08,0.11 -0.13,0.18 -0.1,0.13 -0.18,0.24 -0.28,0.37 -0.1,0.14 -0.18,0.24 -0.28,0.38l-1.05 1.57c-1.02,1.7 -1.81,3.46 -1.12,5.51 0.39,1.17 1.24,2.27 2.06,3.2 0.11,0.12 0.22,0.2 0.32,0.33 0.27,0.37 0.96,0.95 1.32,1.31l0.33 0.32z"/>
   <path class="fil2" d="M24.94 52.12c0.12,-0.09 0.21,-0.2 0.32,-0.31 0.12,-0.12 0.22,-0.19 0.34,-0.31 0.23,-0.23 0.43,-0.43 0.66,-0.66l1.24 -1.38c0.35,-0.45 0.8,-1.03 1.05,-1.54 0.33,-0.65 0.53,-1.11 0.66,-1.97 0.11,-0.8 -0.1,-1.74 -0.28,-2.29 -0.07,-0.18 -0.12,-0.31 -0.18,-0.48l-0.42 -0.89c-0.25,-0.41 -0.4,-0.75 -0.72,-1.22l-1.56 -2.2c-0.11,-0.11 -0.05,-0.05 -0.07,-0.03l-1.81 13.93 0.57 -0.48c0.08,-0.09 0.09,-0.12 0.2,-0.17z"/>
   <path class="fil2" d="M13.18 17.12c0.27,-1.4 0.3,-3.04 -0.33,-4.3 -0.37,-0.73 -0.69,-1.15 -1.28,-1.74 -0.58,-0.59 -1.6,-1.29 -2.31,-1.73l-2.41 -1.34c0,0 -0.08,-0.04 -0.08,-0.04 -0.08,-0.03 -0.04,-0.03 -0.07,-0.01l5.22 13.46 0.21 -0.51c0.39,-1.15 0.86,-2.63 1.05,-3.79z"/>
   <path class="fil2" d="M50.78 17.05l0.04 0.07c0.16,1.11 0.73,2.87 1.13,4.02 0.01,0.05 0.03,0.1 0.04,0.14l0.07 0.13 5.24 -13.45c-0.04,-0.03 -0.24,0.09 -0.3,0.13 -0.11,0.05 -0.22,0.1 -0.33,0.17l-0.97 0.52c-0.75,0.4 -1.45,0.89 -2.14,1.36 -0.11,0.08 -0.18,0.13 -0.29,0.22 -0.1,0.08 -0.18,0.14 -0.28,0.22 -0.91,0.79 -1.72,1.62 -2.1,2.9 -0.25,0.87 -0.33,1.74 -0.21,2.68l0.1 0.89z"/>
   <path class="fil1" d="M34.12 58.65l0.1 0.06c0.03,0.02 0.06,0.03 0.1,0.06l0.63 0.36c0.29,0.18 0.55,0.33 0.84,0.51 0.14,0.09 0.27,0.17 0.4,0.26 0.5,0.33 1.09,0.7 1.59,1.07l2.63 2.02c0.22,-0.33 1.55,-2.03 1.59,-2.22 -0.09,-0.02 -0.46,-0.36 -0.58,-0.45 -1.62,-1.22 -2.77,-1.85 -4.64,-2.8 -0.15,0.14 -2.31,1.03 -2.66,1.13z"/>
   <path class="fil3" d="M32.01 57.55l2.11 1.1c0.35,-0.1 2.51,-0.99 2.66,-1.13l-1.1 -0.52c-0.11,-0.05 -0.17,-0.07 -0.28,-0.12l-0.87 -0.39c-0.22,0.02 -2.39,0.94 -2.52,1.06z"/>
   <path class="fil3" d="M27.19 55.46c0.2,0.17 2.07,0.9 2.28,1.02 0.12,-0.02 2.48,-1.01 2.52,-1.05l-0.62 -0.24c-0.22,-0.09 -0.41,-0.16 -0.63,-0.25 -0.22,-0.09 -0.4,-0.16 -0.62,-0.25 -0.2,-0.08 -0.46,-0.21 -0.65,-0.26 -0.12,0.1 -0.93,0.42 -1.14,0.51 -0.36,0.16 -0.83,0.35 -1.14,0.52z"/>
  </g>
 </g>
</svg>
