<svg xmlns="http://www.w3.org/2000/svg" xml:space="preserve" style="shape-rendering:geometricPrecision;text-rendering:geometricPrecision;image-rendering:optimizeQuality;fill-rule:evenodd;clip-rule:evenodd" viewBox="0 0 3744.28 4334.92"><defs><style>.fil0{fill:#000;fill-rule:nonzero}</style></defs><g id="Name"><path class="fil0" d="m727.77 3930.39-351.89 404.53h-23.09L-.03 3930.39l352.82-401.77h23.09l351.89 401.77zm-156.09.92-206.89-243.83-207.81 243.83 207.81 244.75 206.89-244.75z"/><path id="_1" class="fil0" d="M1159.09 4259.19H801.66v-653.91h111.75v546.77h245.68z"/><path id="_2" class="fil0" d="m1604.27 3632.06-182.88 374.06v251.22h-111.75v-253.07l-182.88-372.21 108.07-50.8 130.68 299.25 131.62-299.25z"/><path id="_3" class="fil0" d="m2239.7 4251.8-118.22 24.01-81.28-365.74-108.98 357.43h-35.1l-106.21-357.43-83.13 365.74-118.22-24.01 171.79-653.91h34.17l120.07 376.83 119.15-376.83h34.17z"/><path id="_4" class="fil0" d="m2746.75 3884.21-321.41 223.51v150.54h-111.75l.92-670.53h30.48l401.76 296.48zm-181.02-2.78-140.39-107.13v208.73l140.39-101.6z"/><path id="_5" class="fil0" d="M3232.57 4259.19h-416.54v-653.91h111.75v549.54h193.03v-549.54h111.76z"/><path id="_6" class="fil0" d="m3744.25 4060.61-308.48 218.9-67.43-90.52 204.12-138.54-266-252.14 302.02-213.35 68.35 89.59-198.58 134.84z"/></g><g id="Icon"><g id="Laurel"><path id="Background" d="M1109.8 647.56c8.11-1.59 16.72-5.75 24.14-8.21 60.51-20.04 104.42-40.15 159.95-68.27l77.25-52.03c27.63-25.73 24.15-20.32 47.79-49.55l13.77-19.75c8.23-13.95 15.68-26.21 22.06-41.78 34.11-83.22 31.36-139.68 31.72-228.49.12-27.24-12.14-151.45-17.59-179.35-8.22-2.93-145.38 47.62-161.87 54.22-20.45 8.17-73.1 31.22-90.6 41.87-39.42 23.98-36.18 19.3-78.59 52.28-25.07 19.48-45.02 43.1-62.83 69.63-33.09 49.34-53.92 128.85-54.64 187.95-.24 19.91-2.41 47.85-.37 62.74 1.49 10.84 1.75 67.67 4.07 85.31 6.16 46.97 7.32 35.3-11.92 67.17-17.33 28.71-47.71 81.83-63 112.54l-30.32 59.06c-3.29 6.57-11.9 26.57-15.34 29.79 14.1-71.38 15.62-155.33-16.57-219.19-19.04-37.77-35.46-58.77-65.58-89.23-29.75-30.1-81.74-65.96-117.82-88.06L580.4 357.66c-.29-.16-4.18-2.12-4.24-2.14-4.18-1.65-2.03-1.62-3.46-.45-.31.3-.7.4-.81 1.01l-33.45 97.93c-9.89 35.78-19.93 68.46-27.53 106.53-18.79 93.98-20.75 199.33 35.96 274.47 5.15 6.83 8.68 12.88 14.33 19.19 16.32 18.23 30.16 35.16 49.99 50.55l37.13 29.9c49.54 36.39 78.3 49.72 124.06 77.04 14.48 8.64 29.12 15.51 43.76 23.26l-13.74 45.3c-34.63 104.16-56.28 213.79-67.92 323.1-.7 6.57-2.78 20.63-2.91 27.4-1.2-1.88-.23.28-1.51-3.29l-3.95-15.2c-1.84-6.44-3.75-12.63-5.51-18.43-3.71-12.21-9.02-23.9-13.9-35.58-12.78-30.69-35.09-63.65-58.5-86.73-4.48-4.42-7.99-6.66-12.8-11.13-80.74-75.19-246.94-95.31-357.37-107.07-14.81-1.57-31.26-3.46-46.19-3.46-.86 1.53-1.25 3.73-1.42 6.05v59.32c.43 10.37 1.7 10.09 1.58 30.41-.07 11.83 1.24 19.3 1.57 31.94.59 23.02 10.25 100.72 13.99 120.07 10.01 51.7 25.55 105.3 53.72 147.38 48.39 72.3 118.26 108.84 204.59 130.56 32.91 8.27 52.43 11.91 83.42 17.12 9.19 1.54 19.03 3.51 28.95 4.56 19.22 2.06 40.66 5.18 59.5 7.53l61.79 5.24c0 18.83 18.05 104.25 22.35 121.3l23.32 83.61c2.54 7.62 7.99 20.8 8.6 28.1l-45.32-32.88c-25.68-17.19-51.62-28.66-81.35-38.35-40.89-13.36-95.33-19.76-138.26-19.74-26.33.02-86.99 3.53-112.65 7.05l-104.19 15.5c-9.91 1.67-24.44 5.48-34.49 6.18l20.98 48.41c8 16 15.84 33.96 24.78 48.63 4.5 7.41 8.16 15.45 12.39 22.73l26.28 47.13c4.82 8.22 9.05 15.14 13.76 22.95 13.79 22.88 41.77 64 59.47 85.76 32 39.29 53.58 61.02 92.32 89.62 56.27 41.56 117.61 57.55 189.91 65.44l69.9 1.75c49.89-4.13 81.51-5.34 133.47-13.36 20.92-3.23 43.68-6.02 62.92-10.49 15.92 23.77 34.85 43.69 52.2 64.3l56.33 62.6c-120.21-36.12-238.88 18.16-339.27 79.65l-151.15 106.08c-5.21 4.32-4.39 2.96-2.74 4.29 5.81 11.05 39.92 38.09 49.9 48.12 37.35 37.57 126.33 107.24 166.2 133.85 92.36 61.66 197.22 98.43 310.01 65.52 100.81-29.41 199.33-93.07 282.82-156.07 3.96-2.99 6.82-5.13 10.94-8.21l11.63-9.13c6.61 4.44 14.4 9.13 21.85 13.27l92.52 51.1c8.7 4.34 16.23 8.12 24.48 12.24 8.24 4.12 15.77 7.89 24.47 12.24 7.26 3.63 17.71 9.82 25 11.86 10.59 8.45 105.92 45.83 116.51 51.84l-152.68 73.02c-53.25 26.62-130.34 71.42-175.4 105.49l-31.71 24.15c-4.46 3.49-6.49 5.55-10.47 8.67-4.31 3.38-5.94 6.59-11.18 7.98 1.57 6.73 14.78 22.89 19.15 28.73l62.25 84.59 98.27-77.28c4.45-3.2 7.88-5.92 11.84-8.91 76.37-57.46 204.52-134.97 288.87-177.14 10.73-5.37 19.17-9.75 30.95-14.37l107.9 55.78 4.78 3.28c1.72 1.01 3.19 1.74 5.1 2.88l32.32 18.76c14.91 9.02 28.2 16.79 42.7 25.92 7.11 4.47 13.76 8.6 20.44 13.08 25.68 17.21 55.93 35.85 81.15 54.5l134.3 103.5c11.25-16.81 79.21-103.95 81.4-113.32-4.75-1.27-23.69-18.58-29.63-23.04-82.76-62.24-141.7-94.78-237.03-142.94l-56.27-26.59c-5.62-2.86-8.32-3.91-14.28-6.46l-44.23-19.61 118.08-52.69c37.22-16.55 79.49-41.51 113.85-58.51l72.9-42.02 44.7 33.51c15.79 11.09 30.63 21.51 47.23 32.57 106.32 70.88 220.92 136.66 355.4 114.73 96.79-15.78 189.45-84.31 258.45-140.54l64.39-55.3c4.18-3.23 6.27-5.68 9.85-9.31l31.65-28.99c6.26-4.84 16.4-14.25 19.83-20.75 1.82-.76 3.01.92-1.87-3.57-19.39-17.86-127.43-91.04-150.06-105.58l-42.24-24.78c-50.03-25.37-79.93-42.95-141.29-58.21-50.52-12.56-109.06-12.67-157.7 2.14 5.13-10.27 19.86-20.2 27.81-30.5l80.72-96.42c19.06 4.44 40.84 6.93 61.55 10.27 22.28 3.6 42.29 4.99 65.21 8.2 27.03 3.78 74.3 5.33 103.07 5.47 11.37.06 23.19-.75 35.02-1.69 66.45-5.27 104.09-17.38 155.93-43.56 5.25-2.64 7.59-3.58 12.38-6.77 58.66-38.92 82.87-61.58 129.76-124 5.53-7.37 10.15-13.56 15.47-21.23 15.54-22.43 41.5-63.78 55.71-89.52 11.56-20.91 71.63-133.41 74.51-145.74h-2.43c-10.06-.7-24.58-4.51-34.49-6.18-11.97-2.01-21.89-3.61-34.22-5.68-54.68-9.16-88.57-12.27-144.33-15.27l-38.29-1.6c-15.14-.01-24.09 1.45-38.36 1.54-24.87.18-76.42 10.39-101.11 18.59-29.38 9.76-56.05 21.78-81.1 38.6-21.42 14.38-28.55 21.79-45.24 33.84l16.84-54.26c5.27-19.08 10.81-38.56 15.63-57.78 4.9-19.48 8.83-39.8 12.69-59.13 2.52-12.57 9.98-51.81 9.98-63.44l60.36-5.07c61.06-6.79 113.38-14.46 172.01-29.09 37.12-9.26 67.62-20.88 97.99-36.06 32.26-16.11 53.28-31.98 77.82-56.24 46.99-46.46 70.88-120.84 83.53-184.6 4.53-22.83 12.83-92.91 14.22-119.84l3.19-97.36v-.75c-.01-4.32-.03-8.65 0-12.98v-13.02c-.22-1.95-.63-3.76-1.42-5.17-35.89 0-140.57 14.68-174.6 20.29-27.15 4.48-55.01 10.22-79.91 17.44-87.34 25.37-154.33 57.78-203.04 136.9-11.12 18.06-24.32 47.56-30.81 68.15l-10.34 35.95c-.12.3-.4.85-.5 1.09-.11.23-.32.73-.53 1.07l-12.84-106.85-19.05-100.64c-11.87-48.29-22.76-94.76-38.53-141.82l-14.16-46.49c28.95-15.31 57.29-29.9 85.49-46.98 4.01-2.43 6.52-3.63 10.21-5.75 43.27-24.93 70.55-47.25 108.59-76.54l49.89-50.66c113.53-127.11 48.22-329.71-.6-475.82-1.32-3.94-3.07-8.03-4.37-11.6-1.74-4.82-2.17-8.92-5.74-12.53-1.95-1.57-12.09 4.81-15.24 6.39-5.58 2.78-11.19 5.24-16.88 8.65l-49.62 26.99c-38.18 20.35-73.77 45.12-109.38 69.38-5.64 3.84-9.23 6.67-14.54 10.98-5.02 4.07-9.49 7.18-14.22 11.32-46.46 40.61-88.24 82.92-107.27 148.09-12.95 44.35-17.23 89.02-10.95 136.82l5.26 45.81c-.22-.33-.5-1.25-.58-1.02-.81 2.29-.93-1.69-1.12-2.06l-50.29-98.15c-3.2-5.34-4.62-9.25-7.58-14.75-5.14-9.55-10.26-18.45-15.52-27.57-6.85-11.89-47.6-78.83-47.58-84.43l4.13-38.99c1.83-13.77.66-28.42 2.71-41.97 2.01-13.32-.39-28.35 1.59-41.5 1.88-12.39-1.54-68.12-2.29-83.64-1.49-30.3-13.03-82.58-23.43-109.03-32.97-83.8-82.58-127.57-156.56-172.2l-58.24-29.54c-37.2-15.91-69.52-30.58-109.46-43.76C2347.85 27 2266.3-1.96 2260.49.14c-4.6 23.47-7.63 61-10.73 85.66-6.09 48.4-6.8 105-6.83 157.55-.03 42.36 6.14 80.11 14.68 114.6 4.37 17.65 9.47 32.73 16.31 49.13 6.59 15.85 14.41 28.54 22.76 42.67 10.75 18.22 35.6 46.77 51.2 60.52 22.49 19.81 61.36 47.52 87.61 60.81l42.59 21.25c44.54 22.49 85.59 34.09 128.06 50.69 5.15 2.01 7.34 3.37 13.44 4.5l26.23 43.6c9.42 15.57 17.04 29.91 25.92 45.89l24.77 45.47c4.35 7.15 22 41.25 23.63 48.19-4.68-3.13-17.63-20.03-22.71-25.17-8.28-8.36-15.59-15.66-23.94-23.94-11.86-11.72-40.7-32.87-54.55-41.22-5.43-3.26-10.37-5.62-15.37-8.55-33.53-19.67-95.44-32.15-135.59-32-62.9.24-117.35 10.11-168.55 22.98-45.37 11.41-85.93 23.01-130.11 37.47-6.19 2.03-14.42 2.48-13.48 8.18l23.24 43.12c2.13 4.12 3.55 5.72 5.87 10.09l56.08 93.94c20.17 30.24 32.85 48.12 55.94 76.53 2.78 3.42 4.6 4.63 7.54 8.41 3.52 4.54 4.3 5.4 8.25 9.31 11.6 11.47 21.49 22.68 34.15 32.88l18.47 15.05c70.66 53.06 148.11 65.9 238.53 55.69 66.89-7.56 127.11-23.48 190.66-42.35 7.08-2.11 19.8-6.86 25.61-7.41l36.64 121.86c12.22 41.87 40.47 178.68 40.47 222.86-3.69-4.23-18.15-51.27-38.29-81.41-3.21-4.81-6.41-9.54-9.59-14.35l-21.12-26.75c-16.91-17.1-30.67-30.97-51-44.76-20.45-13.87-38.92-23.89-63.1-34.26-46.68-20.01-93.19-31.37-149.54-41.97-27.87-5.25-53.95-8.49-83.22-12.54-14.99-2.07-27.8-2.66-43.11-4.77-14.66-2.02-30.79-4.11-46.03-4.11-3.19 8.69 6.75 107.25 8.36 121.58 8.32 73.96 20.56 150.59 49.3 217.23 10.55 24.46 21.43 43.16 36.5 64.04 4.88 6.77 9.02 13.12 14.6 18.91l15.15 16.78c16.18 15.12 38.74 31.89 57.4 43.14 55.46 33.49 134.19 54.69 200.79 65.73 12.85 2.13 105.7 16.62 118.11 15.63 0 9.21-3.17 22.42-4.56 30.88-1.81 11.06-3.73 19.68-5.95 30.76-11.67 58.35-28.22 116.18-49.22 171.02-7.01 18.3-13.57 34.54-21.2 52.21-15.53 35.95-30.71 63.82-48.88 97.96-2.28 4.3-3.93 6.69-6.54 11.01-2.77 4.56-4.34 7.79-6.97 12.18-3.43 5.72-10.38 18.87-14.68 22.02 2.03-24.39 24.45-100.19 23.96-153.18-.11-12.24 1.65-17.34 1.65-28.76 0-11.18-1.54-16.67-1.62-28.78-.2-28.76-10.8-70.4-21.93-96.17-13.35-30.91-33.51-56.39-54.5-79.55-9.96-10.98-46.95-39.45-57.37-46.37l-36.34-22.71c-51.18-30.27-129.39-62.57-186.06-83.67-6.95-2.58-16.01-5.3-22.1-8.22l-1.59 3.65-22.36 77.73c-30.17 114.05-63.74 261.7-18.01 367.55 10.89 25.22 33.63 59.28 53.52 78.95 54.13 53.55 136.23 96.05 207.34 124.63 15.91 6.39 31.68 13.79 47.63 18.96l-66.63 75.84c-12.08 12.04-21.22 24.83-34.38 35.84l-18.29 16.82c-3.3 3.31-5.45 5.55-8.75 8.82l-47.27 42.09c-34.84 27.98-84.08 68.85-121.53 93.93 3.92-14.69 102.75-138.54 78.65-265.37-13.67-71.92-50.64-119.55-92.34-172.6-2.96-3.78-3.7-4.39-6.56-7.79l-20.82-23.88c-6.09-6.04-9.19-9.06-14.55-15.77-15.83-19.85-69.03-65.91-89.99-87.15-5.53-5.6-9.71-7.94-15.19-13.55-4.34-4.45-11.87-11.3-17.15-13.97-.68-2.03 1.22-4.56-6.27 5.62-2.67 3.63-4.22 5.71-6.84 9.2-5.15 6.87-9.2 12.29-14.36 19.15-5.17 6.88-8.89 12.45-14.14 19.38l-53.86 80.19c-51.66 86.72-92.17 176.5-57.15 281.61 19.87 59.63 63.66 115.86 105.15 162.97 5.64 6.4 11.2 10.42 16.35 17.17 14.21 18.63 49.44 48.54 67.43 66.63l17.15 16.52c-3.14 4.01-14.11 9.1-19.45 12.3-29.19 17.55-77.84 42.44-108.21 57.77-65.38 33.01-140.49 62.55-208.62 89.83-8.06 3.22-16.48 7.4-24.86 9.11l-31.94-12.29c-11.25-4.39-20.67-8.29-31.89-12.79-11.44-4.6-20.6-8.25-31.93-12.76-10.02-3.99-23.21-10.81-32.82-13.23-36.71-17.87-80.05-35.98-118.87-55.33l-85.15-45.7c-6.44-3.61-24.27-12.63-27.63-16.9 6.29-4.64 10.75-10.07 16.35-15.73 6.31-6.35 11.36-9.66 17.57-15.95 11.49-11.63 21.95-21.97 33.51-33.53l63.44-70.62c17.82-22.81 40.63-52.44 53.75-78.71 16.66-33.34 26.98-56.52 33.39-100.67 5.94-40.91-4.87-88.51-14.33-116.87-3.12-9.36-5.77-15.71-9.2-24.3l-21.44-45.59c-12.42-20.75-20.33-38.5-36.42-62.53l-79.72-112.09c-5.45-5.96-2.84-2.77-3.45-1.86-4.86 2.47-12.31 9.03-16.35 13.16-5.58 5.71-9.73 8.07-15.17 13.55-5.95 5.98-8.58 8.23-15.08 13.66l-74.8 73.61c-6.58 8.52-39.13 42.85-55.15 62.96-36.37 45.66-67.21 96.31-79.49 155.12-13.69 65.55 6.78 135.13 35.01 191.41 11.89 23.71 28.59 53.34 43.09 75.02-6.19-1.66-34.57-23.56-41.49-28.73-13.76-10.31-26.74-20.36-40.4-31.42l-57.34-47.99c-4.01-3.99-5.62-4.5-9.58-7.98-14.19-12.51-32.92-32.71-46.13-43.25-16.36-13.04-50.77-53.92-68.77-73.26l-33.13-39.01c15.11-5.47 31.35-11.74 46.73-18.38 46.56-20.09 68.04-30.26 111.81-54.17 7.84-4.27 13.53-7.73 21.13-12.39 26.18-16.03 53.35-37.04 74.49-57.97 3.46-3.42 4.8-4.76 7.58-8.38 6.99-9.14 12.02-12.66 22.04-27.44 54.77-80.78 54.19-173.43 37.24-276.03-7.71-46.76-19.03-90.64-30.22-134.17l-22.68-79.01-1.66-3.6c-6.34 3.03-14.17 5.33-20.89 7.74-7.48 2.69-14.53 5.44-21.91 8.41-13.65 5.48-28.29 10.52-42.27 16.79-7.09 3.18-13.67 5.59-20.24 8.47-40.25 17.65-82.89 37.13-119.97 60.38-15.18 9.52-63.79 44.24-75.64 58.42-24.4 29.2-35.91 36.85-54.9 79.16-16.03 35.71-23.96 84.36-24 124.44-.02 12.1 1.77 17.48 1.66 28.75-.34 34.11 11.89 95.88 18.98 131.03 1.59 7.88 4.76 17.14 4.94 25.38l-76.58-143.66c-7.68-17.07-14.13-34-21.24-52.17-22.98-58.72-45.24-139.98-55.4-201.55-1.52-9.16-4.78-22.75-4.78-32.19 14.52.91 102.02-13.03 116.73-15.48 47.13-7.83 65.21-13.4 108.64-25.42l48-17.43c27.97-12.16 69.95-35.1 92.49-57.53 7.15-7.11 9.02-5.64 17.17-16.34 7.04-9.25 9.99-9.52 22.36-27.12 58.8-83.73 74.48-179.58 86.3-280.77 1.75-14.99 11.7-113.56 8.63-123.02l-45.03 3.62c-119.59 14.81-274.07 32.6-366.3 114.09-13.12 11.59-23.81 23.91-35.09 36.74-3.76 4.27-6.87 8.77-10.18 13.75-24.35 36.68-28.68 46.66-44.37 88.1l-4.14 8.62c0-41.11 21.76-141.94 29.93-180.73 9.76-46.39 22.58-81.5 34.24-123.75 3.51-12.69 10.06-26.82 12.94-40.24l50.22 14.7c118.74 33.35 247.94 62.96 362.64 6.06 40.1-19.89 63.45-43.69 92.96-73.03 5.98-5.94 10.33-11.31 15.93-17.58 23.31-26.15 49.9-67.4 69.2-96.78 22.55-34.32 36.05-62.43 54.98-95.04l18.46-33.59c.83-5.92-20.78-10.77-31.49-14.17l-73.92-21.83c-94.19-23.56-227.95-55.49-325.94-8.15-31.91 15.42-43.99 21.34-73.45 46.24-26.17 22.12-28.99 28.66-47.99 47.78-4.36 4.4-6.6 9.06-11.56 12.38 1.67-7.15 29.01-59.52 35.19-70.16 4.26-7.33 9.12-15.37 13.23-23.47 3.89-7.66 8.2-15.39 12.54-22.57l39.59-66.91zm-316 1295.49c.07 0 .22.11.45.3l-.45-.3zM2823.86 819.5l2.06 3.19c-2.64-1.24-2.06 2.31-2.06-3.19z" style="fill:#ffcd37"/><path id="Foreground" d="m599.09 2606.3 848.41 56.86c-19.74-22.58-47.68-43.95-67.14-63.39-3.58-3.57-6.62-5.3-10.48-8.73-7.12-6.32-11.87-11.36-19.29-17.36-66.74-54.01-118.25-100-202.55-137.43-18.74-8.32-36.69-13.18-55.79-19.97-120.21-36.12-238.88 18.16-339.27 79.65l-151.15 106.08c-5.21 4.32-4.39 2.96-2.74 4.29zm1019.82 174.79c10.59 8.45 105.92 45.83 116.51 51.84 6.28-1.01 126.47-51.39 128.81-53.6l-31.94-12.29c-11.25-4.39-20.67-8.29-31.89-12.79-11.44-4.6-20.6-8.25-31.93-12.76-10.02-3.99-23.21-10.81-32.82-13.23-6.35 5.01-47.42 21.35-58.62 26.17-18.23 7.85-42.17 17.76-58.12 26.66zm246.4 106.77 107.9 55.78c17.59-5.12 128.06-50.34 135.53-57.38l-56.27-26.59c-5.62-2.86-8.32-3.91-14.28-6.46l-44.23-19.61c-11.37.8-122.37 48.07-128.65 54.26zM2823.86 819.5l2.06 3.19c8.28 56.93 37.27 146.49 57.45 205.41.86 2.5 1.63 5.12 2.39 7.16l3.53 6.83 267.41-687.02c-1.95-1.57-12.09 4.81-15.24 6.39-5.58 2.78-11.19 5.24-16.88 8.65l-49.62 26.99c-38.18 20.35-73.77 45.12-109.38 69.38-5.64 3.84-9.23 6.67-14.54 10.98-5.02 4.07-9.49 7.18-14.22 11.32-46.46 40.61-88.24 82.92-107.27 148.09-12.95 44.35-17.23 89.02-10.95 136.82l5.26 45.81zm-1920.38 3.19c14.1-71.38 15.62-155.33-16.57-219.19-19.04-37.77-35.46-58.77-65.58-89.23-29.75-30.1-81.74-65.96-117.82-88.06L580.4 357.66c-.29-.16-4.18-2.12-4.24-2.14-4.18-1.65-2.03-1.62-3.46-.45l266.69 687.3 10.69-26.14c19.6-58.54 43.59-134.37 53.4-193.54zM1504 2610.33c6.29-4.64 10.75-10.07 16.35-15.73 6.31-6.35 11.36-9.66 17.57-15.95 11.49-11.63 21.95-21.97 33.51-33.53l63.44-70.62c17.82-22.81 40.63-52.44 53.75-78.71 16.66-33.34 26.98-56.52 33.39-100.67 5.94-40.91-4.87-88.51-14.33-116.87-3.12-9.36-5.77-15.71-9.2-24.3l-21.44-45.59c-12.42-20.75-20.33-38.5-36.42-62.53l-79.72-112.09c-5.45-5.96-2.84-2.77-3.45-1.86l-92.79 711.45 29.03-24.34c4.5-4.82 4.9-5.97 10.31-8.66zm721.37-.01c7.55 3.63 27.79 27.02 39.06 32.96l-92.52-711.4c-.68-2.03 1.22-4.56-6.27 5.62-2.67 3.63-4.22 5.71-6.84 9.2-5.15 6.87-9.2 12.29-14.36 19.15-5.17 6.88-8.89 12.45-14.14 19.38l-53.86 80.19c-51.66 86.72-92.17 176.5-57.15 281.61 19.87 59.63 63.66 115.86 105.15 162.97 5.64 6.4 11.2 10.42 16.35 17.17 14.21 18.63 49.44 48.54 67.43 66.63l17.15 16.52zM909.21 1063.68l50.22 14.7c118.74 33.35 247.94 62.96 362.64 6.06 40.1-19.89 63.45-43.69 92.96-73.03 5.98-5.94 10.33-11.31 15.93-17.58 23.31-26.15 49.9-67.4 69.2-96.78 22.55-34.32 36.05-62.43 54.98-95.04l18.46-33.59c-2.06-.95-.87-1.14-4.82-.65-.23.03-5.73 1.99-5.86 2.04l-512.64 210.41c-20.92 8.67-167.51 67.02-173.81 72.26 10.36 2.61 24.77 5.85 32.74 11.2zm1910.96 0c7.99-5.54 22.37-8.25 32.72-11.17-5.68-5.22-331.5-137.02-348.02-143.85l-343-140.73c-.52-.12-2.08-1.47-6.04.49l23.24 43.12c2.13 4.12 3.55 5.72 5.87 10.09l56.08 93.94c20.17 30.24 32.85 48.12 55.94 76.53 2.78 3.42 4.6 4.63 7.54 8.41 3.52 4.54 4.3 5.4 8.25 9.31 11.6 11.47 21.49 22.68 34.15 32.88l18.47 15.05c70.66 53.06 148.11 65.9 238.53 55.69 66.89-7.56 127.11-23.48 190.66-42.35 7.08-2.11 19.8-6.86 25.61-7.41zM277.54 1880.81c2.07 4.38-1.22 1.59 10.56 7.81l79.62 43.22c29.83 17.09 61.73 33.78 92.18 49.89 31.25 16.53 61.32 34.35 92.13 49.91 31.53 15.91 60.34 33.77 92.08 49.93 30.77 15.67 61.88 33.22 92 50 58.62 32.65 126.98 67.05 184.44 99.7l91.24 49.37c-5.9-21.92-83.57-161.16-95.08-179.6-34.17-54.69-60.46-94.08-104.6-138-6.41-6.39-10.92-9.99-17.41-18.39l-.9-1.6-45.32-32.88c-25.68-17.19-51.62-28.66-81.35-38.35-40.89-13.36-95.33-19.76-138.26-19.74-26.33.02-86.99 3.53-112.65 7.05l-104.19 15.5c-9.91 1.67-24.44 5.48-34.49 6.18zm2657.16 63.84-25.28 26.53c-60.04 59.84-105.14 142.11-146.33 217.48-6.93 12.69-42.93 82.39-45.5 91.98 12.5-7.6 31.41-17.14 44.83-24 15.25-7.78 30.91-16.41 45.47-24.73 30.12-17.2 61.75-32.72 92.24-49.84 30.47-17.1 61.68-34.21 92.08-49.93 31.28-16.18 60.44-34.19 92.04-49.98 30.86-15.41 61.7-33.33 92.04-49.97 30.29-16.61 61.99-32.51 92.21-49.86l171.82-93.09c9.79-5.43 8.57-3.13 11.52-8.43-10.06-.7-24.58-4.51-34.49-6.18-11.97-2.01-21.89-3.61-34.22-5.68-54.68-9.16-88.57-12.27-144.33-15.27l-38.29-1.6c-15.14-.01-24.09 1.45-38.36 1.54-24.87.18-76.42 10.39-101.11 18.59-29.38 9.76-56.05 21.78-81.1 38.6-21.42 14.38-28.55 21.79-45.24 33.84zM1109.8 647.56c8.11-1.59 16.72-5.75 24.14-8.21 60.51-20.04 104.42-40.15 159.95-68.27l77.25-52.03c27.63-25.73 24.15-20.32 47.79-49.55l13.77-19.75c8.23-13.95 15.68-26.21 22.06-41.78 34.11-83.22 31.36-139.68 31.72-228.49.12-27.24-12.14-151.45-17.59-179.35l-7.21 9.39c-2.28 3.52-4 6.61-6.71 10.86l-66.69 104.04c-35.64 53.93-71.24 113.48-106.93 167.62-9.49 14.39-17.28 27.8-26.77 41.84-9.54 14.13-17.47 27.96-26.79 41.82l-80.2 125.72c-17.67 28.13-35.07 55.13-53.64 83.55-6.96 10.64-50.74 77.98-52.54 83.86l68.39-21.27zm-27.13 1611.17c15.11-5.47 31.35-11.74 46.73-18.38 46.56-20.09 68.04-30.26 111.81-54.17 7.84-4.27 13.53-7.73 21.13-12.39 26.18-16.03 53.35-37.04 74.49-57.97 3.46-3.42 4.8-4.76 7.58-8.38 6.99-9.14 12.02-12.66 22.04-27.44 54.77-80.78 54.19-173.43 37.24-276.03-7.71-46.76-19.03-90.64-30.22-134.17l-22.68-79.01c-4.44-2.09-5.19 5.26-10.88 17.36l-68.26 150.46c-25.9 57.98-52.89 114.1-78.38 172.13-25.26 57.5-51.48 115.03-78.34 172.21-26.69 56.78-51.51 115.16-77.82 171.62l45.56-15.84zm1295.92-667.93-22.36 77.73c-30.17 114.05-63.74 261.7-18.01 367.55 10.89 25.22 33.63 59.28 53.52 78.95 54.13 53.55 136.23 96.05 207.34 124.63 15.91 6.39 31.68 13.79 47.63 18.96l45.33 16.6c-25.94-56.59-51.22-114.81-77.08-171.19l-224.99-494.79c-1.72-3.75-3.44-7.19-5.02-10.9-2.33-5.52-2.08-8.5-6.36-7.54zm240.99-943.28 68.31 21.5c-1.78-6.65-20.3-33.38-25.12-41.16-51.38-82.92-109.32-167.97-160.51-251.24l-80.36-125.48c-35.07-53.92-71.79-114.87-106.94-167.62l-51.92-80.65c-1.58-1.9-1.01-1.38-2.55-2.73-4.6 23.47-7.63 61-10.73 85.66-6.09 48.4-6.8 105-6.83 157.55-.03 42.36 6.14 80.11 14.68 114.6 4.37 17.65 9.47 32.73 16.31 49.13 6.59 15.85 14.41 28.54 22.76 42.67 10.75 18.22 35.6 46.77 51.2 60.52 22.49 19.81 61.36 47.52 87.61 60.81l42.59 21.25c44.54 22.49 85.59 34.09 128.06 50.69 5.15 2.01 7.34 3.37 13.44 4.5zM836.89 1706.59c14.52.91 102.02-13.03 116.73-15.48 47.13-7.83 65.21-13.4 108.64-25.42l48-17.43c27.97-12.16 69.95-35.1 92.49-57.53 7.15-7.11 9.02-5.64 17.17-16.34 7.04-9.25 9.99-9.52 22.36-27.12 58.8-83.73 74.48-179.58 86.3-280.77 1.75-14.99 11.7-113.56 8.63-123.02-3.28 5.93-3.03 3.99-8.15 8.58l-196.38 204.23c-11.07 11.98-22.74 22.74-33.85 34.75-6.01 6.49-10.88 11.73-16.91 18.22-5.83 6.28-11.97 11.09-17.73 17.36-33.58 36.59-69.37 71.21-101.59 105.9l-26.18 26.46c-3.24 3.22-5.32 5.76-8.44 9.13l-33.85 34.76c-11.73 11.13-22.52 24.43-33.87 36.41l-51.52 52.17c-5.37 4.87-13.51 12.89-16.63 19.13l44.78-3.99zm2055.6-.07 44.8 4.24c-3.04-6.24-42.93-46.14-50.4-54.19l-17.73-17.34c-11.32-11.98-21.48-24.14-33.08-35.59l-103.11-105.93c-22.34-23.99-45.42-47.15-67.74-71.14-5.61-6.02-11.35-10.45-16.94-16.54l-67.71-71.16c-5.8-6.27-11.89-11.07-17.71-17.38-10.09-10.96-23.24-26.83-34.26-35.97-10.87-9.01-23.55-24.41-33.49-35.16l-102.84-106.88c-3.19 8.69 6.75 107.25 8.36 121.58 8.32 73.96 20.56 150.59 49.3 217.23 10.55 24.46 21.43 43.16 36.5 64.04 4.88 6.77 9.02 13.12 14.6 18.91l15.15 16.78c16.18 15.12 38.74 31.89 57.4 43.14 55.46 33.49 134.19 54.69 200.79 65.73 12.85 2.13 105.7 16.62 118.11 15.63zM731.57 1430.75c-1.2-1.88-.23.28-1.51-3.29l-3.95-15.2c-1.84-6.44-3.75-12.63-5.51-18.43-3.71-12.21-9.02-23.9-13.9-35.58-12.78-30.69-35.09-63.65-58.5-86.73-4.48-4.42-7.99-6.66-12.8-11.13-80.74-75.19-246.94-95.31-357.37-107.07-14.81-1.57-31.26-3.46-46.19-3.46 2.56 5.29 2.61 4.54 7.39 8.74 3.41 3 5.34 5.45 8.5 9.06l48.51 52.04c18.65 21.22 49.26 50.96 65.72 69.92l391.48 418.42c2.63-24.42-2.07-116.01-4.12-144.82-1.63-22.83-3.94-45.85-7.1-68.24-2.57-18.25-10.34-48.29-10.65-64.23zm2266.24 0c-.37 15.85-8.09 46.01-10.66 64.09-6.06 42.81-15.37 174.98-11.21 213.2 4.99-5.65 10.79-10.67 16.01-16.63l114.25-121.94c10.46-12.05 21.59-23.03 32.06-35.02l32.88-34.09c5.75-6.06 9.88-11.86 15.66-17.93l23.98-25.48c3.93-3.8 5.46-4.63 8.89-8.6 5.67-6.54 10.34-12.89 16.66-18.5 7.02-6.23 10.43-10.76 16.17-17.35l97.15-103.96c21.04-20.33 68.27-72.49 90.21-96.52 3.05-3.34 5.84-5.21 8.99-8.49l48.69-53.67c-35.89 0-140.57 14.68-174.6 20.29-27.15 4.48-55.01 10.22-79.91 17.44-87.34 25.37-154.33 57.78-203.04 136.9-11.12 18.06-24.32 47.56-30.81 68.15l-10.34 35.95c-.12.3-.4.85-.5 1.09-.11.23-.32.73-.53 1.07zm-360.68 985.55c-19.98 7.54-28.23 8.24-54.62 19.52-77.46 33.08-171.63 106.67-231.84 162.42-4.15 3.83-5.92 5.85-9.94 9.16l-58.9 55.17 848.46-56.27c1.82-.76 3.01.92-1.87-3.57-19.39-17.86-127.43-91.04-150.06-105.58l-42.24-24.78c-50.03-25.37-79.93-42.95-141.29-58.21-50.52-12.56-109.06-12.67-157.7 2.14z" style="fill:#ff9a00"/></g></g></svg>